Amiamie-Black.ufo
<glyph name="quotedbl" format="2">
	<advance width="410"/>
	<unicode hex="0022"/>
	<note>
		quotedbl
	</note>
	<outline>
		<contour>
			<point x="45" y="439" type="line"/>
			<point x="163" y="439" type="line"/>
			<point x="179" y="735" type="line"/>
			<point x="29" y="735" type="line"/>
		</contour>
		<contour>
			<point x="235" y="439" type="line"/>
			<point x="353" y="439" type="line"/>
			<point x="369" y="735" type="line"/>
			<point x="219" y="735" type="line"/>
		</contour>
	</outline>
</glyph>
<glyph name="numbersign" format="2">
	<advance width="662"/>
	<unicode hex="0023"/>
	<note>
		numbersign
	</note>
	<outline>
		<contour>
			<point x="466" y="297" type="line"/>
			<point x="487" y="393" type="line"/>
			<point x="591" y="393" type="line"/>
			<point x="591" y="489" type="line"/>
			<point x="507" y="489" type="line"/>
			<point x="550" y="690" type="line"/>
			<point x="448" y="690" type="line"/>
			<point x="405" y="489" type="line"/>
			<point x="318" y="489" type="line"/>
			<point x="361" y="690" type="line"/>
			<point x="259" y="690" type="line"/>
			<point x="216" y="489" type="line"/>
			<point x="101" y="489" type="line"/>
			<point x="101" y="393" type="line"/>
			<point x="196" y="393" type="line"/>
			<point x="175" y="297" type="line"/>
			<point x="71" y="297" type="line"/>
			<point x="71" y="201" type="line"/>
			<point x="155" y="201" type="line"/>
			<point x="112" y="0" type="line"/>
			<point x="214" y="0" type="line"/>
			<point x="257" y="201" type="line"/>
			<point x="344" y="201" type="line"/>
			<point x="301" y="0" type="line"/>
			<point x="403" y="0" type="line"/>
			<point x="446" y="201" type="line"/>
			<point x="561" y="201" type="line"/>
			<point x="561" y="297" type="line"/>
		</contour>
		<contour>
			<point x="297" y="393" type="line"/>
			<point x="384" y="393" type="line"/>
			<point x="364" y="297" type="line"/>
			<point x="277" y="297" type="line"/>
		</contour>
	</outline>
</glyph>
<glyph name="parenright" format="2">
	<advance width="400"/>
	<unicode hex="0029"/>
	<note>
		parenright
	</note>
	<outline>
		<contour>
			<point x="125" y="780" type="curve"/>
			<point x="36" y="780" type="line"/>
			<point x="126" y="652"/>
			<point x="173" y="520"/>
			<point x="173" y="350" type="curve" smooth="yes"/>
			<point x="173" y="180"/>
			<point x="126" y="48"/>
			<point x="36" y="-80" type="curve"/>
			<point x="125" y="-80" type="line"/>
			<point x="226" y="26"/>
			<point x="281" y="162"/>
			<point x="281" y="350" type="curve" smooth="yes"/>
			<point x="281" y="538"/>
			<point x="226" y="674"/>
		</contour>
	</outline>
</glyph>
<glyph name="asterisk" format="2">
	<advance width="630"/>
	<unicode hex="002A"/>
	<note>
		asterisk
	</note>
	<outline>
		<contour>
			<point x="482" y="386" type="line"/>
			<point x="359" y="331" type="line"/>
			<point x="373" y="475" type="line"/>
			<point x="257" y="475" type="line"/>
			<point x="271" y="331" type="line"/>
			<point x="148" y="386" type="line"/>
			<point x="113" y="275" type="line"/>
			<point x="246" y="246" type="line"/>
			<point x="147" y="134" type="line"/>
			<point x="241" y="66" type="line"/>
			<point x="315" y="191" type="line"/>
			<point x="389" y="66" type="line"/>
			<point x="483" y="134" type="line"/>
			<point x="384" y="246" type="line"/>
			<point x="517" y="275" type="line"/>
		</contour>
	</outline>
</glyph>
<glyph name="zero" format="2">
	<advance width="662"/>
	<unicode hex="0030"/>
	<note>
		zero
	</note>
	<outline>
		<contour>
			<point x="331" y="704" type="curve" smooth="yes"/>
			<point x="131" y="704"/>
			<point x="46" y="576"/>
			<point x="46" y="345" type="curve" smooth="yes"/>
			<point x="46" y="115"/>
			<point x="131" y="-14"/>
			<point x="331" y="-14" type="curve" smooth="yes"/>
			<point x="531" y="-14"/>
			<point x="616" y="115"/>
			<point x="616" y="345" type="curve" smooth="yes"/>
			<point x="616" y="576"/>
			<point x="531" y="704"/>
		</contour>
		<contour>
			<point x="331" y="118" type="curve" smooth="yes"/>
			<point x="268" y="118"/>
			<point x="234" y="175"/>
			<point x="234" y="345" type="curve" smooth="yes"/>
			<point x="234" y="516"/>
			<point x="268" y="572"/>
			<point x="331" y="572" type="curve" smooth="yes"/>
			<point x="394" y="572"/>
			<point x="428" y="516"/>
			<point x="428" y="345" type="curve" smooth="yes"/>
			<point x="428" y="175"/>
			<point x="394" y="118"/>
		</contour>
	</outline>
</glyph>
<glyph name="seven" format="2">
	<advance width="662"/>
	<unicode hex="0037"/>
	<note>
		seven
	</note>
	<outline>
		<contour>
			<point x="618" y="590" type="line"/>
			<point x="618" y="690" type="line"/>
			<point x="57" y="690" type="line"/>
			<point x="57" y="550" type="line"/>
			<point x="405" y="550" type="line"/>
			<point x="101" y="0" type="line"/>
			<point x="298" y="0" type="line"/>
		</contour>
	</outline>
</glyph>
<glyph name="colon" format="2">
	<advance width="266"/>
	<unicode hex="003A"/>
	<note>
		colon
	</note>
	<outline>
		<contour>
			<point x="40" y="549" type="line"/>
			<point x="40" y="347" type="line"/>
			<point x="240" y="347" type="line"/>
			<point x="240" y="549" type="line"/>
		</contour>
		<contour>
			<point x="40" y="187" type="line"/>
			<point x="40" y="-15" type="line"/>
			<point x="240" y="-15" type="line"/>
			<point x="240" y="187" type="line"/>
		</contour>
	</outline>
</glyph>
<glyph name="equal" format="2">
	<advance width="662"/>
	<unicode hex="003D"/>
	<note>
		equal
	</note>
	<outline>
		<contour>
			<point x="86" y="373" type="line"/>
			<point x="576" y="373" type="line"/>
			<point x="576" y="461" type="line"/>
			<point x="86" y="461" type="line"/>
		</contour>
		<contour>
			<point x="86" y="173" type="line"/>
			<point x="576" y="173" type="line"/>
			<point x="576" y="261" type="line"/>
			<point x="86" y="261" type="line"/>
		</contour>
	</outline>
</glyph>
<glyph name="greater" format="2">
	<advance width="662"/>
	<unicode hex="003E"/>
	<note>
		greater
	</note>
	<outline>
		<contour>
			<point x="541" y="197" type="line"/>
			<point x="541" y="333" type="line"/>
			<point x="70" y="510" type="line"/>
			<point x="70" y="391" type="line"/>
			<point x="425" y="265" type="line"/>
			<point x="70" y="138" type="line"/>
			<point x="70" y="20" type="line"/>
		</contour>
	</outline>
</glyph>
<glyph name="B" format="2">
	<advance width="681"/>
	<unicode hex="0042"/>
	<note>
		B
	</note>
	<outline>
		<contour>
			<point x="528" y="375" type="curve"/>
			<point x="596" y="399"/>
			<point x="629" y="447"/>
			<point x="629" y="510" type="curve" smooth="yes"/>
			<point x="629" y="600"/>
			<point x="565" y="672"/>
			<point x="451" y="686" type="curve" smooth="yes"/>
			<point x="416" y="690"/>
			<point x="400" y="690"/>
			<point x="363" y="690" type="curve" smooth="yes"/>
			<point x="80" y="690" type="line"/>
			<point x="80" y="0" type="line"/>
			<point x="355" y="0" type="line" smooth="yes"/>
			<point x="399" y="0"/>
			<point x="422" y="0"/>
			<point x="457" y="4" type="curve" smooth="yes"/>
			<point x="550" y="15"/>
			<point x="655" y="79"/>
			<point x="655" y="208" type="curve" smooth="yes"/>
			<point x="655" y="292"/>
			<point x="615" y="350"/>
		</contour>
		<contour>
			<point x="260" y="418" type="line"/>
			<point x="260" y="550" type="line"/>
			<point x="341" y="550" type="line" smooth="yes"/>
			<point x="357" y="550"/>
			<point x="373" y="549"/>
			<point x="386" y="547" type="curve" smooth="yes"/>
			<point x="420" y="542"/>
			<point x="441" y="523"/>
			<point x="441" y="484" type="curve" smooth="yes"/>
			<point x="441" y="443"/>
			<point x="418" y="426"/>
			<point x="385" y="421" type="curve" smooth="yes"/>
			<point x="372" y="419"/>
			<point x="357" y="418"/>
			<point x="341" y="418" type="curve" smooth="yes"/>
		</contour>
		<contour>
			<point x="402" y="141" type="curve" smooth="yes"/>
			<point x="389" y="140"/>
			<point x="373" y="140"/>
			<point x="357" y="140" type="curve" smooth="yes"/>
			<point x="260" y="140" type="line"/>
			<point x="260" y="288" type="line"/>
			<point x="352" y="288" type="line" smooth="yes"/>
			<point x="368" y="288"/>
			<point x="384" y="288"/>
			<point x="397" y="287" type="curve" smooth="yes"/>
			<point x="434" y="284"/>
			<point x="467" y="260"/>
			<point x="467" y="214" type="curve" smooth="yes"/>
			<point x="467" y="169"/>
			<point x="434" y="143"/>
		</contour>
	</outline>
</glyph>
<glyph name="D" format="2">
	<advance width="749"/>
	<unicode hex="0044"/>
	<note>
		D
	</note>
	<outline>
		<contour>
			<point x="429" y="686" type="curve" smooth="yes"/>
			<point x="394" y="690"/>
			<point x="378" y="690"/>
			<point x="341" y="690" type="curve" smooth="yes"/>
			<point x="80" y="690" type="line"/>
			<point x="80" y="0" type="line"/>
			<point x="341" y="0" type="line" smooth="yes"/>
			<point x="378" y="0"/>
			<point x="394" y="0"/>
			<point x="429" y="4" type="curve" smooth="yes"/>
			<point x="589" y="22"/>
			<point x="721" y="138"/>
			<point x="721" y="354" type="curve" smooth="yes"/>
			<point x="721" y="570"/>
			<point x="589" y="668"/>
		</contour>
		<contour>
			<point x="381" y="142" type="curve" smooth="yes"/>
			<point x="358" y="140"/>
			<point x="342" y="140"/>
			<point x="316" y="140" type="curve" smooth="yes"/>
			<point x="260" y="140" type="line"/>
			<point x="260" y="550" type="line"/>
			<point x="316" y="550" type="line" smooth="yes"/>
			<point x="342" y="550"/>
			<point x="358" y="550"/>
			<point x="381" y="548" type="curve" smooth="yes"/>
			<point x="471" y="540"/>
			<point x="533" y="474"/>
			<point x="533" y="351" type="curve" smooth="yes"/>
			<point x="533" y="228"/>
			<point x="471" y="150"/>
		</contour>
	</outline>
</glyph>
<glyph name="E" format="2">
	<advance width="639"/>
	<unicode hex="0045"/>
	<note>
		E
	</note>
	<outline>
		<contour>
			<point x="609" y="0" type="line"/>
			<point x="609" y="140" type="line"/>
			<point x="260" y="140" type="line"/>
			<point x="260" y="276" type="line"/>
			<point x="579" y="276" type="line"/>
			<point x="579" y="416" type="line"/>
			<point x="260" y="416" type="line"/>
			<point x="260" y="550" type="line"/>
			<point x="599" y="550" type="line"/>
			<point x="599" y="690" type="line"/>
			<point x="80" y="690" type="line"/>
			<point x="80" y="0" type="line"/>
		</contour>
	</outline>
</glyph>
<glyph name="H" format="2">
	<advance width="770"/>
	<unicode hex="0048"/>
	<note>
		H
	</note>
	<outline>
		<contour>
			<point x="716" y="0" type="line"/>
			<point x="716" y="690" type="line"/>
			<point x="536" y="690" type="line"/>
			<point x="536" y="408" type="line"/>
			<point x="260" y="408" type="line"/>
			<point x="260" y="690" type="line"/>
			<point x="80" y="690" type="line"/>
			<point x="80" y="0" type="line"/>
			<point x="260" y="0" type="line"/>
			<point x="260" y="268" type="line"/>
			<point x="536" y="268" type="line"/>
			<point x="536" y="0" type="line"/>
		</contour>
	</outline>
</glyph>
<glyph name="I" format="2">
	<advance width="314"/>
	<unicode hex="0049"/>
	<note>
		I
	</note>
	<outline>
		<contour>
			<point x="80" y="0" type="line"/>
			<point x="260" y="0" type="line"/>
			<point x="260" y="690" type="line"/>
			<point x="80" y="690" type="line"/>
		</contour>
	</outline>
</glyph>
<glyph name="J" format="2">
	<advance width="638"/>
	<unicode hex="004A"/>
	<note>
		J
	</note>
	<outline>
		<contour>
			<point x="586" y="299" type="curve" smooth="yes"/>
			<point x="586" y="690" type="line"/>
			<point x="406" y="690" type="line"/>
			<point x="406" y="271" type="line" smooth="yes"/>
			<point x="406" y="250"/>
			<point x="406" y="228"/>
			<point x="404" y="205" type="curve" smooth="yes"/>
			<point x="399" y="150"/>
			<point x="373" y="118"/>
			<point x="323" y="118" type="curve" smooth="yes"/>
			<point x="272" y="118"/>
			<point x="236" y="144"/>
			<point x="230" y="234" type="curve" smooth="yes"/>
			<point x="228" y="264" type="line"/>
			<point x="48" y="264" type="line"/>
			<point x="49" y="234" type="line" smooth="yes"/>
			<point x="54" y="84"/>
			<point x="131" y="-14"/>
			<point x="318" y="-14" type="curve" smooth="yes"/>
			<point x="497" y="-14"/>
			<point x="576" y="73"/>
			<point x="583" y="194" type="curve" smooth="yes"/>
			<point x="586" y="245"/>
			<point x="586" y="267"/>
		</contour>
	</outline>
</glyph>
<glyph name="M" format="2">
	<advance width="923"/>
	<unicode hex="004D"/>
	<note>
		M
	</note>
	<outline>
		<contour>
			<point x="869" y="0" type="line"/>
			<point x="869" y="690" type="line"/>
			<point x="595" y="690" type="line"/>
			<point x="478" y="175" type="line"/>
			<point x="361" y="690" type="line"/>
			<point x="80" y="690" type="line"/>
			<point x="80" y="0" type="line"/>
			<point x="260" y="0" type="line"/>
			<point x="260" y="290" type="line" smooth="yes"/>
			<point x="260" y="350"/>
			<point x="260" y="439"/>
			<point x="258" y="509" type="curve"/>
			<point x="269" y="439"/>
			<point x="289" y="350"/>
			<point x="305" y="290" type="curve" smooth="yes"/>
			<point x="382" y="0" type="line"/>
			<point x="567" y="0" type="line"/>
			<point x="643" y="290" type="line" smooth="yes"/>
			<point x="659" y="351"/>
			<point x="679" y="439"/>
			<point x="691" y="509" type="curve"/>
			<point x="689" y="439"/>
			<point x="689" y="350"/>
			<point x="689" y="290" type="curve" smooth="yes"/>
			<point x="689" y="0" type="line"/>
		</contour>
	</outline>
</glyph>
<glyph name="Q" format="2">
	<advance width="791"/>
	<unicode hex="0051"/>
	<note>
		Q
	</note>
	<outline>
		<contour>
			<point x="672" y="127" type="curve"/>
			<point x="731" y="182"/>
			<point x="760" y="261"/>
			<point x="760" y="345" type="curve" smooth="yes"/>
			<point x="760" y="567"/>
			<point x="622" y="705"/>
			<point x="407" y="705" type="curve" smooth="yes"/>
			<point x="192" y="705"/>
			<point x="54" y="567"/>
			<point x="54" y="345" type="curve" smooth="yes"/>
			<point x="54" y="124"/>
			<point x="192" y="-14"/>
			<point x="407" y="-14" type="curve" smooth="yes"/>
			<point x="433" y="-14"/>
			<point x="456" y="-12"/>
			<point x="478" y="-7" type="curve" smooth="yes"/>
			<point x="506" y="-1"/>
			<point x="523" y="2"/>
			<point x="551" y="2" type="curve" smooth="yes"/>
			<point x="598" y="2"/>
			<point x="629" y="-9"/>
			<point x="693" y="-48" type="curve"/>
			<point x="779" y="66" type="line"/>
			<point x="742" y="97"/>
			<point x="709" y="116"/>
		</contour>
		<contour>
			<point x="238" y="345" type="curve" smooth="yes"/>
			<point x="238" y="492"/>
			<point x="303" y="573"/>
			<point x="407" y="573" type="curve" smooth="yes"/>
			<point x="511" y="573"/>
			<point x="576" y="492"/>
			<point x="576" y="345" type="curve" smooth="yes"/>
			<point x="576" y="199"/>
			<point x="511" y="118"/>
			<point x="407" y="118" type="curve" smooth="yes"/>
			<point x="303" y="118"/>
			<point x="238" y="199"/>
		</contour>
	</outline>
</glyph>
<glyph name="V" format="2">
	<advance width="742"/>
	<unicode hex="0056"/>
	<note>
		V
	</note>
	<outline>
		<contour>
			<point x="281" y="0" type="line"/>
			<point x="501" y="0" type="line"/>
			<point x="750" y="690" type="line"/>
			<point x="559" y="690" type="line"/>
			<point x="393" y="139" type="line"/>
			<point x="228" y="690" type="line"/>
			<point x="32" y="690" type="line"/>
		</contour>
	</outline>
</glyph>
<glyph name="bracketleft" format="2">
	<advance width="410"/>
	<unicode hex="005B"/>
	<note>
		bracketleft
	</note>
	<outline>
		<contour>
			<point x="382" y="684" type="line"/>
			<point x="382" y="780" type="line"/>
			<point x="109" y="780" type="line"/>
			<point x="109" y="-80" type="line"/>
			<point x="382" y="-80" type="line"/>
			<point x="382" y="16" type="line"/>
			<point x="209" y="16" type="line"/>
			<point x="209" y="684" type="line"/>
		</contour>
	</outline>
</glyph>
<glyph name="backslash" format="2">
	<advance width="346"/>
	<unicode hex="005C"/>
	<note>
		backslash
	</note>
	<outline>
		<contour>
			<point x="246" y="-30" type="line"/>
			<point x="351" y="-30" type="line"/>
			<point x="100" y="720" type="line"/>
			<point x="-5" y="720" type="line"/>
		</contour>
	</outline>
</glyph>
<glyph name="bracketright" format="2">
	<advance width="410"/>
	<unicode hex="005D"/>
	<note>
		bracketright
	</note>
	<outline>
		<contour>
			<point x="28" y="-80" type="line"/>
			<point x="301" y="-80" type="line"/>
			<point x="301" y="780" type="line"/>
			<point x="28" y="780" type="line"/>
			<point x="28" y="684" type="line"/>
			<point x="201" y="684" type="line"/>
			<point x="201" y="16" type="line"/>
			<point x="28" y="16" type="line"/>
		</contour>
	</outline>
</glyph>
<glyph name="underscore" format="2">
	<advance width="500"/>
	<unicode hex="005F"/>
	<note>
		underscore
	</note>
	<outline>
		<contour>
			<point x="50" y="-88" type="line"/>
			<point x="450" y="-88" type="line"/>
			<point x="450" y="8" type="line"/>
			<point x="50" y="8" type="line"/>
		</contour>
	</outline>
</glyph>
<glyph name="grave" format="2">
	<advance width="300"/>
	<unicode hex="0060"/>
	<note>
		grave
	</note>
	<outline>
		<contour>
			<point x="123" y="571" type="line"/>
			<point x="219" y="571" type="line"/>
			<point x="128" y="696" type="line"/>
			<point x="-32" y="696" type="line"/>
		</contour>
	</outline>
</glyph>
<glyph name="f" format="2">
	<advance width="378"/>
	<unicode hex="0066"/>
	<note>
		f
	</note>
	<outline>
		<contour>
			<point x="257" y="574" type="curve" smooth="yes"/>
			<point x="262" y="621"/>
			<point x="309" y="640"/>
			<point x="374" y="629" type="curve"/>
			<point x="374" y="746" type="line"/>
			<point x="356" y="751"/>
			<point x="335" y="754"/>
			<point x="314" y="754" type="curve" smooth="yes"/>
			<point x="149" y="754"/>
			<point x="85" y="692"/>
			<point x="77" y="592" type="curve" smooth="yes"/>
			<point x="76" y="574"/>
			<point x="76" y="550"/>
			<point x="76" y="534" type="curve" smooth="yes"/>
			<point x="76" y="530" type="line"/>
			<point x="19" y="530" type="line"/>
			<point x="19" y="418" type="line"/>
			<point x="76" y="418" type="line"/>
			<point x="76" y="0" type="line"/>
			<point x="256" y="0" type="line"/>
			<point x="256" y="418" type="line"/>
			<point x="365" y="418" type="line"/>
			<point x="365" y="530" type="line"/>
			<point x="256" y="530" type="line"/>
			<point x="256" y="534" type="line" smooth="yes"/>
			<point x="256" y="547"/>
			<point x="256" y="560"/>
		</contour>
	</outline>
</glyph>
<glyph name="k" format="2">
	<advance width="632"/>
	<unicode hex="006B"/>
	<note>
		k
	</note>
	<outline>
		<contour>
			<point x="234" y="156" type="line"/>
			<point x="272" y="198" type="line"/>
			<point x="415" y="0" type="line"/>
			<point x="636" y="0" type="line"/>
			<point x="407" y="289" type="line"/>
			<point x="633" y="534" type="line"/>
			<point x="422" y="534" type="line"/>
			<point x="234" y="310" type="line"/>
			<point x="234" y="735" type="line"/>
			<point x="54" y="735" type="line"/>
			<point x="54" y="0" type="line"/>
			<point x="234" y="0" type="line"/>
		</contour>
	</outline>
</glyph>
<glyph name="m" format="2">
	<advance width="966"/>
	<unicode hex="006D"/>
	<note>
		m
	</note>
	<outline>
		<contour>
			<point x="913" y="413" type="curve" smooth="yes"/>
			<point x="901" y="486"/>
			<point x="841" y="548"/>
			<point x="734" y="548" type="curve" smooth="yes"/>
			<point x="685" y="548"/>
			<point x="652" y="537"/>
			<point x="619" y="517" type="curve"/>
			<point x="563" y="444" type="line"/>
			<point x="540" y="503"/>
			<point x="483" y="548"/>
			<point x="392" y="548" type="curve" smooth="yes"/>
			<point x="343" y="548"/>
			<point x="310" y="537"/>
			<point x="277" y="517" type="curve"/>
			<point x="234" y="448" type="line"/>
			<point x="234" y="534" type="line"/>
			<point x="54" y="534" type="line"/>
			<point x="54" y="0" type="line"/>
			<point x="234" y="0" type="line"/>
			<point x="234" y="282" type="line" smooth="yes"/>
			<point x="234" y="373"/>
			<point x="257" y="426"/>
			<point x="315" y="426" type="curve" smooth="yes"/>
			<point x="362" y="426"/>
			<point x="386" y="396"/>
			<point x="392" y="345" type="curve" smooth="yes"/>
			<point x="395" y="318"/>
			<point x="396" y="289"/>
			<point x="396" y="272" type="curve" smooth="yes"/>
			<point x="396" y="0" type="line"/>
			<point x="576" y="0" type="line"/>
			<point x="576" y="282" type="line" smooth="yes"/>
			<point x="576" y="373"/>
			<point x="599" y="426"/>
			<point x="657" y="426" type="curve" smooth="yes"/>
			<point x="704" y="426"/>
			<point x="728" y="396"/>
			<point x="734" y="345" type="curve" smooth="yes"/>
			<point x="737" y="318"/>
			<point x="738" y="289"/>
			<point x="738" y="272" type="curve" smooth="yes"/>
			<point x="738" y="0" type="line"/>
			<point x="918" y="0" type="line"/>
			<point x="918" y="312" type="line" smooth="yes"/>
			<point x="918" y="355"/>
			<point x="917" y="386"/>
		</contour>
	</outline>
</glyph>
<glyph name="r" format="2">
	<advance width="420"/>
	<unicode hex="0072"/>
	<note>
		r
	</note>
	<outline>
		<contour>
			<point x="377" y="548" type="curve" smooth="yes"/>
			<point x="343" y="548"/>
			<point x="301" y="533"/>
			<point x="272" y="501" type="curve"/>
			<point x="234" y="426" type="line"/>
			<point x="234" y="534" type="line"/>
			<point x="54" y="534" type="line"/>
			<point x="54" y="0" type="line"/>
			<point x="234" y="0" type="line"/>
			<point x="234" y="196" type="line" smooth="yes"/>
			<point x="234" y="357"/>
			<point x="283" y="407"/>
			<point x="418" y="398" type="curve"/>
			<point x="418" y="545" type="line"/>
			<point x="405" y="547"/>
			<point x="394" y="548"/>
		</contour>
	</outline>
</glyph>
<glyph name="v" format="2">
	<advance width="608"/>
	<unicode hex="0076"/>
	<note>
		v
	</note>
	<outline>
		<contour>
			<point x="405" y="0" type="line"/>
			<point x="616" y="534" type="line"/>
			<point x="419" y="534" type="line"/>
			<point x="310" y="143" type="line"/>
			<point x="200" y="534" type="line"/>
			<point x="0" y="534" type="line"/>
			<point x="211" y="0" type="line"/>
		</contour>
	</outline>
</glyph>
<glyph name="w" format="2">
	<advance width="868"/>
	<unicode hex="0077"/>
	<note>
		w
	</note>
	<outline>
		<contour>
			<point x="707" y="0" type="line"/>
			<point x="876" y="534" type="line"/>
			<point x="682" y="534" type="line"/>
			<point x="614" y="151" type="line"/>
			<point x="546" y="530" type="line"/>
			<point x="332" y="530" type="line"/>
			<point x="268" y="152" type="line"/>
			<point x="198" y="534" type="line"/>
			<point x="0" y="534" type="line"/>
			<point x="169" y="0" type="line"/>
			<point x="370" y="0" type="line"/>
			<point x="438" y="360" type="line"/>
			<point x="506" y="0" type="line"/>
		</contour>
	</outline>
</glyph>
<glyph name="z" format="2">
	<advance width="526"/>
	<unicode hex="007A"/>
	<note>
		z
	</note>
	<outline>
		<contour>
			<point x="497" y="0" type="line"/>
			<point x="497" y="112" type="line"/>
			<point x="227" y="112" type="line"/>
			<point x="494" y="420" type="line"/>
			<point x="494" y="530" type="line"/>
			<point x="49" y="530" type="line"/>
			<point x="49" y="418" type="line"/>
			<point x="304" y="418" type="line"/>
			<point x="34" y="105" type="line"/>
			<point x="34" y="0" type="line"/>
		</contour>
	</outline>
</glyph>
<glyph name="braceleft" format="2">
	<advance width="430"/>
	<unicode hex="007B"/>
	<note>
		braceleft
	</note>
	<outline>
		<contour>
			<point x="338" y="684" type="curve" smooth="yes"/>
			<point x="360" y="684" type="line"/>
			<point x="360" y="780" type="line"/>
			<point x="309" y="780" type="line" smooth="yes"/>
			<point x="209" y="780"/>
			<point x="174" y="743"/>
			<point x="174" y="664" type="curve" smooth="yes"/>
			<point x="174" y="630"/>
			<point x="178" y="597"/>
			<point x="186" y="545" type="curve" smooth="yes"/>
			<point x="192" y="505"/>
			<point x="195" y="478"/>
			<point x="195" y="455" type="curve" smooth="yes"/>
			<point x="195" y="429"/>
			<point x="182" y="402"/>
			<point x="113" y="398" type="curve"/>
			<point x="113" y="302" type="line"/>
			<point x="182" y="298"/>
			<point x="195" y="271"/>
			<point x="195" y="245" type="curve" smooth="yes"/>
			<point x="195" y="222"/>
			<point x="192" y="195"/>
			<point x="186" y="155" type="curve" smooth="yes"/>
			<point x="178" y="103"/>
			<point x="174" y="70"/>
			<point x="174" y="36" type="curve" smooth="yes"/>
			<point x="174" y="-43"/>
			<point x="209" y="-80"/>
			<point x="309" y="-80" type="curve" smooth="yes"/>
			<point x="360" y="-80" type="line"/>
			<point x="360" y="16" type="line"/>
			<point x="338" y="16" type="line" smooth="yes"/>
			<point x="289" y="16"/>
			<point x="274" y="21"/>
			<point x="274" y="56" type="curve" smooth="yes"/>
			<point x="274" y="70"/>
			<point x="276" y="91"/>
			<point x="284" y="145" type="curve" smooth="yes"/>
			<point x="291" y="190"/>
			<point x="295" y="232"/>
			<point x="295" y="248" type="curve" smooth="yes"/>
			<point x="295" y="303"/>
			<point x="268" y="339"/>
			<point x="210" y="353" type="curve"/>
			<point x="268" y="365"/>
			<point x="295" y="397"/>
			<point x="295" y="452" type="curve" smooth="yes"/>
			<point x="295" y="468"/>
			<point x="291" y="510"/>
			<point x="284" y="555" type="curve" smooth="yes"/>
			<point x="276" y="609"/>
			<point x="274" y="630"/>
			<point x="274" y="644" type="curve" smooth="yes"/>
			<point x="274" y="679"/>
			<point x="289" y="684"/>
		</contour>
	</outline>
</glyph>
<glyph name="bar" format="2">
	<advance width="312"/>
	<unicode hex="007C"/>
	<note>
		bar
	</note>
	<outline>
		<contour>
			<point x="98" y="-200" type="line"/>
			<point x="214" y="-200" type="line"/>
			<point x="214" y="800" type="line"/>
			<point x="98" y="800" type="line"/>
		</contour>
	</outline>
</glyph>
<glyph name="braceright" format="2">
	<advance width="430"/>
	<unicode hex="007D"/>
	<note>
		braceright
	</note>
	<outline>
		<contour>
			<point x="317" y="302" type="curve"/>
			<point x="317" y="398" type="line"/>
			<point x="248" y="402"/>
			<point x="235" y="429"/>
			<point x="235" y="455" type="curve" smooth="yes"/>
			<point x="235" y="478"/>
			<point x="238" y="505"/>
			<point x="244" y="545" type="curve" smooth="yes"/>
			<point x="252" y="597"/>
			<point x="256" y="630"/>
			<point x="256" y="664" type="curve" smooth="yes"/>
			<point x="256" y="743"/>
			<point x="221" y="780"/>
			<point x="121" y="780" type="curve" smooth="yes"/>
			<point x="70" y="780" type="line"/>
			<point x="70" y="684" type="line"/>
			<point x="92" y="684" type="line" smooth="yes"/>
			<point x="141" y="684"/>
			<point x="156" y="679"/>
			<point x="156" y="644" type="curve" smooth="yes"/>
			<point x="156" y="630"/>
			<point x="154" y="609"/>
			<point x="146" y="555" type="curve" smooth="yes"/>
			<point x="139" y="510"/>
			<point x="135" y="468"/>
			<point x="135" y="452" type="curve" smooth="yes"/>
			<point x="135" y="397"/>
			<point x="162" y="361"/>
			<point x="220" y="347" type="curve"/>
			<point x="162" y="335"/>
			<point x="135" y="303"/>
			<point x="135" y="248" type="curve" smooth="yes"/>
			<point x="135" y="232"/>
			<point x="139" y="190"/>
			<point x="146" y="145" type="curve" smooth="yes"/>
			<point x="154" y="91"/>
			<point x="156" y="70"/>
			<point x="156" y="56" type="curve" smooth="yes"/>
			<point x="156" y="21"/>
			<point x="141" y="16"/>
			<point x="92" y="16" type="curve" smooth="yes"/>
			<point x="70" y="16" type="line"/>
			<point x="70" y="-80" type="line"/>
			<point x="121" y="-80" type="line" smooth="yes"/>
			<point x="221" y="-80"/>
			<point x="256" y="-43"/>
			<point x="256" y="36" type="curve" smooth="yes"/>
			<point x="256" y="70"/>
			<point x="252" y="103"/>
			<point x="244" y="155" type="curve" smooth="yes"/>
			<point x="238" y="195"/>
			<point x="235" y="222"/>
			<point x="235" y="245" type="curve" smooth="yes"/>
			<point x="235" y="271"/>
			<point x="248" y="298"/>
		</contour>
	</outline>
</glyph>
<glyph name="sterling" format="2">
	<advance width="662"/>
	<unicode hex="00A3"/>
	<note>
		sterling
	</note>
	<outline>
		<contour>
			<point x="600" y="0" type="line"/>
			<point x="600" y="140" type="line"/>
			<point x="268" y="140" type="line"/>
			<point x="317" y="164"/>
			<point x="344" y="206"/>
			<point x="344" y="251" type="curve" smooth="yes"/>
			<point x="344" y="265"/>
			<point x="343" y="276"/>
			<point x="341" y="289" type="curve"/>
			<point x="505" y="289" type="line"/>
			<point x="505" y="377" type="line"/>
			<point x="311" y="377" type="line"/>
			<point x="288" y="434"/>
			<point x="282" y="462"/>
			<point x="282" y="500" type="curve" smooth="yes"/>
			<point x="282" y="541"/>
			<point x="307" y="572"/>
			<point x="344" y="572" type="curve" smooth="yes"/>
			<point x="388" y="572"/>
			<point x="410" y="537"/>
			<point x="413" y="493" type="curve"/>
			<point x="593" y="493" type="line"/>
			<point x="585" y="602"/>
			<point x="513" y="704"/>
			<point x="344" y="704" type="curve" smooth="yes"/>
			<point x="195" y="704"/>
			<point x="94" y="624"/>
			<point x="94" y="488" type="curve" smooth="yes"/>
			<point x="94" y="444"/>
			<point x="101" y="415"/>
			<point x="116" y="377" type="curve"/>
			<point x="71" y="377" type="line"/>
			<point x="71" y="289" type="line"/>
			<point x="153" y="289" type="line"/>
			<point x="160" y="266"/>
			<point x="162" y="247"/>
			<point x="162" y="230" type="curve" smooth="yes"/>
			<point x="162" y="177"/>
			<point x="136" y="137"/>
			<point x="62" y="124" type="curve"/>
			<point x="62" y="0" type="line"/>
		</contour>
	</outline>
</glyph>
<glyph name="currency" format="2">
	<advance width="662"/>
	<unicode hex="00A4"/>
	<note>
		currency
	</note>
	<outline>
		<contour>
			<point x="511" y="301" type="curve" smooth="yes"/>
			<point x="511" y="336"/>
			<point x="501" y="369"/>
			<point x="484" y="396" type="curve"/>
			<point x="536" y="448" type="line"/>
			<point x="479" y="505" type="line"/>
			<point x="427" y="453" type="line"/>
			<point x="400" y="471"/>
			<point x="367" y="481"/>
			<point x="331" y="481" type="curve" smooth="yes"/>
			<point x="295" y="481"/>
			<point x="262" y="471"/>
			<point x="235" y="453" type="curve"/>
			<point x="183" y="505" type="line"/>
			<point x="126" y="448" type="line"/>
			<point x="178" y="396" type="line"/>
			<point x="161" y="369"/>
			<point x="151" y="336"/>
			<point x="151" y="301" type="curve" smooth="yes"/>
			<point x="151" y="266"/>
			<point x="161" y="233"/>
			<point x="178" y="206" type="curve"/>
			<point x="126" y="154" type="line"/>
			<point x="183" y="97" type="line"/>
			<point x="235" y="149" type="line"/>
			<point x="262" y="131"/>
			<point x="295" y="121"/>
			<point x="331" y="121" type="curve" smooth="yes"/>
			<point x="367" y="121"/>
			<point x="400" y="131"/>
			<point x="427" y="149" type="curve"/>
			<point x="479" y="97" type="line"/>
			<point x="536" y="154" type="line"/>
			<point x="484" y="206" type="line"/>
			<point x="501" y="233"/>
			<point x="511" y="266"/>
		</contour>
		<contour>
			<point x="331" y="215" type="curve" smooth="yes"/>
			<point x="285" y="215"/>
			<point x="255" y="249"/>
			<point x="255" y="301" type="curve" smooth="yes"/>
			<point x="255" y="353"/>
			<point x="285" y="387"/>
			<point x="331" y="387" type="curve" smooth="yes"/>
			<point x="377" y="387"/>
			<point x="407" y="353"/>
			<point x="407" y="301" type="curve" smooth="yes"/>
			<point x="407" y="249"/>
			<point x="377" y="215"/>
		</contour>
	</outline>
</glyph>
<glyph name="brokenbar" format="2">
	<advance width="296"/>
	<unicode hex="00A6"/>
	<note>
		brokenbar
	</note>
	<outline>
		<contour>
			<point x="98" y="350" type="line"/>
			<point x="198" y="350" type="line"/>
			<point x="198" y="690" type="line"/>
			<point x="98" y="690" type="line"/>
		</contour>
		<contour>
			<point x="98" y="-160" type="line"/>
			<point x="198" y="-160" type="line"/>
			<point x="198" y="180" type="line"/>
			<point x="98" y="180" type="line"/>
		</contour>
	</outline>
</glyph>
<glyph name="macron" format="2">
	<advance width="300"/>
	<unicode hex="00AF"/>
	<note>
		macron
	</note>
	<outline>
		<contour>
			<point x="0" y="586" type="line"/>
			<point x="300" y="586" type="line"/>
			<point x="300" y="682" type="line"/>
			<point x="0" y="682" type="line"/>
		</contour>
	</outline>
</glyph>
<glyph name="paragraph" format="2">
	<advance width="618"/>
	<unicode hex="00B6"/>
	<note>
		paragraph
	</note>
	<outline>
		<contour>
			<point x="564" y="-110" type="line"/>
			<point x="564" y="690" type="line"/>
			<point x="251" y="690" type="line" smooth="yes"/>
			<point x="233" y="690"/>
			<point x="212" y="690"/>
			<point x="195" y="689" type="curve" smooth="yes"/>
			<point x="93" y="683"/>
			<point x="38" y="600"/>
			<point x="38" y="505" type="curve" smooth="yes"/>
			<point x="38" y="410"/>
			<point x="93" y="327"/>
			<point x="195" y="321" type="curve" smooth="yes"/>
			<point x="212" y="320"/>
			<point x="233" y="320"/>
			<point x="251" y="320" type="curve"/>
			<point x="251" y="-110" type="line"/>
			<point x="351" y="-110" type="line"/>
			<point x="351" y="594" type="line"/>
			<point x="464" y="594" type="line"/>
			<point x="464" y="-110" type="line"/>
		</contour>
	</outline>
</glyph>
<glyph name="guillemotright" format="2">
	<advance width="664"/>
	<unicode hex="00BB"/>
	<note>
		guillemotright
	</note>
	<outline>
		<contour>
			<point x="173" y="82" type="line"/>
			<point x="310" y="248" type="line"/>
			<point x="173" y="414" type="line"/>
			<point x="44" y="414" type="line"/>
			<point x="181" y="248" type="line"/>
			<point x="44" y="82" type="line"/>
		</contour>
		<contour>
			<point x="413" y="82" type="line"/>
			<point x="550" y="248" type="line"/>
			<point x="413" y="414" type="line"/>
			<point x="284" y="414" type="line"/>
			<point x="421" y="248" type="line"/>
			<point x="284" y="82" type="line"/>
		</contour>
	</outline>
</glyph>
<glyph name="questiondown" format="2">
	<advance width="559"/>
	<unicode hex="00BF"/>
	<note>
		questiondown
	</note>
	<outline>
		<contour>
			<point x="293" y="-170" type="curve" smooth="yes"/>
			<point x="454" y="-170"/>
			<point x="555" y="-84"/>
			<point x="559" y="60" type="curve"/>
			<point x="379" y="60" type="line"/>
			<point x="376" y="-7"/>
			<point x="350" y="-38"/>
			<point x="306" y="-38" type="curve" smooth="yes"/>
			<point x="258" y="-38"/>
			<point x="236" y="-12"/>
			<point x="236" y="38" type="curve" smooth="yes"/>
			<point x="236" y="73"/>
			<point x="256" y="104"/>
			<point x="310" y="161" type="curve" smooth="yes"/>
			<point x="353" y="207"/>
			<point x="373" y="243"/>
			<point x="375" y="324" type="curve"/>
			<point x="229" y="324" type="line"/>
			<point x="223" y="271"/>
			<point x="204" y="247"/>
			<point x="154" y="206" type="curve" smooth="yes"/>
			<point x="82" y="148"/>
			<point x="48" y="103"/>
			<point x="48" y="23" type="curve" smooth="yes"/>
			<point x="48" y="-100"/>
			<point x="139" y="-170"/>
		</contour>
		<contour>
			<point x="226" y="546" type="line"/>
			<point x="226" y="368" type="line"/>
			<point x="379" y="368" type="line"/>
			<point x="379" y="546" type="line"/>
		</contour>
	</outline>
</glyph>
<glyph name="Agrave" format="2">
	<advance width="707"/>
	<unicode hex="00C0"/>
	<note>
		Agrave
	</note>
	<outline>
		<contour>
			<point x="173" y="860" type="line"/>
			<point x="328" y="735" type="line"/>
			<point x="424" y="735" type="line"/>
			<point x="333" y="860" type="line"/>
		</contour>
		<contour>
			<point x="253" y="179" type="line"/>
			<point x="468" y="179" type="line"/>
			<point x="526" y="0" type="line"/>
			<point x="722" y="0" type="line"/>
			<point x="473" y="690" type="line"/>
			<point x="253" y="690" type="line"/>
			<point x="4" y="0" type="line"/>
			<point x="195" y="0" type="line"/>
		</contour>
		<contour>
			<point x="297" y="319" type="line"/>
			<point x="361" y="531" type="line"/>
			<point x="425" y="319" type="line"/>
		</contour>
	</outline>
</glyph>
<glyph name="Acircumflex" format="2">
	<advance width="707"/>
	<unicode hex="00C2"/>
	<note>
		Acircumflex
	</note>
	<outline>
		<contour>
			<point x="227" y="735" type="line"/>
			<point x="330" y="735" type="line"/>
			<point x="362" y="811" type="line"/>
			<point x="396" y="735" type="line"/>
			<point x="500" y="735" type="line"/>
			<point x="438" y="860" type="line"/>
			<point x="289" y="860" type="line"/>
		</contour>
		<contour>
			<point x="253" y="179" type="line"/>
			<point x="468" y="179" type="line"/>
			<point x="526" y="0" type="line"/>
			<point x="722" y="0" type="line"/>
			<point x="473" y="690" type="line"/>
			<point x="253" y="690" type="line"/>
			<point x="4" y="0" type="line"/>
			<point x="195" y="0" type="line"/>
		</contour>
		<contour>
			<point x="297" y="319" type="line"/>
			<point x="361" y="531" type="line"/>
			<point x="425" y="319" type="line"/>
		</contour>
	</outline>
</glyph>
<glyph name="Adieresis" format="2">
	<advance width="707"/>
	<unicode hex="00C4"/>
	<note>
		Adieresis
	</note>
	<outline>
		<contour>
			<point x="253" y="179" type="line"/>
			<point x="468" y="179" type="line"/>
			<point x="526" y="0" type="line"/>
			<point x="722" y="0" type="line"/>
			<point x="473" y="690" type="line"/>
			<point x="253" y="690" type="line"/>
			<point x="4" y="0" type="line"/>
			<point x="195" y="0" type="line"/>
		</contour>
		<contour>
			<point x="297" y="319" type="line"/>
			<point x="361" y="531" type="line"/>
			<point x="425" y="319" type="line"/>
		</contour>
		<contour>
			<point x="189" y="871" type="line"/>
			<point x="189" y="724" type="line"/>
			<point x="339" y="724" type="line"/>
			<point x="339" y="871" type="line"/>
		</contour>
		<contour>
			<point x="390" y="871" type="line"/>
			<point x="390" y="724" type="line"/>
			<point x="540" y="724" type="line"/>
			<point x="540" y="871" type="line"/>
		</contour>
	</outline>
</glyph>
<glyph name="Aring" format="2">
	<advance width="707"/>
	<unicode hex="00C5"/>
	<note>
		Aring
	</note>
	<outline>
		<contour>
			<point x="363" y="722" type="curve" smooth="yes"/>
			<point x="433" y="722"/>
			<point x="482" y="765"/>
			<point x="482" y="827" type="curve" smooth="yes"/>
			<point x="482" y="889"/>
			<point x="433" y="932"/>
			<point x="363" y="932" type="curve" smooth="yes"/>
			<point x="293" y="932"/>
			<point x="244" y="889"/>
			<point x="244" y="827" type="curve" smooth="yes"/>
			<point x="244" y="765"/>
			<point x="293" y="722"/>
		</contour>
		<contour>
			<point x="363" y="866" type="curve" smooth="yes"/>
			<point x="384" y="866"/>
			<point x="399" y="850"/>
			<point x="399" y="827" type="curve" smooth="yes"/>
			<point x="399" y="804"/>
			<point x="384" y="788"/>
			<point x="363" y="788" type="curve" smooth="yes"/>
			<point x="342" y="788"/>
			<point x="327" y="804"/>
			<point x="327" y="827" type="curve" smooth="yes"/>
			<point x="327" y="850"/>
			<point x="342" y="866"/>
		</contour>
		<contour>
			<point x="253" y="179" type="line"/>
			<point x="468" y="179" type="line"/>
			<point x="526" y="0" type="line"/>
			<point x="722" y="0" type="line"/>
			<point x="473" y="690" type="line"/>
			<point x="253" y="690" type="line"/>
			<point x="4" y="0" type="line"/>
			<point x="195" y="0" type="line"/>
		</contour>
		<contour>
			<point x="297" y="319" type="line"/>
			<point x="361" y="531" type="line"/>
			<point x="425" y="319" type="line"/>
		</contour>
	</outline>
</glyph>
<glyph name="AE" format="2">
	<advance width="996"/>
	<unicode hex="00C6"/>
	<note>
		AE
	</note>
	<outline>
		<contour>
			<point x="966" y="0" type="line"/>
			<point x="966" y="140" type="line"/>
			<point x="634" y="140" type="line"/>
			<point x="618" y="276" type="line"/>
			<point x="936" y="276" type="line"/>
			<point x="936" y="416" type="line"/>
			<point x="602" y="416" type="line"/>
			<point x="585" y="560" type="line"/>
			<point x="591" y="550" type="line"/>
			<point x="956" y="550" type="line"/>
			<point x="956" y="690" type="line"/>
			<point x="317" y="690" type="line"/>
			<point x="-42" y="0" type="line"/>
			<point x="149" y="0" type="line"/>
			<point x="248" y="209" type="line"/>
			<point x="446" y="209" type="line"/>
			<point x="470" y="0" type="line"/>
		</contour>
		<contour>
			<point x="407" y="543" type="line"/>
			<point x="430" y="349" type="line"/>
			<point x="315" y="349" type="line"/>
		</contour>
	</outline>
</glyph>
<glyph name="Eacute" format="2">
	<advance width="639"/>
	<unicode hex="00C9"/>
	<note>
		Eacute
	</note>
	<outline>
		<contour>
			<point x="286" y="735" type="line"/>
			<point x="382" y="735" type="line"/>
			<point x="537" y="860" type="line"/>
			<point x="377" y="860" type="line"/>
		</contour>
		<contour>
			<point x="609" y="0" type="line"/>
			<point x="609" y="140" type="line"/>
			<point x="260" y="140" type="line"/>
			<point x="260" y="276" type="line"/>
			<point x="579" y="276" type="line"/>
			<point x="579" y="416" type="line"/>
			<point x="260" y="416" type="line"/>
			<point x="260" y="550" type="line"/>
			<point x="599" y="550" type="line"/>
			<point x="599" y="690" type="line"/>
			<point x="80" y="690" type="line"/>
			<point x="80" y="0" type="line"/>
		</contour>
	</outline>
</glyph>
<glyph name="Iacute" format="2">
	<advance width="314"/>
	<unicode hex="00CD"/>
	<note>
		Iacute
	</note>
	<outline>
		<contour>
			<point x="116" y="735" type="line"/>
			<point x="212" y="735" type="line"/>
			<point x="367" y="860" type="line"/>
			<point x="207" y="860" type="line"/>
		</contour>
		<contour>
			<point x="80" y="0" type="line"/>
			<point x="260" y="0" type="line"/>
			<point x="260" y="690" type="line"/>
			<point x="80" y="690" type="line"/>
		</contour>
	</outline>
</glyph>
<glyph name="Icircumflex" format="2">
	<advance width="314"/>
	<unicode hex="00CE"/>
	<note>
		Icircumflex
	</note>
	<outline>
		<contour>
			<point x="34" y="735" type="line"/>
			<point x="137" y="735" type="line"/>
			<point x="169" y="811" type="line"/>
			<point x="203" y="735" type="line"/>
			<point x="307" y="735" type="line"/>
			<point x="245" y="860" type="line"/>
			<point x="96" y="860" type="line"/>
		</contour>
		<contour>
			<point x="260" y="690" type="line"/>
			<point x="80" y="690" type="line"/>
			<point x="80" y="0" type="line"/>
			<point x="260" y="0" type="line"/>
		</contour>
	</outline>
</glyph>
<glyph name="Idieresis" format="2">
	<advance width="314"/>
	<unicode hex="00CF"/>
	<note>
		Idieresis
	</note>
	<outline>
		<contour>
			<point x="80" y="0" type="line"/>
			<point x="260" y="0" type="line"/>
			<point x="260" y="690" type="line"/>
			<point x="80" y="690" type="line"/>
		</contour>
		<contour>
			<point x="-2" y="868" type="line"/>
			<point x="-2" y="721" type="line"/>
			<point x="148" y="721" type="line"/>
			<point x="148" y="868" type="line"/>
		</contour>
		<contour>
			<point x="199" y="868" type="line"/>
			<point x="199" y="721" type="line"/>
			<point x="349" y="721" type="line"/>
			<point x="349" y="868" type="line"/>
		</contour>
	</outline>
</glyph>
<glyph name="Ograve" format="2">
	<advance width="788"/>
	<unicode hex="00D2"/>
	<note>
		Ograve
	</note>
	<outline>
		<contour>
			<point x="217" y="860" type="line"/>
			<point x="372" y="735" type="line"/>
			<point x="468" y="735" type="line"/>
			<point x="377" y="860" type="line"/>
		</contour>
		<contour>
			<point x="407" y="704" type="curve" smooth="yes"/>
			<point x="192" y="704"/>
			<point x="54" y="567"/>
			<point x="54" y="345" type="curve" smooth="yes"/>
			<point x="54" y="124"/>
			<point x="192" y="-14"/>
			<point x="407" y="-14" type="curve" smooth="yes"/>
			<point x="622" y="-14"/>
			<point x="760" y="124"/>
			<point x="760" y="345" type="curve" smooth="yes"/>
			<point x="760" y="567"/>
			<point x="622" y="704"/>
		</contour>
		<contour>
			<point x="407" y="118" type="curve" smooth="yes"/>
			<point x="303" y="118"/>
			<point x="238" y="199"/>
			<point x="238" y="345" type="curve" smooth="yes"/>
			<point x="238" y="492"/>
			<point x="303" y="572"/>
			<point x="407" y="572" type="curve" smooth="yes"/>
			<point x="511" y="572"/>
			<point x="576" y="492"/>
			<point x="576" y="345" type="curve" smooth="yes"/>
			<point x="576" y="199"/>
			<point x="511" y="118"/>
		</contour>
	</outline>
</glyph>
<glyph name="Oacute" format="2">
	<advance width="788"/>
	<unicode hex="00D3"/>
	<note>
		Oacute
	</note>
	<outline>
		<contour>
			<point x="353" y="735" type="line"/>
			<point x="449" y="735" type="line"/>
			<point x="604" y="860" type="line"/>
			<point x="444" y="860" type="line"/>
		</contour>
		<contour>
			<point x="407" y="704" type="curve" smooth="yes"/>
			<point x="192" y="704"/>
			<point x="54" y="567"/>
			<point x="54" y="345" type="curve" smooth="yes"/>
			<point x="54" y="124"/>
			<point x="192" y="-14"/>
			<point x="407" y="-14" type="curve" smooth="yes"/>
			<point x="622" y="-14"/>
			<point x="760" y="124"/>
			<point x="760" y="345" type="curve" smooth="yes"/>
			<point x="760" y="567"/>
			<point x="622" y="704"/>
		</contour>
		<contour>
			<point x="407" y="118" type="curve" smooth="yes"/>
			<point x="303" y="118"/>
			<point x="238" y="199"/>
			<point x="238" y="345" type="curve" smooth="yes"/>
			<point x="238" y="492"/>
			<point x="303" y="572"/>
			<point x="407" y="572" type="curve" smooth="yes"/>
			<point x="511" y="572"/>
			<point x="576" y="492"/>
			<point x="576" y="345" type="curve" smooth="yes"/>
			<point x="576" y="199"/>
			<point x="511" y="118"/>
		</contour>
	</outline>
</glyph>
<glyph name="Odieresis" format="2">
	<advance width="788"/>
	<unicode hex="00D6"/>
	<note>
		Odieresis
	</note>
	<outline>
		<contour>
			<point x="407" y="704" type="curve" smooth="yes"/>
			<point x="192" y="704"/>
			<point x="54" y="567"/>
			<point x="54" y="345" type="curve" smooth="yes"/>
			<point x="54" y="124"/>
			<point x="192" y="-14"/>
			<point x="407" y="-14" type="curve" smooth="yes"/>
			<point x="622" y="-14"/>
			<point x="760" y="124"/>
			<point x="760" y="345" type="curve" smooth="yes"/>
			<point x="760" y="567"/>
			<point x="622" y="704"/>
		</contour>
		<contour>
			<point x="407" y="118" type="curve" smooth="yes"/>
			<point x="303" y="118"/>
			<point x="238" y="199"/>
			<point x="238" y="345" type="curve" smooth="yes"/>
			<point x="238" y="492"/>
			<point x="303" y="572"/>
			<point x="407" y="572" type="curve" smooth="yes"/>
			<point x="511" y="572"/>
			<point x="576" y="492"/>
			<point x="576" y="345" type="curve" smooth="yes"/>
			<point x="576" y="199"/>
			<point x="511" y="118"/>
		</contour>
		<contour>
			<point x="233" y="871" type="line"/>
			<point x="233" y="724" type="line"/>
			<point x="383" y="724" type="line"/>
			<point x="383" y="871" type="line"/>
		</contour>
		<contour>
			<point x="434" y="871" type="line"/>
			<point x="434" y="724" type="line"/>
			<point x="584" y="724" type="line"/>
			<point x="584" y="871" type="line"/>
		</contour>
	</outline>
</glyph>
<glyph name="acircumflex" format="2">
	<advance width="587"/>
	<unicode hex="00E2"/>
	<note>
		acircumflex
	</note>
	<outline>
		<contour>
			<point x="157" y="571" type="line"/>
			<point x="260" y="571" type="line"/>
			<point x="292" y="647" type="line"/>
			<point x="326" y="571" type="line"/>
			<point x="430" y="571" type="line"/>
			<point x="368" y="696" type="line"/>
			<point x="219" y="696" type="line"/>
		</contour>
		<contour>
			<point x="355" y="78" type="line"/>
			<point x="367" y="0" type="line"/>
			<point x="543" y="0" type="line"/>
			<point x="535" y="59"/>
			<point x="533" y="95"/>
			<point x="533" y="135" type="curve" smooth="yes"/>
			<point x="533" y="285" type="line" smooth="yes"/>
			<point x="533" y="318"/>
			<point x="532" y="349"/>
			<point x="530" y="376" type="curve" smooth="yes"/>
			<point x="522" y="473"/>
			<point x="464" y="548"/>
			<point x="295" y="548" type="curve" smooth="yes"/>
			<point x="160" y="548"/>
			<point x="49" y="477"/>
			<point x="48" y="352" type="curve"/>
			<point x="218" y="353" type="line"/>
			<point x="221" y="399"/>
			<point x="245" y="426"/>
			<point x="287" y="426" type="curve" smooth="yes"/>
			<point x="326" y="426"/>
			<point x="348" y="402"/>
			<point x="351" y="375" type="curve" smooth="yes"/>
			<point x="353" y="358"/>
			<point x="353" y="347"/>
			<point x="353" y="336" type="curve" smooth="yes"/>
			<point x="353" y="328" type="line"/>
			<point x="319" y="328" type="line" smooth="yes"/>
			<point x="138" y="328"/>
			<point x="30" y="258"/>
			<point x="30" y="144" type="curve" smooth="yes"/>
			<point x="30" y="41"/>
			<point x="113" y="-14"/>
			<point x="201" y="-14" type="curve" smooth="yes"/>
			<point x="250" y="-14"/>
			<point x="295" y="-2"/>
			<point x="333" y="22" type="curve"/>
		</contour>
		<contour>
			<point x="275" y="108" type="curve" smooth="yes"/>
			<point x="239" y="108"/>
			<point x="214" y="126"/>
			<point x="214" y="158" type="curve" smooth="yes"/>
			<point x="214" y="211"/>
			<point x="272" y="232"/>
			<point x="353" y="226" type="curve"/>
			<point x="353" y="191" type="line" smooth="yes"/>
			<point x="353" y="135"/>
			<point x="311" y="108"/>
		</contour>
	</outline>
</glyph>
<glyph name="ae" format="2">
	<advance width="974"/>
	<unicode hex="00E6"/>
	<note>
		ae
	</note>
	<outline>
		<contour>
			<point x="950" y="274" type="curve" smooth="yes"/>
			<point x="950" y="412"/>
			<point x="860" y="548"/>
			<point x="692" y="548" type="curve" smooth="yes"/>
			<point x="605" y="548"/>
			<point x="530" y="517"/>
			<point x="486" y="455" type="curve"/>
			<point x="456" y="514"/>
			<point x="392" y="548"/>
			<point x="295" y="548" type="curve" smooth="yes"/>
			<point x="160" y="548"/>
			<point x="49" y="477"/>
			<point x="48" y="352" type="curve"/>
			<point x="218" y="352" type="line"/>
			<point x="221" y="399"/>
			<point x="255" y="426"/>
			<point x="297" y="426" type="curve" smooth="yes"/>
			<point x="351" y="426"/>
			<point x="377" y="397"/>
			<point x="377" y="338" type="curve" smooth="yes"/>
			<point x="377" y="332" type="line"/>
			<point x="319" y="332" type="line" smooth="yes"/>
			<point x="148" y="332"/>
			<point x="30" y="271"/>
			<point x="30" y="149" type="curve" smooth="yes"/>
			<point x="30" y="41"/>
			<point x="113" y="-14"/>
			<point x="241" y="-14" type="curve" smooth="yes"/>
			<point x="290" y="-14"/>
			<point x="345" y="-2"/>
			<point x="383" y="22" type="curve"/>
			<point x="449" y="100" type="line"/>
			<point x="496" y="23"/>
			<point x="574" y="-14"/>
			<point x="672" y="-14" type="curve" smooth="yes"/>
			<point x="809" y="-14"/>
			<point x="909" y="54"/>
			<point x="940" y="175" type="curve"/>
			<point x="763" y="175" type="line"/>
			<point x="756" y="134"/>
			<point x="725" y="108"/>
			<point x="674" y="108" type="curve" smooth="yes"/>
			<point x="623" y="108"/>
			<point x="584" y="133"/>
			<point x="575" y="222" type="curve"/>
			<point x="947" y="222" type="line"/>
			<point x="949" y="240"/>
			<point x="950" y="258"/>
		</contour>
		<contour>
			<point x="762" y="332" type="curve"/>
			<point x="581" y="332" type="line"/>
			<point x="594" y="397"/>
			<point x="627" y="426"/>
			<point x="673" y="426" type="curve" smooth="yes"/>
			<point x="722" y="426"/>
			<point x="753" y="394"/>
		</contour>
		<contour>
			<point x="378" y="222" type="curve"/>
			<point x="378" y="214" type="line" smooth="yes"/>
			<point x="378" y="146"/>
			<point x="341" y="108"/>
			<point x="286" y="108" type="curve" smooth="yes"/>
			<point x="239" y="108"/>
			<point x="214" y="126"/>
			<point x="214" y="163" type="curve" smooth="yes"/>
			<point x="214" y="210"/>
			<point x="264" y="228"/>
		</contour>
	</outline>
</glyph>
<glyph name="edieresis" format="2">
	<advance width="601"/>
	<unicode hex="00EB"/>
	<note>
		edieresis
	</note>
	<outline>
		<contour>
			<point x="577" y="274" type="curve" smooth="yes"/>
			<point x="577" y="412"/>
			<point x="487" y="548"/>
			<point x="309" y="548" type="curve" smooth="yes"/>
			<point x="131" y="548"/>
			<point x="24" y="421"/>
			<point x="24" y="265" type="curve" smooth="yes"/>
			<point x="24" y="77"/>
			<point x="146" y="-14"/>
			<point x="299" y="-14" type="curve" smooth="yes"/>
			<point x="436" y="-14"/>
			<point x="536" y="54"/>
			<point x="567" y="175" type="curve"/>
			<point x="390" y="175" type="line"/>
			<point x="383" y="134"/>
			<point x="352" y="108"/>
			<point x="301" y="108" type="curve" smooth="yes"/>
			<point x="250" y="108"/>
			<point x="211" y="133"/>
			<point x="202" y="222" type="curve"/>
			<point x="574" y="222" type="line"/>
			<point x="576" y="240"/>
			<point x="577" y="258"/>
		</contour>
		<contour>
			<point x="300" y="426" type="curve" smooth="yes"/>
			<point x="348" y="426"/>
			<point x="379" y="395"/>
			<point x="389" y="332" type="curve"/>
			<point x="208" y="332" type="line"/>
			<point x="220" y="398"/>
			<point x="253" y="426"/>
		</contour>
		<contour>
			<point x="128" y="714" type="line"/>
			<point x="128" y="567" type="line"/>
			<point x="278" y="567" type="line"/>
			<point x="278" y="714" type="line"/>
		</contour>
		<contour>
			<point x="329" y="714" type="line"/>
			<point x="329" y="567" type="line"/>
			<point x="479" y="567" type="line"/>
			<point x="479" y="714" type="line"/>
		</contour>
	</outline>
</glyph>
<glyph name="icircumflex" format="2">
	<advance width="288"/>
	<unicode hex="00EE"/>
	<note>
		icircumflex
	</note>
	<outline>
		<contour>
			<point x="8" y="571" type="line"/>
			<point x="111" y="571" type="line"/>
			<point x="143" y="647" type="line"/>
			<point x="177" y="571" type="line"/>
			<point x="281" y="571" type="line"/>
			<point x="219" y="696" type="line"/>
			<point x="70" y="696" type="line"/>
		</contour>
		<contour>
			<point x="234" y="534" type="line"/>
			<point x="54" y="534" type="line"/>
			<point x="54" y="0" type="line"/>
			<point x="234" y="0" type="line"/>
		</contour>
	</outline>
</glyph>
<glyph name="odieresis" format="2">
	<advance width="622"/>
	<unicode hex="00F6"/>
	<note>
		odieresis
	</note>
	<outline>
		<contour>
			<point x="311" y="548" type="curve" smooth="yes"/>
			<point x="136" y="548"/>
			<point x="24" y="439"/>
			<point x="24" y="267" type="curve" smooth="yes"/>
			<point x="24" y="96"/>
			<point x="136" y="-14"/>
			<point x="311" y="-14" type="curve" smooth="yes"/>
			<point x="486" y="-14"/>
			<point x="598" y="96"/>
			<point x="598" y="267" type="curve" smooth="yes"/>
			<point x="598" y="439"/>
			<point x="486" y="548"/>
		</contour>
		<contour>
			<point x="311" y="108" type="curve" smooth="yes"/>
			<point x="247" y="108"/>
			<point x="208" y="161"/>
			<point x="208" y="267" type="curve" smooth="yes"/>
			<point x="208" y="374"/>
			<point x="247" y="426"/>
			<point x="311" y="426" type="curve" smooth="yes"/>
			<point x="375" y="426"/>
			<point x="414" y="374"/>
			<point x="414" y="267" type="curve" smooth="yes"/>
			<point x="414" y="161"/>
			<point x="375" y="108"/>
		</contour>
		<contour>
			<point x="135" y="717" type="line"/>
			<point x="135" y="570" type="line"/>
			<point x="285" y="570" type="line"/>
			<point x="285" y="717" type="line"/>
		</contour>
		<contour>
			<point x="336" y="717" type="line"/>
			<point x="336" y="570" type="line"/>
			<point x="486" y="570" type="line"/>
			<point x="486" y="717" type="line"/>
		</contour>
	</outline>
</glyph>
<glyph name="divide" format="2">
	<advance width="662"/>
	<unicode hex="00F7"/>
	<note>
		divide
	</note>
	<outline>
		<contour>
			<point x="331" y="585" type="curve" smooth="yes"/>
			<point x="286" y="585"/>
			<point x="251" y="550"/>
			<point x="251" y="505" type="curve" smooth="yes"/>
			<point x="251" y="460"/>
			<point x="286" y="425"/>
			<point x="331" y="425" type="curve" smooth="yes"/>
			<point x="376" y="425"/>
			<point x="411" y="460"/>
			<point x="411" y="505" type="curve" smooth="yes"/>
			<point x="411" y="550"/>
			<point x="376" y="585"/>
		</contour>
		<contour>
			<point x="86" y="269" type="line"/>
			<point x="576" y="269" type="line"/>
			<point x="576" y="365" type="line"/>
			<point x="86" y="365" type="line"/>
		</contour>
		<contour>
			<point x="331" y="209" type="curve" smooth="yes"/>
			<point x="286" y="209"/>
			<point x="251" y="174"/>
			<point x="251" y="129" type="curve" smooth="yes"/>
			<point x="251" y="84"/>
			<point x="286" y="49"/>
			<point x="331" y="49" type="curve" smooth="yes"/>
			<point x="376" y="49"/>
			<point x="411" y="84"/>
			<point x="411" y="129" type="curve" smooth="yes"/>
			<point x="411" y="174"/>
			<point x="376" y="209"/>
		</contour>
	</outline>
</glyph>
<glyph name="ugrave" format="2">
	<advance width="640"/>
	<unicode hex="00F9"/>
	<note>
		ugrave
	</note>
	<outline>
		<contour>
			<point x="133" y="696" type="line"/>
			<point x="288" y="571" type="line"/>
			<point x="384" y="571" type="line"/>
			<point x="293" y="696" type="line"/>
		</contour>
		<contour>
			<point x="586" y="0" type="line"/>
			<point x="586" y="534" type="line"/>
			<point x="406" y="534" type="line"/>
			<point x="406" y="232" type="line" smooth="yes"/>
			<point x="406" y="161"/>
			<point x="372" y="108"/>
			<point x="315" y="108" type="curve" smooth="yes"/>
			<point x="258" y="108"/>
			<point x="234" y="138"/>
			<point x="228" y="189" type="curve" smooth="yes"/>
			<point x="225" y="216"/>
			<point x="224" y="245"/>
			<point x="224" y="262" type="curve" smooth="yes"/>
			<point x="224" y="534" type="line"/>
			<point x="44" y="534" type="line"/>
			<point x="44" y="222" type="line" smooth="yes"/>
			<point x="44" y="179"/>
			<point x="45" y="148"/>
			<point x="49" y="121" type="curve" smooth="yes"/>
			<point x="61" y="48"/>
			<point x="128" y="-14"/>
			<point x="238" y="-14" type="curve" smooth="yes"/>
			<point x="287" y="-14"/>
			<point x="325" y="-3"/>
			<point x="358" y="17" type="curve"/>
			<point x="406" y="90" type="line"/>
			<point x="406" y="0" type="line"/>
		</contour>
	</outline>
</glyph>
<glyph name="thorn" format="2">
	<advance width="669"/>
	<unicode hex="00FE"/>
	<note>
		thorn
	</note>
	<outline>
		<contour>
			<point x="410" y="548" type="curve" smooth="yes"/>
			<point x="356" y="548"/>
			<point x="304" y="537"/>
			<point x="274" y="515" type="curve"/>
			<point x="234" y="456" type="line"/>
			<point x="234" y="735" type="line"/>
			<point x="54" y="735" type="line"/>
			<point x="54" y="-196" type="line"/>
			<point x="234" y="-196" type="line"/>
			<point x="234" y="69" type="line"/>
			<point x="269" y="12" type="line"/>
			<point x="296" y="-4"/>
			<point x="348" y="-14"/>
			<point x="392" y="-14" type="curve" smooth="yes"/>
			<point x="529" y="-14"/>
			<point x="645" y="89"/>
			<point x="645" y="279" type="curve" smooth="yes"/>
			<point x="645" y="437"/>
			<point x="555" y="548"/>
		</contour>
		<contour>
			<point x="343" y="108" type="curve" smooth="yes"/>
			<point x="289" y="108"/>
			<point x="234" y="144"/>
			<point x="234" y="251" type="curve" smooth="yes"/>
			<point x="234" y="274" type="line" smooth="yes"/>
			<point x="234" y="386"/>
			<point x="282" y="426"/>
			<point x="348" y="426" type="curve" smooth="yes"/>
			<point x="411" y="426"/>
			<point x="461" y="370"/>
			<point x="461" y="270" type="curve" smooth="yes"/>
			<point x="461" y="161"/>
			<point x="413" y="108"/>
		</contour>
	</outline>
</glyph>
<glyph name="ydieresis" format="2">
	<advance width="608"/>
	<unicode hex="00FF"/>
	<note>
		ydieresis
	</note>
	<outline>
		<contour>
			<point x="405" y="0" type="curve" smooth="yes"/>
			<point x="616" y="534" type="line"/>
			<point x="419" y="534" type="line"/>
			<point x="310" y="143" type="line"/>
			<point x="200" y="534" type="line"/>
			<point x="0" y="534" type="line"/>
			<point x="221" y="-24" type="line"/>
			<point x="214" y="-39" type="line" smooth="yes"/>
			<point x="196" y="-77"/>
			<point x="168" y="-91"/>
			<point x="126" y="-91" type="curve" smooth="yes"/>
			<point x="108" y="-91"/>
			<point x="92" y="-91"/>
			<point x="77" y="-89" type="curve"/>
			<point x="77" y="-205" type="line"/>
			<point x="103" y="-209"/>
			<point x="124" y="-210"/>
			<point x="153" y="-210" type="curve" smooth="yes"/>
			<point x="280" y="-210"/>
			<point x="338" y="-169"/>
		</contour>
		<contour>
			<point x="126" y="717" type="line"/>
			<point x="126" y="570" type="line"/>
			<point x="276" y="570" type="line"/>
			<point x="276" y="717" type="line"/>
		</contour>
		<contour>
			<point x="327" y="717" type="line"/>
			<point x="327" y="570" type="line"/>
			<point x="477" y="570" type="line"/>
			<point x="477" y="717" type="line"/>
		</contour>
	</outline>
</glyph>
<glyph name="Abreve" format="2">
	<advance width="707"/>
	<unicode hex="0102"/>
	<note>
		Abreve
	</note>
	<outline>
		<contour>
			<point x="363" y="728" type="curve" smooth="yes"/>
			<point x="434" y="728"/>
			<point x="498" y="761"/>
			<point x="498" y="860" type="curve"/>
			<point x="408" y="860" type="line"/>
			<point x="406" y="829"/>
			<point x="392" y="813"/>
			<point x="363" y="813" type="curve" smooth="yes"/>
			<point x="334" y="813"/>
			<point x="320" y="829"/>
			<point x="318" y="860" type="curve"/>
			<point x="228" y="860" type="line"/>
			<point x="228" y="761"/>
			<point x="291" y="728"/>
		</contour>
		<contour>
			<point x="253" y="179" type="line"/>
			<point x="468" y="179" type="line"/>
			<point x="526" y="0" type="line"/>
			<point x="722" y="0" type="line"/>
			<point x="473" y="690" type="line"/>
			<point x="253" y="690" type="line"/>
			<point x="4" y="0" type="line"/>
			<point x="195" y="0" type="line"/>
		</contour>
		<contour>
			<point x="297" y="319" type="line"/>
			<point x="361" y="531" type="line"/>
			<point x="425" y="319" type="line"/>
		</contour>
	</outline>
</glyph>
<glyph name="abreve" format="2">
	<advance width="587"/>
	<unicode hex="0103"/>
	<note>
		abreve
	</note>
	<outline>
		<contour>
			<point x="293" y="568" type="curve" smooth="yes"/>
			<point x="364" y="568"/>
			<point x="428" y="597"/>
			<point x="428" y="696" type="curve"/>
			<point x="338" y="696" type="line"/>
			<point x="336" y="669"/>
			<point x="322" y="653"/>
			<point x="293" y="653" type="curve" smooth="yes"/>
			<point x="264" y="653"/>
			<point x="250" y="669"/>
			<point x="248" y="696" type="curve"/>
			<point x="158" y="696" type="line"/>
			<point x="158" y="597"/>
			<point x="221" y="568"/>
		</contour>
		<contour>
			<point x="355" y="78" type="line"/>
			<point x="367" y="0" type="line"/>
			<point x="543" y="0" type="line"/>
			<point x="535" y="59"/>
			<point x="533" y="95"/>
			<point x="533" y="135" type="curve" smooth="yes"/>
			<point x="533" y="285" type="line" smooth="yes"/>
			<point x="533" y="318"/>
			<point x="532" y="349"/>
			<point x="530" y="376" type="curve" smooth="yes"/>
			<point x="522" y="473"/>
			<point x="464" y="548"/>
			<point x="295" y="548" type="curve" smooth="yes"/>
			<point x="160" y="548"/>
			<point x="49" y="477"/>
			<point x="48" y="352" type="curve"/>
			<point x="218" y="353" type="line"/>
			<point x="221" y="399"/>
			<point x="245" y="426"/>
			<point x="287" y="426" type="curve" smooth="yes"/>
			<point x="326" y="426"/>
			<point x="348" y="402"/>
			<point x="351" y="375" type="curve" smooth="yes"/>
			<point x="353" y="358"/>
			<point x="353" y="347"/>
			<point x="353" y="336" type="curve" smooth="yes"/>
			<point x="353" y="328" type="line"/>
			<point x="319" y="328" type="line" smooth="yes"/>
			<point x="138" y="328"/>
			<point x="30" y="258"/>
			<point x="30" y="144" type="curve" smooth="yes"/>
			<point x="30" y="41"/>
			<point x="113" y="-14"/>
			<point x="201" y="-14" type="curve" smooth="yes"/>
			<point x="250" y="-14"/>
			<point x="295" y="-2"/>
			<point x="333" y="22" type="curve"/>
		</contour>
		<contour>
			<point x="275" y="108" type="curve" smooth="yes"/>
			<point x="239" y="108"/>
			<point x="214" y="126"/>
			<point x="214" y="158" type="curve" smooth="yes"/>
			<point x="214" y="211"/>
			<point x="272" y="232"/>
			<point x="353" y="226" type="curve"/>
			<point x="353" y="191" type="line" smooth="yes"/>
			<point x="353" y="135"/>
			<point x="311" y="108"/>
		</contour>
	</outline>
</glyph>
<glyph name="Aogonek" format="2">
	<advance width="707"/>
	<unicode hex="0104"/>
	<note>
		Aogonek
	</note>
	<outline>
		<contour>
			<point x="604" y="-70" type="curve" smooth="yes"/>
			<point x="604" y="-32"/>
			<point x="624" y="0"/>
			<point x="649" y="0" type="curve" smooth="yes"/>
			<point x="722" y="0" type="line"/>
			<point x="473" y="690" type="line"/>
			<point x="253" y="690" type="line"/>
			<point x="4" y="0" type="line"/>
			<point x="195" y="0" type="line"/>
			<point x="253" y="179" type="line"/>
			<point x="468" y="179" type="line"/>
			<point x="525" y="4" type="line"/>
			<point x="480" y="-21"/>
			<point x="440" y="-78"/>
			<point x="440" y="-137" type="curve" smooth="yes"/>
			<point x="440" y="-201"/>
			<point x="488" y="-223"/>
			<point x="554" y="-223" type="curve" smooth="yes"/>
			<point x="618" y="-223"/>
			<point x="660" y="-202"/>
			<point x="689" y="-173" type="curve"/>
			<point x="689" y="-100" type="line"/>
			<point x="673" y="-115"/>
			<point x="659" y="-121"/>
			<point x="645" y="-121" type="curve" smooth="yes"/>
			<point x="625" y="-121"/>
			<point x="604" y="-108"/>
		</contour>
		<contour>
			<point x="297" y="319" type="line"/>
			<point x="361" y="531" type="line"/>
			<point x="425" y="319" type="line"/>
		</contour>
	</outline>
</glyph>
<glyph name="aogonek" format="2">
	<advance width="587"/>
	<unicode hex="0105"/>
	<note>
		aogonek
	</note>
	<outline>
		<contour>
			<point x="445" y="-70" type="curve" smooth="yes"/>
			<point x="445" y="-32"/>
			<point x="465" y="0"/>
			<point x="490" y="0" type="curve" smooth="yes"/>
			<point x="543" y="0" type="line"/>
			<point x="535" y="59"/>
			<point x="533" y="95"/>
			<point x="533" y="135" type="curve" smooth="yes"/>
			<point x="533" y="285" type="line" smooth="yes"/>
			<point x="533" y="318"/>
			<point x="532" y="349"/>
			<point x="530" y="376" type="curve" smooth="yes"/>
			<point x="522" y="473"/>
			<point x="464" y="548"/>
			<point x="295" y="548" type="curve" smooth="yes"/>
			<point x="160" y="548"/>
			<point x="49" y="477"/>
			<point x="48" y="352" type="curve"/>
			<point x="218" y="353" type="line"/>
			<point x="221" y="399"/>
			<point x="245" y="426"/>
			<point x="287" y="426" type="curve" smooth="yes"/>
			<point x="326" y="426"/>
			<point x="348" y="402"/>
			<point x="351" y="375" type="curve" smooth="yes"/>
			<point x="353" y="358"/>
			<point x="353" y="347"/>
			<point x="353" y="336" type="curve" smooth="yes"/>
			<point x="353" y="328" type="line"/>
			<point x="319" y="328" type="line" smooth="yes"/>
			<point x="138" y="328"/>
			<point x="30" y="258"/>
			<point x="30" y="144" type="curve" smooth="yes"/>
			<point x="30" y="41"/>
			<point x="113" y="-14"/>
			<point x="201" y="-14" type="curve" smooth="yes"/>
			<point x="250" y="-14"/>
			<point x="295" y="-2"/>
			<point x="333" y="22" type="curve"/>
			<point x="355" y="78" type="line"/>
			<point x="366" y="5" type="line"/>
			<point x="322" y="-21"/>
			<point x="281" y="-77"/>
			<point x="281" y="-137" type="curve" smooth="yes"/>
			<point x="281" y="-201"/>
			<point x="329" y="-223"/>
			<point x="395" y="-223" type="curve" smooth="yes"/>
			<point x="459" y="-223"/>
			<point x="501" y="-202"/>
			<point x="530" y="-173" type="curve"/>
			<point x="530" y="-100" type="line"/>
			<point x="514" y="-115"/>
			<point x="500" y="-121"/>
			<point x="486" y="-121" type="curve" smooth="yes"/>
			<point x="466" y="-121"/>
			<point x="445" y="-108"/>
		</contour>
		<contour>
			<point x="275" y="108" type="curve" smooth="yes"/>
			<point x="239" y="108"/>
			<point x="214" y="126"/>
			<point x="214" y="158" type="curve" smooth="yes"/>
			<point x="214" y="211"/>
			<point x="272" y="232"/>
			<point x="353" y="226" type="curve"/>
			<point x="353" y="191" type="line" smooth="yes"/>
			<point x="353" y="135"/>
			<point x="311" y="108"/>
		</contour>
	</outline>
</glyph>
<glyph name="cdotaccent" format="2">
	<advance width="587"/>
	<unicode hex="010B"/>
	<note>
		cdotaccent
	</note>
	<outline>
		<contour>
			<point x="293" y="751" type="curve" smooth="yes"/>
			<point x="237" y="751"/>
			<point x="200" y="717"/>
			<point x="200" y="663" type="curve" smooth="yes"/>
			<point x="200" y="609"/>
			<point x="237" y="575"/>
			<point x="293" y="575" type="curve" smooth="yes"/>
			<point x="349" y="575"/>
			<point x="386" y="609"/>
			<point x="386" y="663" type="curve" smooth="yes"/>
			<point x="386" y="717"/>
			<point x="349" y="751"/>
		</contour>
		<contour>
			<point x="305" y="548" type="curve" smooth="yes"/>
			<point x="148" y="548"/>
			<point x="24" y="445"/>
			<point x="24" y="261" type="curve" smooth="yes"/>
			<point x="24" y="85"/>
			<point x="140" y="-14"/>
			<point x="293" y="-14" type="curve" smooth="yes"/>
			<point x="438" y="-14"/>
			<point x="545" y="58"/>
			<point x="565" y="196" type="curve"/>
			<point x="388" y="196" type="line"/>
			<point x="378" y="138"/>
			<point x="344" y="108"/>
			<point x="303" y="108" type="curve" smooth="yes"/>
			<point x="242" y="108"/>
			<point x="208" y="158"/>
			<point x="208" y="272" type="curve" smooth="yes"/>
			<point x="208" y="375"/>
			<point x="241" y="426"/>
			<point x="301" y="426" type="curve" smooth="yes"/>
			<point x="346" y="426"/>
			<point x="381" y="400"/>
			<point x="389" y="330" type="curve"/>
			<point x="563" y="330" type="line"/>
			<point x="558" y="450"/>
			<point x="462" y="548"/>
		</contour>
	</outline>
</glyph>
<glyph name="Edotaccent" format="2">
	<advance width="639"/>
	<unicode hex="0116"/>
	<note>
		Edotaccent
	</note>
	<outline>
		<contour>
			<point x="340" y="725" type="curve" smooth="yes"/>
			<point x="396" y="725"/>
			<point x="433" y="759"/>
			<point x="433" y="813" type="curve" smooth="yes"/>
			<point x="433" y="867"/>
			<point x="396" y="901"/>
			<point x="340" y="901" type="curve" smooth="yes"/>
			<point x="284" y="901"/>
			<point x="247" y="867"/>
			<point x="247" y="813" type="curve" smooth="yes"/>
			<point x="247" y="759"/>
			<point x="284" y="725"/>
		</contour>
		<contour>
			<point x="609" y="0" type="line"/>
			<point x="609" y="140" type="line"/>
			<point x="260" y="140" type="line"/>
			<point x="260" y="276" type="line"/>
			<point x="579" y="276" type="line"/>
			<point x="579" y="416" type="line"/>
			<point x="260" y="416" type="line"/>
			<point x="260" y="550" type="line"/>
			<point x="599" y="550" type="line"/>
			<point x="599" y="690" type="line"/>
			<point x="80" y="690" type="line"/>
			<point x="80" y="0" type="line"/>
		</contour>
	</outline>
</glyph>
<glyph name="eogonek" format="2">
	<advance width="601"/>
	<unicode hex="0119"/>
	<note>
		eogonek
	</note>
	<outline>
		<contour>
			<point x="577" y="274" type="curve" smooth="yes"/>
			<point x="577" y="412"/>
			<point x="487" y="548"/>
			<point x="309" y="548" type="curve" smooth="yes"/>
			<point x="131" y="548"/>
			<point x="24" y="421"/>
			<point x="24" y="265" type="curve" smooth="yes"/>
			<point x="24" y="96"/>
			<point x="123" y="5"/>
			<point x="254" y="-11" type="curve"/>
			<point x="219" y="-40"/>
			<point x="191" y="-88"/>
			<point x="191" y="-137" type="curve" smooth="yes"/>
			<point x="191" y="-201"/>
			<point x="239" y="-223"/>
			<point x="305" y="-223" type="curve" smooth="yes"/>
			<point x="369" y="-223"/>
			<point x="411" y="-202"/>
			<point x="440" y="-173" type="curve"/>
			<point x="440" y="-100" type="line"/>
			<point x="424" y="-115"/>
			<point x="410" y="-121"/>
			<point x="396" y="-121" type="curve" smooth="yes"/>
			<point x="376" y="-121"/>
			<point x="355" y="-108"/>
			<point x="355" y="-70" type="curve" smooth="yes"/>
			<point x="355" y="-40"/>
			<point x="368" y="-14"/>
			<point x="385" y="-4" type="curve"/>
			<point x="390" y="-3"/>
			<point x="395" y="-1"/>
			<point x="399" y="0" type="curve" smooth="yes"/>
			<point x="484" y="26"/>
			<point x="544" y="86"/>
			<point x="567" y="175" type="curve"/>
			<point x="390" y="175" type="line"/>
			<point x="383" y="134"/>
			<point x="352" y="108"/>
			<point x="301" y="108" type="curve" smooth="yes"/>
			<point x="250" y="108"/>
			<point x="211" y="133"/>
			<point x="202" y="222" type="curve"/>
			<point x="574" y="222" type="line"/>
			<point x="576" y="240"/>
			<point x="577" y="258"/>
		</contour>
		<contour>
			<point x="300" y="426" type="curve" smooth="yes"/>
			<point x="348" y="426"/>
			<point x="379" y="395"/>
			<point x="389" y="332" type="curve"/>
			<point x="208" y="332" type="line"/>
			<point x="220" y="398"/>
			<point x="253" y="426"/>
		</contour>
	</outline>
</glyph>
<glyph name="ecaron" format="2">
	<advance width="601"/>
	<unicode hex="011B"/>
	<note>
		ecaron
	</note>
	<outline>
		<contour>
			<point x="166" y="696" type="line"/>
			<point x="228" y="571" type="line"/>
			<point x="377" y="571" type="line"/>
			<point x="439" y="696" type="line"/>
			<point x="336" y="696" type="line"/>
			<point x="304" y="620" type="line"/>
			<point x="270" y="696" type="line"/>
		</contour>
		<contour>
			<point x="577" y="274" type="curve" smooth="yes"/>
			<point x="577" y="412"/>
			<point x="487" y="548"/>
			<point x="309" y="548" type="curve" smooth="yes"/>
			<point x="131" y="548"/>
			<point x="24" y="421"/>
			<point x="24" y="265" type="curve" smooth="yes"/>
			<point x="24" y="77"/>
			<point x="146" y="-14"/>
			<point x="299" y="-14" type="curve" smooth="yes"/>
			<point x="436" y="-14"/>
			<point x="536" y="54"/>
			<point x="567" y="175" type="curve"/>
			<point x="390" y="175" type="line"/>
			<point x="383" y="134"/>
			<point x="352" y="108"/>
			<point x="301" y="108" type="curve" smooth="yes"/>
			<point x="250" y="108"/>
			<point x="211" y="133"/>
			<point x="202" y="222" type="curve"/>
			<point x="574" y="222" type="line"/>
			<point x="576" y="240"/>
			<point x="577" y="258"/>
		</contour>
		<contour>
			<point x="300" y="426" type="curve" smooth="yes"/>
			<point x="348" y="426"/>
			<point x="379" y="395"/>
			<point x="389" y="332" type="curve"/>
			<point x="208" y="332" type="line"/>
			<point x="220" y="398"/>
			<point x="253" y="426"/>
		</contour>
	</outline>
</glyph>
<glyph name="Gbreve" format="2">
	<advance width="759"/>
	<unicode hex="011E"/>
	<note>
		Gbreve
	</note>
	<outline>
		<contour>
			<point x="388" y="728" type="curve" smooth="yes"/>
			<point x="459" y="728"/>
			<point x="523" y="761"/>
			<point x="523" y="860" type="curve"/>
			<point x="433" y="860" type="line"/>
			<point x="431" y="829"/>
			<point x="417" y="813"/>
			<point x="388" y="813" type="curve" smooth="yes"/>
			<point x="359" y="813"/>
			<point x="345" y="829"/>
			<point x="343" y="860" type="curve"/>
			<point x="253" y="860" type="line"/>
			<point x="253" y="761"/>
			<point x="316" y="728"/>
		</contour>
		<contour>
			<point x="713" y="368" type="line"/>
			<point x="409" y="368" type="line"/>
			<point x="409" y="228" type="line"/>
			<point x="543" y="228" type="line"/>
			<point x="518" y="152"/>
			<point x="472" y="118"/>
			<point x="402" y="118" type="curve" smooth="yes"/>
			<point x="317" y="118"/>
			<point x="242" y="177"/>
			<point x="242" y="351" type="curve" smooth="yes"/>
			<point x="242" y="500"/>
			<point x="315" y="572"/>
			<point x="403" y="572" type="curve" smooth="yes"/>
			<point x="476" y="572"/>
			<point x="521" y="537"/>
			<point x="536" y="463" type="curve" smooth="yes"/>
			<point x="538" y="453" type="line"/>
			<point x="718" y="453" type="line"/>
			<point x="717" y="463" type="line" smooth="yes"/>
			<point x="703" y="599"/>
			<point x="602" y="704"/>
			<point x="405" y="704" type="curve" smooth="yes"/>
			<point x="216" y="704"/>
			<point x="54" y="580"/>
			<point x="54" y="340" type="curve" smooth="yes"/>
			<point x="54" y="108"/>
			<point x="183" y="-14"/>
			<point x="367" y="-14" type="curve" smooth="yes"/>
			<point x="440" y="-14"/>
			<point x="487" y="-3"/>
			<point x="526" y="30" type="curve"/>
			<point x="556" y="106" type="line"/>
			<point x="573" y="0" type="line"/>
			<point x="713" y="0" type="line"/>
		</contour>
	</outline>
</glyph>
<glyph name="Gdotaccent" format="2">
	<advance width="759"/>
	<unicode hex="0120"/>
	<note>
		Gdotaccent
	</note>
	<outline>
		<contour>
			<point x="388" y="725" type="curve" smooth="yes"/>
			<point x="444" y="725"/>
			<point x="481" y="759"/>
			<point x="481" y="813" type="curve" smooth="yes"/>
			<point x="481" y="867"/>
			<point x="444" y="901"/>
			<point x="388" y="901" type="curve" smooth="yes"/>
			<point x="332" y="901"/>
			<point x="295" y="867"/>
			<point x="295" y="813" type="curve" smooth="yes"/>
			<point x="295" y="759"/>
			<point x="332" y="725"/>
		</contour>
		<contour>
			<point x="713" y="368" type="line"/>
			<point x="409" y="368" type="line"/>
			<point x="409" y="228" type="line"/>
			<point x="543" y="228" type="line"/>
			<point x="518" y="152"/>
			<point x="472" y="118"/>
			<point x="402" y="118" type="curve" smooth="yes"/>
			<point x="317" y="118"/>
			<point x="242" y="177"/>
			<point x="242" y="351" type="curve" smooth="yes"/>
			<point x="242" y="500"/>
			<point x="315" y="572"/>
			<point x="403" y="572" type="curve" smooth="yes"/>
			<point x="476" y="572"/>
			<point x="521" y="537"/>
			<point x="536" y="463" type="curve" smooth="yes"/>
			<point x="538" y="453" type="line"/>
			<point x="718" y="453" type="line"/>
			<point x="717" y="463" type="line" smooth="yes"/>
			<point x="703" y="599"/>
			<point x="602" y="704"/>
			<point x="405" y="704" type="curve" smooth="yes"/>
			<point x="216" y="704"/>
			<point x="54" y="580"/>
			<point x="54" y="340" type="curve" smooth="yes"/>
			<point x="54" y="108"/>
			<point x="183" y="-14"/>
			<point x="367" y="-14" type="curve" smooth="yes"/>
			<point x="440" y="-14"/>
			<point x="487" y="-3"/>
			<point x="526" y="30" type="curve"/>
			<point x="556" y="106" type="line"/>
			<point x="573" y="0" type="line"/>
			<point x="713" y="0" type="line"/>
		</contour>
	</outline>
</glyph>
<glyph name="uni0123" format="2">
	<advance width="661"/>
	<unicode hex="0123"/>
	<note>
		gcommaaccent
	</note>
	<outline>
		<contour>
			<point x="256" y="567" type="line"/>
			<point x="370" y="567" type="line"/>
			<point x="454" y="746" type="line"/>
			<point x="357" y="746" type="line"/>
			<point x="256" y="577" type="line"/>
		</contour>
		<contour>
			<point x="615" y="136" type="curve" smooth="yes"/>
			<point x="615" y="534" type="line"/>
			<point x="435" y="534" type="line"/>
			<point x="435" y="465" type="line"/>
			<point x="400" y="522" type="line"/>
			<point x="373" y="538"/>
			<point x="321" y="548"/>
			<point x="277" y="548" type="curve" smooth="yes"/>
			<point x="140" y="548"/>
			<point x="24" y="453"/>
			<point x="24" y="263" type="curve" smooth="yes"/>
			<point x="24" y="105"/>
			<point x="124" y="6"/>
			<point x="269" y="6" type="curve" smooth="yes"/>
			<point x="323" y="6"/>
			<point x="365" y="17"/>
			<point x="395" y="39" type="curve"/>
			<point x="435" y="98" type="line"/>
			<point x="435" y="83" type="line" smooth="yes"/>
			<point x="435" y="54"/>
			<point x="434" y="29"/>
			<point x="433" y="13" type="curve" smooth="yes"/>
			<point x="428" y="-59"/>
			<point x="379" y="-88"/>
			<point x="312" y="-88" type="curve" smooth="yes"/>
			<point x="256" y="-88"/>
			<point x="215" y="-68"/>
			<point x="211" y="-33" type="curve" smooth="yes"/>
			<point x="210" y="-23" type="line"/>
			<point x="36" y="-23" type="line"/>
			<point x="37" y="-33" type="line" smooth="yes"/>
			<point x="50" y="-155"/>
			<point x="147" y="-220"/>
			<point x="307" y="-220" type="curve" smooth="yes"/>
			<point x="488" y="-220"/>
			<point x="608" y="-142"/>
			<point x="614" y="33" type="curve" smooth="yes"/>
			<point x="615" y="62"/>
			<point x="615" y="103"/>
		</contour>
		<contour>
			<point x="321" y="128" type="curve" smooth="yes"/>
			<point x="258" y="128"/>
			<point x="208" y="176"/>
			<point x="208" y="276" type="curve" smooth="yes"/>
			<point x="208" y="385"/>
			<point x="256" y="426"/>
			<point x="326" y="426" type="curve" smooth="yes"/>
			<point x="380" y="426"/>
			<point x="435" y="390"/>
			<point x="435" y="283" type="curve" smooth="yes"/>
			<point x="435" y="280" type="line" smooth="yes"/>
			<point x="435" y="168"/>
			<point x="387" y="128"/>
		</contour>
	</outline>
</glyph>
<glyph name="Hbar" format="2">
	<advance width="770"/>
	<unicode hex="0126"/>
	<note>
		Hbar
	</note>
	<outline>
		<contour>
			<point x="716" y="482" type="line"/>
			<point x="756" y="482" type="line"/>
			<point x="756" y="578" type="line"/>
			<point x="716" y="578" type="line"/>
			<point x="716" y="690" type="line"/>
			<point x="536" y="690" type="line"/>
			<point x="536" y="578" type="line"/>
			<point x="260" y="578" type="line"/>
			<point x="260" y="690" type="line"/>
			<point x="80" y="690" type="line"/>
			<point x="80" y="578" type="line"/>
			<point x="40" y="578" type="line"/>
			<point x="40" y="482" type="line"/>
			<point x="80" y="482" type="line"/>
			<point x="80" y="0" type="line"/>
			<point x="260" y="0" type="line"/>
			<point x="260" y="268" type="line"/>
			<point x="536" y="268" type="line"/>
			<point x="536" y="0" type="line"/>
			<point x="716" y="0" type="line"/>
		</contour>
		<contour>
			<point x="260" y="482" type="line"/>
			<point x="536" y="482" type="line"/>
			<point x="536" y="408" type="line"/>
			<point x="260" y="408" type="line"/>
		</contour>
	</outline>
</glyph>
<glyph name="hbar" format="2">
	<advance width="656"/>
	<unicode hex="0127"/>
	<note>
		hbar
	</note>
	<outline>
		<contour>
			<point x="603" y="403" type="curve" smooth="yes"/>
			<point x="589" y="496"/>
			<point x="524" y="548"/>
			<point x="414" y="548" type="curve" smooth="yes"/>
			<point x="365" y="548"/>
			<point x="327" y="537"/>
			<point x="294" y="517" type="curve"/>
			<point x="246" y="451" type="line"/>
			<point x="246" y="575" type="line"/>
			<point x="354" y="575" type="line"/>
			<point x="354" y="671" type="line"/>
			<point x="246" y="671" type="line"/>
			<point x="246" y="740" type="line"/>
			<point x="66" y="740" type="line"/>
			<point x="66" y="671" type="line"/>
			<point x="14" y="671" type="line"/>
			<point x="14" y="575" type="line"/>
			<point x="66" y="575" type="line"/>
			<point x="66" y="0" type="line"/>
			<point x="246" y="0" type="line"/>
			<point x="246" y="252" type="line" smooth="yes"/>
			<point x="246" y="373"/>
			<point x="285" y="426"/>
			<point x="340" y="426" type="curve" smooth="yes"/>
			<point x="394" y="426"/>
			<point x="422" y="396"/>
			<point x="426" y="345" type="curve" smooth="yes"/>
			<point x="428" y="318"/>
			<point x="428" y="289"/>
			<point x="428" y="272" type="curve" smooth="yes"/>
			<point x="428" y="0" type="line"/>
			<point x="608" y="0" type="line"/>
			<point x="608" y="302" type="line" smooth="yes"/>
			<point x="608" y="345"/>
			<point x="607" y="376"/>
		</contour>
	</outline>
</glyph>
<glyph name="Imacron" format="2">
	<advance width="314"/>
	<unicode hex="012A"/>
	<note>
		Imacron
	</note>
	<outline>
		<contour>
			<point x="20" y="760" type="line"/>
			<point x="320" y="760" type="line"/>
			<point x="320" y="856" type="line"/>
			<point x="20" y="856" type="line"/>
		</contour>
		<contour>
			<point x="80" y="0" type="line"/>
			<point x="260" y="0" type="line"/>
			<point x="260" y="690" type="line"/>
			<point x="80" y="690" type="line"/>
		</contour>
	</outline>
</glyph>
<glyph name="Iogonek" format="2">
	<advance width="314"/>
	<unicode hex="012E"/>
	<note>
		Iogonek
	</note>
	<outline>
		<contour>
			<point x="203" y="0" type="curve" smooth="yes"/>
			<point x="260" y="0" type="line"/>
			<point x="260" y="690" type="line"/>
			<point x="80" y="690" type="line"/>
			<point x="80" y="5" type="line"/>
			<point x="35" y="-20"/>
			<point x="-6" y="-77"/>
			<point x="-6" y="-137" type="curve" smooth="yes"/>
			<point x="-6" y="-201"/>
			<point x="42" y="-223"/>
			<point x="108" y="-223" type="curve" smooth="yes"/>
			<point x="172" y="-223"/>
			<point x="214" y="-202"/>
			<point x="243" y="-173" type="curve"/>
			<point x="243" y="-100" type="line"/>
			<point x="227" y="-115"/>
			<point x="213" y="-121"/>
			<point x="199" y="-121" type="curve" smooth="yes"/>
			<point x="179" y="-121"/>
			<point x="158" y="-108"/>
			<point x="158" y="-70" type="curve" smooth="yes"/>
			<point x="158" y="-32"/>
			<point x="178" y="0"/>
		</contour>
	</outline>
</glyph>
<glyph name="Idotaccent" format="2">
	<advance width="314"/>
	<unicode hex="0130"/>
	<note>
		Idotaccent
	</note>
	<outline>
		<contour>
			<point x="170" y="901" type="curve" smooth="yes"/>
			<point x="114" y="901"/>
			<point x="77" y="867"/>
			<point x="77" y="813" type="curve" smooth="yes"/>
			<point x="77" y="759"/>
			<point x="114" y="725"/>
			<point x="170" y="725" type="curve" smooth="yes"/>
			<point x="226" y="725"/>
			<point x="263" y="759"/>
			<point x="263" y="813" type="curve" smooth="yes"/>
			<point x="263" y="867"/>
			<point x="226" y="901"/>
		</contour>
		<contour>
			<point x="80" y="0" type="line"/>
			<point x="260" y="0" type="line"/>
			<point x="260" y="690" type="line"/>
			<point x="80" y="690" type="line"/>
		</contour>
	</outline>
</glyph>
<glyph name="dotlessi" format="2">
	<advance width="288"/>
	<unicode hex="0131"/>
	<note>
		dotlessi
	</note>
	<outline>
		<contour>
			<point x="54" y="0" type="line"/>
			<point x="234" y="0" type="line"/>
			<point x="234" y="534" type="line"/>
			<point x="54" y="534" type="line"/>
		</contour>
	</outline>
</glyph>
<glyph name="ij" format="2">
	<advance width="570"/>
	<unicode hex="0133"/>
	<note>
		ij
	</note>
	<outline>
		<contour>
			<point x="54" y="0" type="line"/>
			<point x="234" y="0" type="line"/>
			<point x="234" y="534" type="line"/>
			<point x="54" y="534" type="line"/>
		</contour>
		<contour>
			<point x="520" y="16" type="curve" smooth="yes"/>
			<point x="520" y="534" type="line"/>
			<point x="340" y="534" type="line"/>
			<point x="340" y="15" type="line" smooth="yes"/>
			<point x="340" y="0"/>
			<point x="339" y="-19"/>
			<point x="338" y="-33" type="curve" smooth="yes"/>
			<point x="333" y="-80"/>
			<point x="303" y="-91"/>
			<point x="238" y="-85" type="curve"/>
			<point x="238" y="-206" type="line"/>
			<point x="256" y="-209"/>
			<point x="277" y="-210"/>
			<point x="298" y="-210" type="curve" smooth="yes"/>
			<point x="453" y="-210"/>
			<point x="511" y="-148"/>
			<point x="518" y="-48" type="curve" smooth="yes"/>
			<point x="519" y="-30"/>
			<point x="520" y="-4"/>
		</contour>
		<contour>
			<point x="55" y="753" type="line"/>
			<point x="55" y="574" type="line"/>
			<point x="237" y="574" type="line"/>
			<point x="237" y="753" type="line"/>
		</contour>
		<contour>
			<point x="338" y="751" type="line"/>
			<point x="338" y="575" type="line"/>
			<point x="523" y="575" type="line"/>
			<point x="523" y="751" type="line"/>
		</contour>
	</outline>
</glyph>
<glyph name="uni0137" format="2">
	<advance width="632"/>
	<unicode hex="0137"/>
	<note>
		kcommaaccent
	</note>
	<outline>
		<contour>
			<point x="415" y="0" type="line"/>
			<point x="636" y="0" type="line"/>
			<point x="407" y="289" type="line"/>
			<point x="633" y="534" type="line"/>
			<point x="422" y="534" type="line"/>
			<point x="234" y="310" type="line"/>
			<point x="234" y="735" type="line"/>
			<point x="54" y="735" type="line"/>
			<point x="54" y="0" type="line"/>
			<point x="234" y="0" type="line"/>
			<point x="234" y="156" type="line"/>
			<point x="272" y="198" type="line"/>
		</contour>
		<contour>
			<point x="396" y="-37" type="line"/>
			<point x="282" y="-37" type="line"/>
			<point x="198" y="-216" type="line"/>
			<point x="295" y="-216" type="line"/>
			<point x="396" y="-47" type="line"/>
		</contour>
	</outline>
</glyph>
<glyph name="lcaron" format="2">
	<advance width="305"/>
	<unicode hex="013E"/>
	<note>
		lcaron
	</note>
	<outline>
		<contour>
			<point x="230" y="192" type="curve" smooth="yes"/>
			<point x="230" y="735" type="line"/>
			<point x="50" y="735" type="line"/>
			<point x="50" y="189" type="line" smooth="yes"/>
			<point x="50" y="149"/>
			<point x="50" y="122"/>
			<point x="52" y="94" type="curve" smooth="yes"/>
			<point x="56" y="23"/>
			<point x="103" y="-10"/>
			<point x="186" y="-10" type="curve" smooth="yes"/>
			<point x="226" y="-10"/>
			<point x="258" y="-8"/>
			<point x="291" y="-5" type="curve"/>
			<point x="291" y="117" type="line"/>
			<point x="244" y="115"/>
			<point x="235" y="122"/>
			<point x="232" y="143" type="curve" smooth="yes"/>
			<point x="230" y="156"/>
			<point x="230" y="167"/>
		</contour>
	</outline>
</glyph>
<glyph name="ldot" format="2">
	<advance width="480"/>
	<unicode hex="0140"/>
	<note>
		ldot
	</note>
	<outline>
		<contour>
			<point x="230" y="192" type="curve" smooth="yes"/>
			<point x="230" y="735" type="line"/>
			<point x="50" y="735" type="line"/>
			<point x="50" y="189" type="line" smooth="yes"/>
			<point x="50" y="149"/>
			<point x="50" y="122"/>
			<point x="52" y="94" type="curve" smooth="yes"/>
			<point x="56" y="23"/>
			<point x="103" y="-10"/>
			<point x="186" y="-10" type="curve" smooth="yes"/>
			<point x="226" y="-10"/>
			<point x="258" y="-8"/>
			<point x="291" y="-5" type="curve"/>
			<point x="291" y="117" type="line"/>
			<point x="244" y="115"/>
			<point x="235" y="122"/>
			<point x="232" y="143" type="curve" smooth="yes"/>
			<point x="230" y="156"/>
			<point x="230" y="167"/>
		</contour>
		<contour>
			<point x="380" y="488" type="curve" smooth="yes"/>
			<point x="326" y="488"/>
			<point x="287" y="452"/>
			<point x="287" y="400" type="curve" smooth="yes"/>
			<point x="287" y="348"/>
			<point x="326" y="312"/>
			<point x="380" y="312" type="curve" smooth="yes"/>
			<point x="434" y="312"/>
			<point x="473" y="348"/>
			<point x="473" y="400" type="curve" smooth="yes"/>
			<point x="473" y="452"/>
			<point x="434" y="488"/>
		</contour>
	</outline>
</glyph>
<glyph name="lslash" format="2">
	<advance width="337"/>
	<unicode hex="0142"/>
	<note>
		lslash
	</note>
	<outline>
		<contour>
			<point x="254" y="143" type="curve" smooth="yes"/>
			<point x="252" y="156"/>
			<point x="252" y="167"/>
			<point x="252" y="192" type="curve" smooth="yes"/>
			<point x="252" y="320" type="line"/>
			<point x="312" y="358" type="line"/>
			<point x="312" y="477" type="line"/>
			<point x="252" y="439" type="line"/>
			<point x="252" y="735" type="line"/>
			<point x="72" y="735" type="line"/>
			<point x="72" y="325" type="line"/>
			<point x="12" y="287" type="line"/>
			<point x="12" y="168" type="line"/>
			<point x="72" y="206" type="line"/>
			<point x="72" y="189" type="line" smooth="yes"/>
			<point x="72" y="149"/>
			<point x="72" y="122"/>
			<point x="74" y="94" type="curve" smooth="yes"/>
			<point x="78" y="23"/>
			<point x="125" y="-10"/>
			<point x="208" y="-10" type="curve" smooth="yes"/>
			<point x="248" y="-10"/>
			<point x="280" y="-8"/>
			<point x="313" y="-5" type="curve"/>
			<point x="313" y="117" type="line"/>
			<point x="266" y="115"/>
			<point x="257" y="122"/>
		</contour>
	</outline>
</glyph>
<glyph name="uni0145" format="2">
	<advance width="794"/>
	<unicode hex="0145"/>
	<note>
		Ncommaaccent
	</note>
	<outline>
		<contour>
			<point x="505" y="0" type="line"/>
			<point x="740" y="0" type="line"/>
			<point x="740" y="690" type="line"/>
			<point x="560" y="690" type="line"/>
			<point x="560" y="395" type="line" smooth="yes"/>
			<point x="560" y="355"/>
			<point x="561" y="284"/>
			<point x="566" y="214" type="curve"/>
			<point x="304" y="690" type="line"/>
			<point x="80" y="690" type="line"/>
			<point x="80" y="0" type="line"/>
			<point x="260" y="0" type="line"/>
			<point x="260" y="285" type="line" smooth="yes"/>
			<point x="260" y="325"/>
			<point x="260" y="386"/>
			<point x="254" y="456" type="curve"/>
		</contour>
		<contour>
			<point x="378" y="-216" type="line"/>
			<point x="479" y="-47" type="line"/>
			<point x="479" y="-37" type="line"/>
			<point x="365" y="-37" type="line"/>
			<point x="281" y="-216" type="line"/>
		</contour>
	</outline>
</glyph>
<glyph name="Ncaron" format="2">
	<advance width="794"/>
	<unicode hex="0147"/>
	<note>
		Ncaron
	</note>
	<outline>
		<contour>
			<point x="269" y="860" type="line"/>
			<point x="331" y="735" type="line"/>
			<point x="480" y="735" type="line"/>
			<point x="542" y="860" type="line"/>
			<point x="439" y="860" type="line"/>
			<point x="407" y="784" type="line"/>
			<point x="373" y="860" type="line"/>
		</contour>
		<contour>
			<point x="740" y="0" type="line"/>
			<point x="740" y="690" type="line"/>
			<point x="560" y="690" type="line"/>
			<point x="560" y="395" type="line" smooth="yes"/>
			<point x="560" y="355"/>
			<point x="561" y="284"/>
			<point x="566" y="214" type="curve"/>
			<point x="304" y="690" type="line"/>
			<point x="80" y="690" type="line"/>
			<point x="80" y="0" type="line"/>
			<point x="260" y="0" type="line"/>
			<point x="260" y="285" type="line" smooth="yes"/>
			<point x="260" y="325"/>
			<point x="260" y="386"/>
			<point x="254" y="456" type="curve"/>
			<point x="505" y="0" type="line"/>
		</contour>
	</outline>
</glyph>
<glyph name="eng" format="2">
	<advance width="644"/>
	<unicode hex="014B"/>
	<note>
		eng
	</note>
	<outline>
		<contour>
			<point x="591" y="403" type="curve" smooth="yes"/>
			<point x="577" y="496"/>
			<point x="512" y="548"/>
			<point x="402" y="548" type="curve" smooth="yes"/>
			<point x="353" y="548"/>
			<point x="315" y="537"/>
			<point x="282" y="517" type="curve"/>
			<point x="234" y="451" type="line"/>
			<point x="234" y="534" type="line"/>
			<point x="54" y="534" type="line"/>
			<point x="54" y="0" type="line"/>
			<point x="234" y="0" type="line"/>
			<point x="234" y="252" type="line" smooth="yes"/>
			<point x="234" y="373"/>
			<point x="273" y="426"/>
			<point x="328" y="426" type="curve" smooth="yes"/>
			<point x="382" y="426"/>
			<point x="410" y="396"/>
			<point x="414" y="345" type="curve" smooth="yes"/>
			<point x="416" y="318"/>
			<point x="416" y="289"/>
			<point x="416" y="272" type="curve" smooth="yes"/>
			<point x="416" y="-3" type="line" smooth="yes"/>
			<point x="416" y="-13"/>
			<point x="416" y="-26"/>
			<point x="415" y="-35" type="curve" smooth="yes"/>
			<point x="411" y="-69"/>
			<point x="386" y="-78"/>
			<point x="341" y="-78" type="curve"/>
			<point x="341" y="-210" type="line"/>
			<point x="537" y="-210"/>
			<point x="586" y="-163"/>
			<point x="595" y="-75" type="curve" smooth="yes"/>
			<point x="596" y="-61"/>
			<point x="596" y="-52"/>
			<point x="596" y="-34" type="curve" smooth="yes"/>
			<point x="596" y="302" type="line" smooth="yes"/>
			<point x="596" y="345"/>
			<point x="595" y="376"/>
		</contour>
	</outline>
</glyph>
<glyph name="Omacron" format="2">
	<advance width="788"/>
	<unicode hex="014C"/>
	<note>
		Omacron
	</note>
	<outline>
		<contour>
			<point x="257" y="760" type="line"/>
			<point x="557" y="760" type="line"/>
			<point x="557" y="856" type="line"/>
			<point x="257" y="856" type="line"/>
		</contour>
		<contour>
			<point x="407" y="704" type="curve" smooth="yes"/>
			<point x="192" y="704"/>
			<point x="54" y="567"/>
			<point x="54" y="345" type="curve" smooth="yes"/>
			<point x="54" y="124"/>
			<point x="192" y="-14"/>
			<point x="407" y="-14" type="curve" smooth="yes"/>
			<point x="622" y="-14"/>
			<point x="760" y="124"/>
			<point x="760" y="345" type="curve" smooth="yes"/>
			<point x="760" y="567"/>
			<point x="622" y="704"/>
		</contour>
		<contour>
			<point x="407" y="118" type="curve" smooth="yes"/>
			<point x="303" y="118"/>
			<point x="238" y="199"/>
			<point x="238" y="345" type="curve" smooth="yes"/>
			<point x="238" y="492"/>
			<point x="303" y="572"/>
			<point x="407" y="572" type="curve" smooth="yes"/>
			<point x="511" y="572"/>
			<point x="576" y="492"/>
			<point x="576" y="345" type="curve" smooth="yes"/>
			<point x="576" y="199"/>
			<point x="511" y="118"/>
		</contour>
	</outline>
</glyph>
<glyph name="ohungarumlaut" format="2">
	<advance width="622"/>
	<unicode hex="0151"/>
	<note>
		ohungarumlaut
	</note>
	<outline>
		<contour>
			<point x="139" y="571" type="line"/>
			<point x="235" y="571" type="line"/>
			<point x="390" y="696" type="line"/>
			<point x="230" y="696" type="line"/>
		</contour>
		<contour>
			<point x="421" y="696" type="line"/>
			<point x="330" y="571" type="line"/>
			<point x="426" y="571" type="line"/>
			<point x="581" y="696" type="line"/>
		</contour>
		<contour>
			<point x="311" y="548" type="curve" smooth="yes"/>
			<point x="136" y="548"/>
			<point x="24" y="439"/>
			<point x="24" y="267" type="curve" smooth="yes"/>
			<point x="24" y="96"/>
			<point x="136" y="-14"/>
			<point x="311" y="-14" type="curve" smooth="yes"/>
			<point x="486" y="-14"/>
			<point x="598" y="96"/>
			<point x="598" y="267" type="curve" smooth="yes"/>
			<point x="598" y="439"/>
			<point x="486" y="548"/>
		</contour>
		<contour>
			<point x="311" y="108" type="curve" smooth="yes"/>
			<point x="247" y="108"/>
			<point x="208" y="161"/>
			<point x="208" y="267" type="curve" smooth="yes"/>
			<point x="208" y="374"/>
			<point x="247" y="426"/>
			<point x="311" y="426" type="curve" smooth="yes"/>
			<point x="375" y="426"/>
			<point x="414" y="374"/>
			<point x="414" y="267" type="curve" smooth="yes"/>
			<point x="414" y="161"/>
			<point x="375" y="108"/>
		</contour>
	</outline>
</glyph>
<glyph name="uni0157" format="2">
	<advance width="420"/>
	<unicode hex="0157"/>
	<note>
		rcommaaccent
	</note>
	<outline>
		<contour>
			<point x="377" y="548" type="curve" smooth="yes"/>
			<point x="343" y="548"/>
			<point x="301" y="533"/>
			<point x="272" y="501" type="curve"/>
			<point x="234" y="426" type="line"/>
			<point x="234" y="534" type="line"/>
			<point x="54" y="534" type="line"/>
			<point x="54" y="0" type="line"/>
			<point x="234" y="0" type="line"/>
			<point x="234" y="196" type="line" smooth="yes"/>
			<point x="234" y="357"/>
			<point x="283" y="407"/>
			<point x="418" y="398" type="curve"/>
			<point x="418" y="545" type="line"/>
			<point x="405" y="547"/>
			<point x="394" y="548"/>
		</contour>
		<contour>
			<point x="218" y="-37" type="line"/>
			<point x="104" y="-37" type="line"/>
			<point x="20" y="-216" type="line"/>
			<point x="117" y="-216" type="line"/>
			<point x="218" y="-47" type="line"/>
		</contour>
	</outline>
</glyph>
<glyph name="scedilla" format="2">
	<advance width="528"/>
	<unicode hex="015F"/>
	<note>
		scedilla
	</note>
	<outline>
		<contour>
			<point x="512" y="153" type="curve" smooth="yes"/>
			<point x="512" y="256"/>
			<point x="443" y="298"/>
			<point x="346" y="322" type="curve" smooth="yes"/>
			<point x="244" y="347"/>
			<point x="220" y="367"/>
			<point x="220" y="397" type="curve" smooth="yes"/>
			<point x="220" y="420"/>
			<point x="238" y="436"/>
			<point x="263" y="436" type="curve" smooth="yes"/>
			<point x="295" y="436"/>
			<point x="313" y="415"/>
			<point x="321" y="378" type="curve"/>
			<point x="498" y="378" type="line"/>
			<point x="484" y="475"/>
			<point x="407" y="548"/>
			<point x="274" y="548" type="curve" smooth="yes"/>
			<point x="132" y="548"/>
			<point x="40" y="482"/>
			<point x="40" y="376" type="curve" smooth="yes"/>
			<point x="40" y="285"/>
			<point x="101" y="238"/>
			<point x="203" y="214" type="curve" smooth="yes"/>
			<point x="298" y="192"/>
			<point x="332" y="173"/>
			<point x="332" y="139" type="curve" smooth="yes"/>
			<point x="332" y="111"/>
			<point x="307" y="98"/>
			<point x="275" y="98" type="curve" smooth="yes"/>
			<point x="237" y="98"/>
			<point x="205" y="125"/>
			<point x="195" y="166" type="curve"/>
			<point x="18" y="166" type="line"/>
			<point x="30" y="63"/>
			<point x="104" y="5"/>
			<point x="216" y="-10" type="curve"/>
			<point x="178" y="-88" type="line"/>
			<point x="253" y="-83"/>
			<point x="275" y="-94"/>
			<point x="275" y="-114" type="curve" smooth="yes"/>
			<point x="275" y="-132"/>
			<point x="258" y="-141"/>
			<point x="215" y="-141" type="curve" smooth="yes"/>
			<point x="202" y="-141"/>
			<point x="182" y="-140"/>
			<point x="157" y="-134" type="curve"/>
			<point x="157" y="-204" type="line"/>
			<point x="176" y="-209"/>
			<point x="194" y="-210"/>
			<point x="214" y="-210" type="curve" smooth="yes"/>
			<point x="306" y="-210"/>
			<point x="383" y="-188"/>
			<point x="383" y="-119" type="curve" smooth="yes"/>
			<point x="383" y="-74"/>
			<point x="351" y="-49"/>
			<point x="288" y="-42" type="curve"/>
			<point x="302" y="-13" type="line"/>
			<point x="419" y="-7"/>
			<point x="512" y="47"/>
		</contour>
	</outline>
</glyph>
<glyph name="scaron" format="2">
	<advance width="528"/>
	<unicode hex="0161"/>
	<note>
		scaron
	</note>
	<outline>
		<contour>
			<point x="133" y="696" type="line"/>
			<point x="195" y="571" type="line"/>
			<point x="344" y="571" type="line"/>
			<point x="406" y="696" type="line"/>
			<point x="303" y="696" type="line"/>
			<point x="271" y="620" type="line"/>
			<point x="237" y="696" type="line"/>
		</contour>
		<contour>
			<point x="346" y="322" type="curve" smooth="yes"/>
			<point x="244" y="347"/>
			<point x="220" y="367"/>
			<point x="220" y="397" type="curve" smooth="yes"/>
			<point x="220" y="420"/>
			<point x="238" y="436"/>
			<point x="263" y="436" type="curve" smooth="yes"/>
			<point x="295" y="436"/>
			<point x="313" y="415"/>
			<point x="321" y="378" type="curve"/>
			<point x="498" y="378" type="line"/>
			<point x="484" y="475"/>
			<point x="407" y="548"/>
			<point x="274" y="548" type="curve" smooth="yes"/>
			<point x="132" y="548"/>
			<point x="40" y="482"/>
			<point x="40" y="376" type="curve" smooth="yes"/>
			<point x="40" y="285"/>
			<point x="101" y="238"/>
			<point x="203" y="214" type="curve" smooth="yes"/>
			<point x="298" y="192"/>
			<point x="332" y="173"/>
			<point x="332" y="139" type="curve" smooth="yes"/>
			<point x="332" y="111"/>
			<point x="307" y="98"/>
			<point x="275" y="98" type="curve" smooth="yes"/>
			<point x="237" y="98"/>
			<point x="205" y="125"/>
			<point x="195" y="166" type="curve"/>
			<point x="18" y="166" type="line"/>
			<point x="32" y="46"/>
			<point x="131" y="-14"/>
			<point x="276" y="-14" type="curve" smooth="yes"/>
			<point x="405" y="-14"/>
			<point x="512" y="39"/>
			<point x="512" y="153" type="curve" smooth="yes"/>
			<point x="512" y="256"/>
			<point x="443" y="298"/>
		</contour>
	</outline>
</glyph>
<glyph name="uni0162" format="2">
	<advance width="632"/>
	<unicode hex="0162"/>
	<note>
		Tcedilla
	</note>
	<outline>
		<contour>
			<point x="347" y="-42" type="curve"/>
			<point x="367" y="0" type="line"/>
			<point x="418" y="0" type="line"/>
			<point x="418" y="550" type="line"/>
			<point x="642" y="550" type="line"/>
			<point x="642" y="690" type="line"/>
			<point x="14" y="690" type="line"/>
			<point x="14" y="550" type="line"/>
			<point x="238" y="550" type="line"/>
			<point x="238" y="0" type="line"/>
			<point x="280" y="0" type="line"/>
			<point x="237" y="-88" type="line"/>
			<point x="312" y="-83"/>
			<point x="334" y="-94"/>
			<point x="334" y="-114" type="curve" smooth="yes"/>
			<point x="334" y="-132"/>
			<point x="317" y="-141"/>
			<point x="274" y="-141" type="curve" smooth="yes"/>
			<point x="261" y="-141"/>
			<point x="241" y="-140"/>
			<point x="216" y="-134" type="curve"/>
			<point x="216" y="-204" type="line"/>
			<point x="235" y="-209"/>
			<point x="253" y="-210"/>
			<point x="273" y="-210" type="curve" smooth="yes"/>
			<point x="365" y="-210"/>
			<point x="442" y="-188"/>
			<point x="442" y="-119" type="curve" smooth="yes"/>
			<point x="442" y="-74"/>
			<point x="410" y="-49"/>
		</contour>
	</outline>
</glyph>
<glyph name="uni0163" format="2">
	<advance width="400"/>
	<unicode hex="0163"/>
	<note>
		tcedilla
	</note>
	<outline>
		<contour>
			<point x="270" y="221" type="curve" smooth="yes"/>
			<point x="270" y="418" type="line"/>
			<point x="388" y="418" type="line"/>
			<point x="388" y="530" type="line"/>
			<point x="270" y="530" type="line"/>
			<point x="270" y="668" type="line"/>
			<point x="90" y="668" type="line"/>
			<point x="90" y="530" type="line"/>
			<point x="5" y="530" type="line"/>
			<point x="5" y="418" type="line"/>
			<point x="90" y="418" type="line"/>
			<point x="90" y="195" type="line" smooth="yes"/>
			<point x="90" y="165"/>
			<point x="90" y="140"/>
			<point x="92" y="109" type="curve" smooth="yes"/>
			<point x="96" y="51"/>
			<point x="117" y="14"/>
			<point x="176" y="-3" type="curve"/>
			<point x="135" y="-88" type="line"/>
			<point x="210" y="-83"/>
			<point x="232" y="-94"/>
			<point x="232" y="-114" type="curve" smooth="yes"/>
			<point x="232" y="-132"/>
			<point x="215" y="-141"/>
			<point x="172" y="-141" type="curve" smooth="yes"/>
			<point x="159" y="-141"/>
			<point x="139" y="-140"/>
			<point x="114" y="-134" type="curve"/>
			<point x="114" y="-204" type="line"/>
			<point x="133" y="-209"/>
			<point x="151" y="-210"/>
			<point x="171" y="-210" type="curve" smooth="yes"/>
			<point x="263" y="-210"/>
			<point x="340" y="-188"/>
			<point x="340" y="-119" type="curve" smooth="yes"/>
			<point x="340" y="-74"/>
			<point x="308" y="-49"/>
			<point x="245" y="-42" type="curve"/>
			<point x="259" y="-14" type="line"/>
			<point x="271" y="-14" type="line" smooth="yes"/>
			<point x="309" y="-14"/>
			<point x="342" y="-11"/>
			<point x="377" y="-5" type="curve"/>
			<point x="377" y="107" type="line"/>
			<point x="292" y="103"/>
			<point x="275" y="115"/>
			<point x="271" y="169" type="curve" smooth="yes"/>
			<point x="270" y="183"/>
			<point x="270" y="203"/>
		</contour>
	</outline>
</glyph>
<glyph name="Tcaron" format="2">
	<advance width="632"/>
	<unicode hex="0164"/>
	<note>
		Tcaron
	</note>
	<outline>
		<contour>
			<point x="192" y="860" type="line"/>
			<point x="254" y="735" type="line"/>
			<point x="403" y="735" type="line"/>
			<point x="465" y="860" type="line"/>
			<point x="362" y="860" type="line"/>
			<point x="330" y="784" type="line"/>
			<point x="296" y="860" type="line"/>
		</contour>
		<contour>
			<point x="418" y="550" type="line"/>
			<point x="642" y="550" type="line"/>
			<point x="642" y="690" type="line"/>
			<point x="14" y="690" type="line"/>
			<point x="14" y="550" type="line"/>
			<point x="238" y="550" type="line"/>
			<point x="238" y="0" type="line"/>
			<point x="418" y="0" type="line"/>
		</contour>
	</outline>
</glyph>
<glyph name="Umacron" format="2">
	<advance width="718"/>
	<unicode hex="016A"/>
	<note>
		Umacron
	</note>
	<outline>
		<contour>
			<point x="224" y="760" type="line"/>
			<point x="524" y="760" type="line"/>
			<point x="524" y="856" type="line"/>
			<point x="224" y="856" type="line"/>
		</contour>
		<contour>
			<point x="680" y="303" type="curve" smooth="yes"/>
			<point x="680" y="690" type="line"/>
			<point x="500" y="690" type="line"/>
			<point x="500" y="270" type="line" smooth="yes"/>
			<point x="500" y="251"/>
			<point x="500" y="241"/>
			<point x="499" y="229" type="curve" smooth="yes"/>
			<point x="494" y="157"/>
			<point x="453" y="118"/>
			<point x="374" y="118" type="curve" smooth="yes"/>
			<point x="295" y="118"/>
			<point x="254" y="157"/>
			<point x="249" y="229" type="curve" smooth="yes"/>
			<point x="248" y="241"/>
			<point x="248" y="251"/>
			<point x="248" y="270" type="curve" smooth="yes"/>
			<point x="248" y="690" type="line"/>
			<point x="68" y="690" type="line"/>
			<point x="68" y="303" type="line" smooth="yes"/>
			<point x="68" y="268"/>
			<point x="68" y="247"/>
			<point x="71" y="206" type="curve" smooth="yes"/>
			<point x="79" y="90"/>
			<point x="161" y="-14"/>
			<point x="374" y="-14" type="curve" smooth="yes"/>
			<point x="587" y="-14"/>
			<point x="669" y="90"/>
			<point x="677" y="206" type="curve" smooth="yes"/>
			<point x="680" y="247"/>
			<point x="680" y="268"/>
		</contour>
	</outline>
</glyph>
<glyph name="uring" format="2">
	<advance width="640"/>
	<unicode hex="016F"/>
	<note>
		uring
	</note>
	<outline>
		<contour>
			<point x="315" y="567" type="curve" smooth="yes"/>
			<point x="385" y="567"/>
			<point x="434" y="610"/>
			<point x="434" y="674" type="curve" smooth="yes"/>
			<point x="434" y="738"/>
			<point x="385" y="781"/>
			<point x="315" y="781" type="curve" smooth="yes"/>
			<point x="245" y="781"/>
			<point x="196" y="738"/>
			<point x="196" y="674" type="curve" smooth="yes"/>
			<point x="196" y="610"/>
			<point x="245" y="567"/>
		</contour>
		<contour>
			<point x="315" y="715" type="curve" smooth="yes"/>
			<point x="336" y="715"/>
			<point x="351" y="700"/>
			<point x="351" y="674" type="curve" smooth="yes"/>
			<point x="351" y="648"/>
			<point x="336" y="633"/>
			<point x="315" y="633" type="curve" smooth="yes"/>
			<point x="294" y="633"/>
			<point x="279" y="648"/>
			<point x="279" y="674" type="curve" smooth="yes"/>
			<point x="279" y="700"/>
			<point x="294" y="715"/>
		</contour>
		<contour>
			<point x="586" y="0" type="line"/>
			<point x="586" y="534" type="line"/>
			<point x="406" y="534" type="line"/>
			<point x="406" y="232" type="line" smooth="yes"/>
			<point x="406" y="161"/>
			<point x="372" y="108"/>
			<point x="315" y="108" type="curve" smooth="yes"/>
			<point x="258" y="108"/>
			<point x="234" y="138"/>
			<point x="228" y="189" type="curve" smooth="yes"/>
			<point x="225" y="216"/>
			<point x="224" y="245"/>
			<point x="224" y="262" type="curve" smooth="yes"/>
			<point x="224" y="534" type="line"/>
			<point x="44" y="534" type="line"/>
			<point x="44" y="222" type="line" smooth="yes"/>
			<point x="44" y="179"/>
			<point x="45" y="148"/>
			<point x="49" y="121" type="curve" smooth="yes"/>
			<point x="61" y="48"/>
			<point x="128" y="-14"/>
			<point x="238" y="-14" type="curve" smooth="yes"/>
			<point x="287" y="-14"/>
			<point x="325" y="-3"/>
			<point x="358" y="17" type="curve"/>
			<point x="406" y="90" type="line"/>
			<point x="406" y="0" type="line"/>
		</contour>
	</outline>
</glyph>
<glyph name="uogonek" format="2">
	<advance width="640"/>
	<unicode hex="0173"/>
	<note>
		uogonek
	</note>
	<outline>
		<contour>
			<point x="529" y="0" type="curve" smooth="yes"/>
			<point x="586" y="0" type="line"/>
			<point x="586" y="534" type="line"/>
			<point x="406" y="534" type="line"/>
			<point x="406" y="232" type="line" smooth="yes"/>
			<point x="406" y="161"/>
			<point x="372" y="108"/>
			<point x="315" y="108" type="curve" smooth="yes"/>
			<point x="258" y="108"/>
			<point x="234" y="138"/>
			<point x="228" y="189" type="curve" smooth="yes"/>
			<point x="225" y="216"/>
			<point x="224" y="245"/>
			<point x="224" y="262" type="curve" smooth="yes"/>
			<point x="224" y="534" type="line"/>
			<point x="44" y="534" type="line"/>
			<point x="44" y="222" type="line" smooth="yes"/>
			<point x="44" y="179"/>
			<point x="45" y="148"/>
			<point x="49" y="121" type="curve" smooth="yes"/>
			<point x="61" y="48"/>
			<point x="128" y="-14"/>
			<point x="238" y="-14" type="curve" smooth="yes"/>
			<point x="287" y="-14"/>
			<point x="325" y="-3"/>
			<point x="358" y="17" type="curve"/>
			<point x="406" y="90" type="line"/>
			<point x="406" y="5" type="line"/>
			<point x="361" y="-20"/>
			<point x="320" y="-77"/>
			<point x="320" y="-137" type="curve" smooth="yes"/>
			<point x="320" y="-201"/>
			<point x="368" y="-223"/>
			<point x="434" y="-223" type="curve" smooth="yes"/>
			<point x="498" y="-223"/>
			<point x="540" y="-202"/>
			<point x="569" y="-173" type="curve"/>
			<point x="569" y="-100" type="line"/>
			<point x="553" y="-115"/>
			<point x="539" y="-121"/>
			<point x="525" y="-121" type="curve" smooth="yes"/>
			<point x="505" y="-121"/>
			<point x="484" y="-108"/>
			<point x="484" y="-70" type="curve" smooth="yes"/>
			<point x="484" y="-32"/>
			<point x="504" y="0"/>
		</contour>
	</outline>
</glyph>
<glyph name="wcircumflex" format="2">
	<advance width="868"/>
	<unicode hex="0175"/>
	<note>
		wcircumflex
	</note>
	<outline>
		<contour>
			<point x="302" y="571" type="line"/>
			<point x="405" y="571" type="line"/>
			<point x="437" y="647" type="line"/>
			<point x="471" y="571" type="line"/>
			<point x="575" y="571" type="line"/>
			<point x="513" y="696" type="line"/>
			<point x="364" y="696" type="line"/>
		</contour>
		<contour>
			<point x="707" y="0" type="line"/>
			<point x="876" y="534" type="line"/>
			<point x="682" y="534" type="line"/>
			<point x="614" y="151" type="line"/>
			<point x="546" y="530" type="line"/>
			<point x="332" y="530" type="line"/>
			<point x="268" y="152" type="line"/>
			<point x="198" y="534" type="line"/>
			<point x="0" y="534" type="line"/>
			<point x="169" y="0" type="line"/>
			<point x="370" y="0" type="line"/>
			<point x="438" y="360" type="line"/>
			<point x="506" y="0" type="line"/>
		</contour>
	</outline>
</glyph>
<glyph name="Ydieresis" format="2">
	<advance width="663"/>
	<unicode hex="0178"/>
	<note>
		Ydieresis
	</note>
	<outline>
		<contour>
			<point x="437" y="0" type="line"/>
			<point x="437" y="264" type="line"/>
			<point x="680" y="690" type="line"/>
			<point x="483" y="690" type="line"/>
			<point x="352" y="417" type="line"/>
			<point x="216" y="690" type="line"/>
			<point x="14" y="690" type="line"/>
			<point x="257" y="264" type="line"/>
			<point x="257" y="0" type="line"/>
		</contour>
		<contour>
			<point x="173" y="864" type="line"/>
			<point x="173" y="717" type="line"/>
			<point x="323" y="717" type="line"/>
			<point x="323" y="864" type="line"/>
		</contour>
		<contour>
			<point x="374" y="864" type="line"/>
			<point x="374" y="717" type="line"/>
			<point x="524" y="717" type="line"/>
			<point x="524" y="864" type="line"/>
		</contour>
	</outline>
</glyph>
<glyph name="zacute" format="2">
	<advance width="526"/>
	<unicode hex="017A"/>
	<note>
		zacute
	</note>
	<outline>
		<contour>
			<point x="222" y="571" type="line"/>
			<point x="318" y="571" type="line"/>
			<point x="473" y="696" type="line"/>
			<point x="313" y="696" type="line"/>
		</contour>
		<contour>
			<point x="497" y="0" type="line"/>
			<point x="497" y="112" type="line"/>
			<point x="227" y="112" type="line"/>
			<point x="494" y="420" type="line"/>
			<point x="494" y="530" type="line"/>
			<point x="49" y="530" type="line"/>
			<point x="49" y="418" type="line"/>
			<point x="304" y="418" type="line"/>
			<point x="34" y="105" type="line"/>
			<point x="34" y="0" type="line"/>
		</contour>
	</outline>
</glyph>
<glyph name="zdotaccent" format="2">
	<advance width="526"/>
	<unicode hex="017C"/>
	<note>
		zdotaccent
	</note>
	<outline>
		<contour>
			<point x="276" y="575" type="curve" smooth="yes"/>
			<point x="332" y="575"/>
			<point x="369" y="609"/>
			<point x="369" y="663" type="curve" smooth="yes"/>
			<point x="369" y="717"/>
			<point x="332" y="751"/>
			<point x="276" y="751" type="curve" smooth="yes"/>
			<point x="220" y="751"/>
			<point x="183" y="717"/>
			<point x="183" y="663" type="curve" smooth="yes"/>
			<point x="183" y="609"/>
			<point x="220" y="575"/>
		</contour>
		<contour>
			<point x="497" y="0" type="line"/>
			<point x="497" y="112" type="line"/>
			<point x="227" y="112" type="line"/>
			<point x="494" y="420" type="line"/>
			<point x="494" y="530" type="line"/>
			<point x="49" y="530" type="line"/>
			<point x="49" y="418" type="line"/>
			<point x="304" y="418" type="line"/>
			<point x="34" y="105" type="line"/>
			<point x="34" y="0" type="line"/>
		</contour>
	</outline>
</glyph>
<glyph name="breve" format="2">
	<advance width="300"/>
	<unicode hex="02D8"/>
	<note>
		breve
	</note>
	<outline>
		<contour>
			<point x="285" y="696" type="curve"/>
			<point x="195" y="696" type="line"/>
			<point x="193" y="669"/>
			<point x="179" y="653"/>
			<point x="150" y="653" type="curve" smooth="yes"/>
			<point x="121" y="653"/>
			<point x="107" y="669"/>
			<point x="105" y="696" type="curve"/>
			<point x="15" y="696" type="line"/>
			<point x="15" y="597"/>
			<point x="78" y="568"/>
			<point x="150" y="568" type="curve" smooth="yes"/>
			<point x="221" y="568"/>
			<point x="285" y="597"/>
		</contour>
	</outline>
</glyph>
<glyph name="ring" format="2">
	<advance width="300"/>
	<unicode hex="02DA"/>
	<note>
		ring
	</note>
	<outline>
		<contour>
			<point x="150" y="781" type="curve" smooth="yes"/>
			<point x="80" y="781"/>
			<point x="31" y="738"/>
			<point x="31" y="674" type="curve" smooth="yes"/>
			<point x="31" y="610"/>
			<point x="80" y="567"/>
			<point x="150" y="567" type="curve" smooth="yes"/>
			<point x="220" y="567"/>
			<point x="269" y="610"/>
			<point x="269" y="674" type="curve" smooth="yes"/>
			<point x="269" y="738"/>
			<point x="220" y="781"/>
		</contour>
		<contour>
			<point x="150" y="715" type="curve" smooth="yes"/>
			<point x="171" y="715"/>
			<point x="186" y="700"/>
			<point x="186" y="674" type="curve" smooth="yes"/>
			<point x="186" y="648"/>
			<point x="171" y="633"/>
			<point x="150" y="633" type="curve" smooth="yes"/>
			<point x="129" y="633"/>
			<point x="114" y="648"/>
			<point x="114" y="674" type="curve" smooth="yes"/>
			<point x="114" y="700"/>
			<point x="129" y="715"/>
		</contour>
	</outline>
</glyph>
<glyph name="ogonek" format="2">
	<advance width="300"/>
	<unicode hex="02DB"/>
	<note>
		ogonek
	</note>
	<outline>
		<contour>
			<point x="273" y="0" type="curve"/>
			<point x="150" y="5" type="line"/>
			<point x="105" y="-20"/>
			<point x="64" y="-77"/>
			<point x="64" y="-137" type="curve" smooth="yes"/>
			<point x="64" y="-201"/>
			<point x="112" y="-223"/>
			<point x="178" y="-223" type="curve" smooth="yes"/>
			<point x="242" y="-223"/>
			<point x="284" y="-202"/>
			<point x="313" y="-173" type="curve"/>
			<point x="313" y="-100" type="line"/>
			<point x="297" y="-115"/>
			<point x="283" y="-121"/>
			<point x="269" y="-121" type="curve" smooth="yes"/>
			<point x="249" y="-121"/>
			<point x="228" y="-108"/>
			<point x="228" y="-70" type="curve" smooth="yes"/>
			<point x="228" y="-32"/>
			<point x="248" y="0"/>
		</contour>
	</outline>
</glyph>
<glyph name="tilde" format="2">
	<advance width="300"/>
	<unicode hex="02DC"/>
	<note>
		tilde
	</note>
	<outline>
		<contour>
			<point x="76" y="708" type="curve" smooth="yes"/>
			<point x="14" y="708"/>
			<point x="-14" y="667"/>
			<point x="-14" y="574" type="curve"/>
			<point x="82" y="574" type="line"/>
			<point x="82" y="596"/>
			<point x="86" y="605"/>
			<point x="97" y="605" type="curve" smooth="yes"/>
			<point x="105" y="605"/>
			<point x="118" y="600"/>
			<point x="142" y="590" type="curve" smooth="yes"/>
			<point x="179" y="574"/>
			<point x="195" y="571"/>
			<point x="224" y="571" type="curve" smooth="yes"/>
			<point x="286" y="571"/>
			<point x="314" y="612"/>
			<point x="314" y="705" type="curve"/>
			<point x="218" y="705" type="line"/>
			<point x="218" y="683"/>
			<point x="214" y="674"/>
			<point x="203" y="674" type="curve" smooth="yes"/>
			<point x="195" y="674"/>
			<point x="182" y="678"/>
			<point x="158" y="689" type="curve" smooth="yes"/>
			<point x="122" y="705"/>
			<point x="105" y="708"/>
		</contour>
	</outline>
</glyph>
<glyph name="uni0326" format="2">
	<advance width="0"/>
	<unicode hex="0326"/>
	<note>
		uni0326
	</note>
	<outline>
		<contour>
			<point x="123" y="-216" type="line"/>
			<point x="224" y="-47" type="line"/>
			<point x="224" y="-37" type="line"/>
			<point x="110" y="-37" type="line"/>
			<point x="26" y="-216" type="line"/>
		</contour>
	</outline>
</glyph>
<glyph name="Wacute" format="2">
	<advance width="1016"/>
	<unicode hex="1E82"/>
	<note>
		Wacute
	</note>
	<outline>
		<contour>
			<point x="474" y="735" type="line"/>
			<point x="570" y="735" type="line"/>
			<point x="725" y="860" type="line"/>
			<point x="565" y="860" type="line"/>
		</contour>
		<contour>
			<point x="853" y="0" type="line"/>
			<point x="1029" y="690" type="line"/>
			<point x="845" y="690" type="line"/>
			<point x="745" y="138" type="line"/>
			<point x="658" y="680" type="line"/>
			<point x="400" y="680" type="line"/>
			<point x="309" y="140" type="line"/>
			<point x="217" y="690" type="line"/>
			<point x="26" y="690" type="line"/>
			<point x="192" y="0" type="line"/>
			<point x="433" y="0" type="line"/>
			<point x="526" y="537" type="line"/>
			<point x="613" y="0" type="line"/>
		</contour>
	</outline>
</glyph>
<glyph name="wacute" format="2">
	<advance width="868"/>
	<unicode hex="1E83"/>
	<note>
		wacute
	</note>
	<outline>
		<contour>
			<point x="384" y="571" type="line"/>
			<point x="480" y="571" type="line"/>
			<point x="635" y="696" type="line"/>
			<point x="475" y="696" type="line"/>
		</contour>
		<contour>
			<point x="707" y="0" type="line"/>
			<point x="876" y="534" type="line"/>
			<point x="682" y="534" type="line"/>
			<point x="614" y="151" type="line"/>
			<point x="546" y="530" type="line"/>
			<point x="332" y="530" type="line"/>
			<point x="268" y="152" type="line"/>
			<point x="198" y="534" type="line"/>
			<point x="0" y="534" type="line"/>
			<point x="169" y="0" type="line"/>
			<point x="370" y="0" type="line"/>
			<point x="438" y="360" type="line"/>
			<point x="506" y="0" type="line"/>
		</contour>
	</outline>
</glyph>
<glyph name="emdash" format="2">
	<advance width="1000"/>
	<unicode hex="2014"/>
	<note>
		emdash
	</note>
	<outline>
		<contour>
			<point x="90" y="242" type="line"/>
			<point x="910" y="242" type="line"/>
			<point x="910" y="338" type="line"/>
			<point x="90" y="338" type="line"/>
		</contour>
	</outline>
</glyph>
<glyph name="quoteleft" format="2">
	<advance width="322"/>
	<unicode hex="2018"/>
	<note>
		quoteleft
	</note>
	<outline>
		<contour>
			<point x="167" y="735" type="line"/>
			<point x="58" y="449" type="line"/>
			<point x="58" y="439" type="line"/>
			<point x="225" y="439" type="line"/>
			<point x="305" y="735" type="line"/>
		</contour>
	</outline>
</glyph>
<glyph name="quotedblright" format="2">
	<advance width="562"/>
	<unicode hex="201D"/>
	<note>
		quotedblright
	</note>
	<outline>
		<contour>
			<point x="155" y="439" type="line"/>
			<point x="264" y="725" type="line"/>
			<point x="264" y="735" type="line"/>
			<point x="97" y="735" type="line"/>
			<point x="17" y="439" type="line"/>
		</contour>
		<contour>
			<point x="395" y="439" type="line"/>
			<point x="504" y="725" type="line"/>
			<point x="504" y="735" type="line"/>
			<point x="337" y="735" type="line"/>
			<point x="257" y="439" type="line"/>
		</contour>
	</outline>
</glyph>
<glyph name="quotedblbase" format="2">
	<advance width="506"/>
	<unicode hex="201E"/>
	<note>
		quotedblbase
	</note>
	<outline>
		<contour>
			<point x="112" y="-124" type="line"/>
			<point x="221" y="162" type="line"/>
			<point x="221" y="172" type="line"/>
			<point x="54" y="172" type="line"/>
			<point x="-26" y="-124" type="line"/>
		</contour>
		<contour>
			<point x="352" y="-124" type="line"/>
			<point x="461" y="162" type="line"/>
			<point x="461" y="172" type="line"/>
			<point x="294" y="172" type="line"/>
			<point x="214" y="-124" type="line"/>
		</contour>
	</outline>
</glyph>
<glyph name="dagger" format="2">
	<advance width="570"/>
	<unicode hex="2020"/>
	<note>
		dagger
	</note>
	<outline>
		<contour>
			<point x="355" y="342" type="line"/>
			<point x="534" y="338" type="line"/>
			<point x="534" y="488" type="line"/>
			<point x="356" y="484" type="line"/>
			<point x="366" y="690" type="line"/>
			<point x="204" y="690" type="line"/>
			<point x="214" y="484" type="line"/>
			<point x="36" y="488" type="line"/>
			<point x="36" y="338" type="line"/>
			<point x="215" y="342" type="line"/>
			<point x="204" y="-160" type="line"/>
			<point x="366" y="-160" type="line"/>
		</contour>
	</outline>
</glyph>
<glyph name="bullet" format="2">
	<advance width="392"/>
	<unicode hex="2022"/>
	<note>
		bullet
	</note>
	<outline>
		<contour>
			<point x="196" y="435" type="curve" smooth="yes"/>
			<point x="118" y="435"/>
			<point x="66" y="383"/>
			<point x="66" y="305" type="curve" smooth="yes"/>
			<point x="66" y="227"/>
			<point x="118" y="175"/>
			<point x="196" y="175" type="curve" smooth="yes"/>
			<point x="274" y="175"/>
			<point x="326" y="227"/>
			<point x="326" y="305" type="curve" smooth="yes"/>
			<point x="326" y="383"/>
			<point x="274" y="435"/>
		</contour>
	</outline>
</glyph>
<glyph name="ellipsis" format="2">
	<advance width="826"/>
	<unicode hex="2026"/>
	<note>
		ellipsis
	</note>
	<outline>
		<contour>
			<point x="42" y="191" type="line"/>
			<point x="42" y="-11" type="line"/>
			<point x="242" y="-11" type="line"/>
			<point x="242" y="191" type="line"/>
		</contour>
		<contour>
			<point x="319" y="191" type="line"/>
			<point x="319" y="-11" type="line"/>
			<point x="519" y="-11" type="line"/>
			<point x="519" y="191" type="line"/>
		</contour>
		<contour>
			<point x="598" y="191" type="line"/>
			<point x="598" y="-11" type="line"/>
			<point x="798" y="-11" type="line"/>
			<point x="798" y="191" type="line"/>
		</contour>
	</outline>
</glyph>
<glyph name="guilsinglright" format="2">
	<advance width="424"/>
	<unicode hex="203A"/>
	<note>
		guilsinglright
	</note>
	<outline>
		<contour>
			<point x="173" y="82" type="line"/>
			<point x="310" y="248" type="line"/>
			<point x="173" y="414" type="line"/>
			<point x="44" y="414" type="line"/>
			<point x="181" y="248" type="line"/>
			<point x="44" y="82" type="line"/>
		</contour>
	</outline>
</glyph>
<glyph name="Euro" format="2">
	<advance width="662"/>
	<unicode hex="20AC"/>
	<note>
		Euro
	</note>
	<outline>
		<contour>
			<point x="313" y="224" type="curve"/>
			<point x="492" y="224" type="line"/>
			<point x="511" y="320" type="line"/>
			<point x="301" y="320" type="line"/>
			<point x="301" y="328"/>
			<point x="301" y="337"/>
			<point x="301" y="346" type="curve" smooth="yes"/>
			<point x="301" y="370" type="line"/>
			<point x="522" y="370" type="line"/>
			<point x="543" y="466" type="line"/>
			<point x="315" y="466" type="line"/>
			<point x="335" y="536"/>
			<point x="376" y="572"/>
			<point x="438" y="572" type="curve" smooth="yes"/>
			<point x="492" y="572"/>
			<point x="527" y="561"/>
			<point x="570" y="531" type="curve"/>
			<point x="632" y="642" type="line"/>
			<point x="594" y="679"/>
			<point x="529" y="704"/>
			<point x="429" y="704" type="curve" smooth="yes"/>
			<point x="285" y="704"/>
			<point x="166" y="629"/>
			<point x="127" y="466" type="curve"/>
			<point x="88" y="466" type="line"/>
			<point x="68" y="370" type="line"/>
			<point x="114" y="370" type="line"/>
			<point x="113" y="361"/>
			<point x="113" y="352"/>
			<point x="113" y="342" type="curve" smooth="yes"/>
			<point x="113" y="320" type="line"/>
			<point x="57" y="320" type="line"/>
			<point x="37" y="224" type="line"/>
			<point x="123" y="224" type="line"/>
			<point x="154" y="54"/>
			<point x="257" y="-14"/>
			<point x="400" y="-14" type="curve" smooth="yes"/>
			<point x="499" y="-14"/>
			<point x="544" y="0"/>
			<point x="593" y="28" type="curve"/>
			<point x="593" y="157" type="line"/>
			<point x="549" y="131"/>
			<point x="501" y="118"/>
			<point x="446" y="118" type="curve" smooth="yes"/>
			<point x="381" y="118"/>
			<point x="334" y="141"/>
		</contour>
	</outline>
</glyph>
<glyph name="trademark" format="2">
	<advance width="537"/>
	<unicode hex="2122"/>
	<note>
		trademark
	</note>
	<outline>
		<contour>
			<point x="226" y="615" type="line"/>
			<point x="226" y="660" type="line"/>
			<point x="22" y="660" type="line"/>
			<point x="22" y="615" type="line"/>
			<point x="94" y="615" type="line"/>
			<point x="94" y="456" type="line"/>
			<point x="154" y="456" type="line"/>
			<point x="154" y="615" type="line"/>
		</contour>
		<contour>
			<point x="494" y="456" type="line"/>
			<point x="494" y="659" type="line"/>
			<point x="407" y="659" type="line"/>
			<point x="374" y="517" type="line"/>
			<point x="341" y="659" type="line"/>
			<point x="250" y="659" type="line"/>
			<point x="250" y="456" type="line"/>
			<point x="310" y="456" type="line"/>
			<point x="309" y="597" type="line"/>
			<point x="342" y="460" type="line"/>
			<point x="404" y="460" type="line"/>
			<point x="436" y="598" type="line"/>
			<point x="434" y="456" type="line"/>
		</contour>
	</outline>
</glyph>
<glyph name="partialdiff" format="2">
	<advance width="662"/>
	<unicode hex="2202"/>
	<note>
		partialdiff
	</note>
	<outline>
		<contour>
			<point x="312" y="758" type="curve" smooth="yes"/>
			<point x="227" y="758"/>
			<point x="172" y="742"/>
			<point x="105" y="702" type="curve"/>
			<point x="159" y="587" type="line"/>
			<point x="199" y="613"/>
			<point x="239" y="626"/>
			<point x="284" y="626" type="curve" smooth="yes"/>
			<point x="371" y="626"/>
			<point x="413" y="578"/>
			<point x="424" y="468" type="curve"/>
			<point x="403" y="495"/>
			<point x="367" y="515"/>
			<point x="299" y="515" type="curve" smooth="yes"/>
			<point x="156" y="515"/>
			<point x="42" y="429"/>
			<point x="42" y="247" type="curve" smooth="yes"/>
			<point x="42" y="68"/>
			<point x="165" y="-14"/>
			<point x="321" y="-14" type="curve" smooth="yes"/>
			<point x="503" y="-14"/>
			<point x="615" y="104"/>
			<point x="615" y="353" type="curve" smooth="yes"/>
			<point x="615" y="611"/>
			<point x="513" y="758"/>
		</contour>
		<contour>
			<point x="328" y="118" type="curve" smooth="yes"/>
			<point x="267" y="118"/>
			<point x="230" y="167"/>
			<point x="230" y="252" type="curve" smooth="yes"/>
			<point x="230" y="333"/>
			<point x="269" y="383"/>
			<point x="336" y="383" type="curve" smooth="yes"/>
			<point x="375" y="383"/>
			<point x="411" y="372"/>
			<point x="431" y="333" type="curve"/>
			<point x="430" y="174"/>
			<point x="397" y="118"/>
		</contour>
	</outline>
</glyph>
<glyph name="product" format="2">
	<advance width="662"/>
	<unicode hex="220F"/>
	<note>
		product
	</note>
	<outline>
		<contour>
			<point x="568" y="550" type="line"/>
			<point x="625" y="550" type="line"/>
			<point x="625" y="690" type="line"/>
			<point x="37" y="690" type="line"/>
			<point x="37" y="550" type="line"/>
			<point x="94" y="550" type="line"/>
			<point x="94" y="-110" type="line"/>
			<point x="274" y="-110" type="line"/>
			<point x="274" y="550" type="line"/>
			<point x="388" y="550" type="line"/>
			<point x="388" y="-110" type="line"/>
			<point x="568" y="-110" type="line"/>
		</contour>
	</outline>
</glyph>
<glyph name="summation" format="2">
	<advance width="662"/>
	<unicode hex="2211"/>
	<note>
		summation
	</note>
	<outline>
		<contour>
			<point x="611" y="-110" type="line"/>
			<point x="611" y="30" type="line"/>
			<point x="280" y="30" type="line"/>
			<point x="505" y="300" type="line"/>
			<point x="308" y="550" type="line"/>
			<point x="605" y="550" type="line"/>
			<point x="605" y="690" type="line"/>
			<point x="82" y="690" type="line"/>
			<point x="82" y="578" type="line"/>
			<point x="297" y="301" type="line"/>
			<point x="52" y="2" type="line"/>
			<point x="52" y="-110" type="line"/>
		</contour>
	</outline>
</glyph>
<glyph name="integral" format="2">
	<advance width="661"/>
	<unicode hex="222B"/>
	<note>
		integral
	</note>
	<outline>
		<contour>
			<point x="378" y="754" type="curve" smooth="yes"/>
			<point x="274" y="754"/>
			<point x="211" y="678"/>
			<point x="211" y="579" type="curve" smooth="yes"/>
			<point x="211" y="505"/>
			<point x="224" y="439"/>
			<point x="276" y="290" type="curve" smooth="yes"/>
			<point x="336" y="119"/>
			<point x="342" y="67"/>
			<point x="342" y="10" type="curve" smooth="yes"/>
			<point x="342" y="-43"/>
			<point x="307" y="-64"/>
			<point x="269" y="-64" type="curve" smooth="yes"/>
			<point x="244" y="-64"/>
			<point x="225" y="-60"/>
			<point x="204" y="-48" type="curve"/>
			<point x="189" y="-138" type="line"/>
			<point x="215" y="-155"/>
			<point x="244" y="-160"/>
			<point x="283" y="-160" type="curve" smooth="yes"/>
			<point x="387" y="-160"/>
			<point x="450" y="-84"/>
			<point x="450" y="15" type="curve" smooth="yes"/>
			<point x="450" y="89"/>
			<point x="437" y="155"/>
			<point x="385" y="304" type="curve" smooth="yes"/>
			<point x="325" y="475"/>
			<point x="319" y="527"/>
			<point x="319" y="584" type="curve" smooth="yes"/>
			<point x="319" y="637"/>
			<point x="354" y="658"/>
			<point x="392" y="658" type="curve" smooth="yes"/>
			<point x="417" y="658"/>
			<point x="436" y="654"/>
			<point x="457" y="642" type="curve"/>
			<point x="472" y="732" type="line"/>
			<point x="446" y="749"/>
			<point x="417" y="754"/>
		</contour>
	</outline>
</glyph>
<glyph name="lessequal" format="2">
	<advance width="662"/>
	<unicode hex="2264"/>
	<note>
		lessequal
	</note>
	<outline>
		<contour>
			<point x="220" y="320" type="line"/>
			<point x="560" y="410" type="line"/>
			<point x="560" y="520" type="line"/>
			<point x="120" y="388" type="line"/>
			<point x="120" y="252" type="line"/>
			<point x="560" y="120" type="line"/>
			<point x="560" y="224" type="line"/>
		</contour>
		<contour>
			<point x="560" y="96" type="line"/>
			<point x="120" y="96" type="line"/>
			<point x="120" y="0" type="line"/>
			<point x="560" y="0" type="line"/>
		</contour>
	</outline>
</glyph>
<glyph name="fi" format="2">
	<advance width="666"/>
	<unicode hex="FB01"/>
	<note>
		fi
	</note>
	<outline>
		<contour>
			<point x="612" y="0" type="line"/>
			<point x="612" y="530" type="line"/>
			<point x="256" y="530" type="line"/>
			<point x="256" y="534" type="line" smooth="yes"/>
			<point x="256" y="547"/>
			<point x="256" y="560"/>
			<point x="257" y="574" type="curve" smooth="yes"/>
			<point x="262" y="621"/>
			<point x="297" y="637"/>
			<point x="432" y="629" type="curve"/>
			<point x="432" y="746" type="line"/>
			<point x="404" y="751"/>
			<point x="383" y="754"/>
			<point x="342" y="754" type="curve" smooth="yes"/>
			<point x="147" y="754"/>
			<point x="85" y="692"/>
			<point x="77" y="592" type="curve" smooth="yes"/>
			<point x="76" y="574"/>
			<point x="76" y="550"/>
			<point x="76" y="534" type="curve" smooth="yes"/>
			<point x="76" y="530" type="line"/>
			<point x="19" y="530" type="line"/>
			<point x="19" y="418" type="line"/>
			<point x="76" y="418" type="line"/>
			<point x="76" y="0" type="line"/>
			<point x="256" y="0" type="line"/>
			<point x="256" y="418" type="line"/>
			<point x="432" y="418" type="line"/>
			<point x="432" y="0" type="line"/>
		</contour>
	</outline>
</glyph>
<glyph name="A_E" format="2">
	<advance width="984"/>
	<unicode hex="F1010"/>
	<outline>
		<contour>
			<point x="253" y="179" type="line"/>
			<point x="425" y="179" type="line"/>
			<point x="425" y="-97" type="line"/>
			<point x="954" y="-97" type="line"/>
			<point x="954" y="43" type="line"/>
			<point x="605" y="43" type="line"/>
			<point x="605" y="179" type="line"/>
			<point x="924" y="179" type="line"/>
			<point x="924" y="319" type="line"/>
			<point x="605" y="319" type="line"/>
			<point x="605" y="453" type="line"/>
			<point x="944" y="453" type="line"/>
			<point x="944" y="593" type="line"/>
			<point x="507" y="593" type="line"/>
			<point x="473" y="690" type="line"/>
			<point x="253" y="690" type="line"/>
			<point x="4" y="0" type="line"/>
			<point x="195" y="0" type="line"/>
		</contour>
		<contour>
			<point x="297" y="319" type="line"/>
			<point x="361" y="531" type="line"/>
			<point x="425" y="319" type="line"/>
		</contour>
	</outline>
</glyph>
<glyph name="A_O" format="2">
	<advance width="1169"/>
	<unicode hex="F1030"/>
	<outline>
		<contour>
			<point x="253" y="179" type="line"/>
			<point x="467" y="179" type="line"/>
			<point x="519" y="57"/>
			<point x="634" y="-14"/>
			<point x="788" y="-14" type="curve" smooth="yes"/>
			<point x="1003" y="-14"/>
			<point x="1141" y="124"/>
			<point x="1141" y="345" type="curve" smooth="yes"/>
			<point x="1141" y="567"/>
			<point x="1003" y="704"/>
			<point x="788" y="704" type="curve" smooth="yes"/>
			<point x="668" y="704"/>
			<point x="571" y="661"/>
			<point x="510" y="584" type="curve"/>
			<point x="473" y="690" type="line"/>
			<point x="253" y="690" type="line"/>
			<point x="4" y="0" type="line"/>
			<point x="195" y="0" type="line"/>
		</contour>
		<contour>
			<point x="297" y="319" type="line"/>
			<point x="361" y="531" type="line"/>
			<point x="425" y="319" type="line"/>
		</contour>
		<contour>
			<point x="619" y="345" type="curve" smooth="yes"/>
			<point x="619" y="492"/>
			<point x="684" y="572"/>
			<point x="788" y="572" type="curve" smooth="yes"/>
			<point x="892" y="572"/>
			<point x="957" y="492"/>
			<point x="957" y="345" type="curve" smooth="yes"/>
			<point x="957" y="199"/>
			<point x="892" y="118"/>
			<point x="788" y="118" type="curve" smooth="yes"/>
			<point x="684" y="118"/>
			<point x="619" y="199"/>
		</contour>
	</outline>
</glyph>
<glyph name="a_e" format="2">
	<advance width="931"/>
	<unicode hex="F1110"/>
	<outline>
		<contour>
			<point x="355" y="78" type="line"/>
			<point x="367" y="0" type="line"/>
			<point x="543" y="0" type="line"/>
			<point x="535" y="59"/>
			<point x="533" y="95"/>
			<point x="533" y="135" type="curve" smooth="yes"/>
			<point x="533" y="222" type="line"/>
			<point x="904" y="222" type="line"/>
			<point x="906" y="240"/>
			<point x="907" y="258"/>
			<point x="907" y="274" type="curve" smooth="yes"/>
			<point x="907" y="412"/>
			<point x="817" y="548"/>
			<point x="639" y="548" type="curve" smooth="yes"/>
			<point x="572" y="548"/>
			<point x="516" y="530"/>
			<point x="471" y="500" type="curve"/>
			<point x="434" y="530"/>
			<point x="378" y="548"/>
			<point x="295" y="548" type="curve" smooth="yes"/>
			<point x="160" y="548"/>
			<point x="49" y="477"/>
			<point x="48" y="352" type="curve"/>
			<point x="218" y="353" type="line"/>
			<point x="221" y="399"/>
			<point x="245" y="426"/>
			<point x="287" y="426" type="curve" smooth="yes"/>
			<point x="326" y="426"/>
			<point x="348" y="402"/>
			<point x="351" y="375" type="curve" smooth="yes"/>
			<point x="353" y="358"/>
			<point x="353" y="347"/>
			<point x="353" y="336" type="curve" smooth="yes"/>
			<point x="353" y="328" type="line"/>
			<point x="319" y="328" type="line" smooth="yes"/>
			<point x="138" y="328"/>
			<point x="30" y="258"/>
			<point x="30" y="144" type="curve" smooth="yes"/>
			<point x="30" y="41"/>
			<point x="113" y="-14"/>
			<point x="201" y="-14" type="curve" smooth="yes"/>
			<point x="250" y="-14"/>
			<point x="295" y="-2"/>
			<point x="333" y="22" type="curve"/>
		</contour>
		<contour>
			<point x="214" y="158" type="curve" smooth="yes"/>
			<point x="214" y="211"/>
			<point x="272" y="232"/>
			<point x="353" y="226" type="curve"/>
			<point x="353" y="191" type="line" smooth="yes"/>
			<point x="353" y="135"/>
			<point x="311" y="108"/>
			<point x="275" y="108" type="curve" smooth="yes"/>
			<point x="239" y="108"/>
			<point x="214" y="126"/>
		</contour>
		<contour>
			<point x="538" y="332" type="line"/>
			<point x="550" y="398"/>
			<point x="583" y="426"/>
			<point x="630" y="426" type="curve" smooth="yes"/>
			<point x="678" y="426"/>
			<point x="709" y="395"/>
			<point x="719" y="332" type="curve"/>
		</contour>
	</outline>
</glyph>
<glyph name="C_H" format="2">
	<advance width="1029"/>
	<unicode hex="F1410"/>
	<outline>
		<contour>
			<point x="395" y="704" type="curve" smooth="yes"/>
			<point x="208" y="704"/>
			<point x="54" y="580"/>
			<point x="54" y="340" type="curve" smooth="yes"/>
			<point x="54" y="106"/>
			<point x="203" y="-14"/>
			<point x="388" y="-14" type="curve" smooth="yes"/>
			<point x="561" y="-14"/>
			<point x="688" y="71"/>
			<point x="705" y="237" type="curve" smooth="yes"/>
			<point x="706" y="247" type="line"/>
			<point x="526" y="247" type="line"/>
			<point x="524" y="237" type="line" smooth="yes"/>
			<point x="509" y="161"/>
			<point x="464" y="118"/>
			<point x="394" y="118" type="curve" smooth="yes"/>
			<point x="314" y="118"/>
			<point x="242" y="177"/>
			<point x="242" y="351" type="curve" smooth="yes"/>
			<point x="242" y="500"/>
			<point x="307" y="572"/>
			<point x="393" y="572" type="curve" smooth="yes"/>
			<point x="466" y="572"/>
			<point x="511" y="537"/>
			<point x="526" y="463" type="curve" smooth="yes"/>
			<point x="528" y="453" type="line"/>
			<point x="708" y="453" type="line"/>
			<point x="707" y="463" type="line" smooth="yes"/>
			<point x="693" y="599"/>
			<point x="592" y="704"/>
		</contour>
		<contour>
			<point x="526" y="280" type="line"/>
			<point x="795" y="280" type="line"/>
			<point x="795" y="0" type="line"/>
			<point x="975" y="0" type="line"/>
			<point x="975" y="690" type="line"/>
			<point x="795" y="690" type="line"/>
			<point x="795" y="420" type="line"/>
			<point x="526" y="420" type="line"/>
		</contour>
	</outline>
</glyph>
<glyph name="c_h" format="2">
	<advance width="977"/>
	<unicode hex="F1510"/>
	<outline>
		<contour>
			<point x="305" y="548" type="curve" smooth="yes"/>
			<point x="148" y="548"/>
			<point x="24" y="445"/>
			<point x="24" y="261" type="curve" smooth="yes"/>
			<point x="24" y="85"/>
			<point x="140" y="-14"/>
			<point x="293" y="-14" type="curve" smooth="yes"/>
			<point x="438" y="-14"/>
			<point x="545" y="58"/>
			<point x="565" y="196" type="curve"/>
			<point x="388" y="196" type="line"/>
			<point x="378" y="138"/>
			<point x="344" y="108"/>
			<point x="303" y="108" type="curve" smooth="yes"/>
			<point x="242" y="108"/>
			<point x="208" y="158"/>
			<point x="208" y="272" type="curve" smooth="yes"/>
			<point x="208" y="375"/>
			<point x="241" y="426"/>
			<point x="301" y="426" type="curve" smooth="yes"/>
			<point x="346" y="426"/>
			<point x="381" y="400"/>
			<point x="389" y="330" type="curve"/>
			<point x="563" y="330" type="line" smooth="yes"/>
			<point x="565" y="330"/>
			<point x="606" y="426"/>
			<point x="661" y="426" type="curve" smooth="yes"/>
			<point x="715" y="426"/>
			<point x="743" y="396"/>
			<point x="747" y="345" type="curve" smooth="yes"/>
			<point x="749" y="318"/>
			<point x="749" y="289"/>
			<point x="749" y="272" type="curve" smooth="yes"/>
			<point x="749" y="0" type="line"/>
			<point x="929" y="0" type="line"/>
			<point x="929" y="302" type="line" smooth="yes"/>
			<point x="929" y="345"/>
			<point x="928" y="376"/>
			<point x="924" y="403" type="curve" smooth="yes"/>
			<point x="910" y="496"/>
			<point x="845" y="548"/>
			<point x="735" y="548" type="curve" smooth="yes"/>
			<point x="686" y="548"/>
			<point x="648" y="537"/>
			<point x="615" y="517" type="curve"/>
			<point x="567" y="451" type="line"/>
			<point x="567" y="740" type="line"/>
			<point x="387" y="740" type="line"/>
			<point x="388" y="538" type="line"/>
			<point x="363" y="544"/>
			<point x="335" y="548"/>
		</contour>
	</outline>
</glyph>
<glyph name="c_q" format="2">
	<advance width="1029"/>
	<unicode hex="F1540"/>
	<outline>
		<contour>
			<point x="305" y="548" type="curve" smooth="yes"/>
			<point x="148" y="548"/>
			<point x="24" y="445"/>
			<point x="24" y="261" type="curve" smooth="yes"/>
			<point x="24" y="85"/>
			<point x="140" y="-14"/>
			<point x="293" y="-14" type="curve" smooth="yes"/>
			<point x="364" y="-14"/>
			<point x="425" y="3"/>
			<point x="472" y="36" type="curve"/>
			<point x="510" y="4"/>
			<point x="560" y="-14"/>
			<point x="619" y="-14" type="curve" smooth="yes"/>
			<point x="673" y="-14"/>
			<point x="725" y="-3"/>
			<point x="755" y="19" type="curve"/>
			<point x="795" y="78" type="line"/>
			<point x="795" y="-196" type="line"/>
			<point x="975" y="-196" type="line"/>
			<point x="975" y="534" type="line"/>
			<point x="795" y="534" type="line"/>
			<point x="795" y="465" type="line"/>
			<point x="760" y="522" type="line"/>
			<point x="733" y="538"/>
			<point x="681" y="548"/>
			<point x="637" y="548" type="curve" smooth="yes"/>
			<point x="578" y="548"/>
			<point x="524" y="529"/>
			<point x="480" y="493" type="curve"/>
			<point x="437" y="527"/>
			<point x="377" y="548"/>
		</contour>
		<contour>
			<point x="208" y="272" type="curve" smooth="yes"/>
			<point x="208" y="375"/>
			<point x="241" y="426"/>
			<point x="301" y="426" type="curve" smooth="yes"/>
			<point x="346" y="426"/>
			<point x="381" y="400"/>
			<point x="389" y="330" type="curve"/>
			<point x="575" y="330" type="line"/>
			<point x="591" y="394"/>
			<point x="632" y="426"/>
			<point x="686" y="426" type="curve" smooth="yes"/>
			<point x="740" y="426"/>
			<point x="795" y="390"/>
			<point x="795" y="283" type="curve" smooth="yes"/>
			<point x="795" y="260" type="line" smooth="yes"/>
			<point x="795" y="148"/>
			<point x="747" y="108"/>
			<point x="681" y="108" type="curve" smooth="yes"/>
			<point x="634" y="108"/>
			<point x="594" y="139"/>
			<point x="577" y="196" type="curve"/>
			<point x="388" y="196" type="line"/>
			<point x="378" y="138"/>
			<point x="344" y="108"/>
			<point x="303" y="108" type="curve" smooth="yes"/>
			<point x="242" y="108"/>
			<point x="208" y="158"/>
		</contour>
	</outline>
</glyph>
<glyph name="D_E" format="2">
	<advance width="1092"/>
	<unicode hex="F1610"/>
	<outline>
		<contour>
			<point x="381" y="142" type="curve" smooth="yes"/>
			<point x="358" y="140"/>
			<point x="342" y="140"/>
			<point x="316" y="140" type="curve" smooth="yes"/>
			<point x="260" y="140" type="line"/>
			<point x="260" y="550" type="line"/>
			<point x="316" y="550" type="line" smooth="yes"/>
			<point x="342" y="550"/>
			<point x="358" y="550"/>
			<point x="381" y="548" type="curve" smooth="yes"/>
			<point x="471" y="540"/>
			<point x="533" y="474"/>
			<point x="533" y="351" type="curve" smooth="yes"/>
			<point x="533" y="228"/>
			<point x="471" y="150"/>
		</contour>
		<contour>
			<point x="80" y="0" type="line"/>
			<point x="1062" y="0" type="line"/>
			<point x="1062" y="140" type="line"/>
			<point x="663" y="140" type="line"/>
			<point x="688" y="178"/>
			<point x="706" y="223"/>
			<point x="715" y="276" type="curve"/>
			<point x="1032" y="276" type="line"/>
			<point x="1032" y="416" type="line"/>
			<point x="717" y="416" type="line"/>
			<point x="710" y="469"/>
			<point x="694" y="513"/>
			<point x="670" y="550" type="curve"/>
			<point x="1052" y="550" type="line"/>
			<point x="1052" y="690" type="line"/>
			<point x="80" y="690" type="line"/>
		</contour>
	</outline>
</glyph>
<glyph name="d_e" format="2">
	<advance width="1012"/>
	<unicode hex="F1710"/>
	<outline>
		<contour>
			<point x="615" y="0" type="line"/>
			<point x="615" y="222" type="line"/>
			<point x="985" y="222" type="line"/>
			<point x="987" y="240"/>
			<point x="988" y="258"/>
			<point x="988" y="274" type="curve" smooth="yes"/>
			<point x="988" y="412"/>
			<point x="898" y="548"/>
			<point x="720" y="548" type="curve" smooth="yes"/>
			<point x="682" y="548"/>
			<point x="646" y="542"/>
			<point x="615" y="531" type="curve"/>
			<point x="615" y="735" type="line"/>
			<point x="435" y="735" type="line"/>
			<point x="435" y="465" type="line"/>
			<point x="400" y="522" type="line"/>
			<point x="373" y="538"/>
			<point x="321" y="548"/>
			<point x="277" y="548" type="curve" smooth="yes"/>
			<point x="140" y="548"/>
			<point x="24" y="445"/>
			<point x="24" y="255" type="curve" smooth="yes"/>
			<point x="24" y="97"/>
			<point x="114" y="-14"/>
			<point x="259" y="-14" type="curve" smooth="yes"/>
			<point x="313" y="-14"/>
			<point x="365" y="-3"/>
			<point x="395" y="19" type="curve"/>
			<point x="435" y="78" type="line"/>
			<point x="435" y="0" type="line"/>
		</contour>
		<contour>
			<point x="208" y="264" type="curve" smooth="yes"/>
			<point x="208" y="373"/>
			<point x="256" y="426"/>
			<point x="326" y="426" type="curve" smooth="yes"/>
			<point x="380" y="426"/>
			<point x="435" y="390"/>
			<point x="435" y="283" type="curve" smooth="yes"/>
			<point x="435" y="260" type="line" smooth="yes"/>
			<point x="435" y="148"/>
			<point x="387" y="108"/>
			<point x="321" y="108" type="curve" smooth="yes"/>
			<point x="258" y="108"/>
			<point x="208" y="164"/>
		</contour>
		<contour>
			<point x="619" y="332" type="line"/>
			<point x="631" y="398"/>
			<point x="664" y="426"/>
			<point x="711" y="426" type="curve" smooth="yes"/>
			<point x="759" y="426"/>
			<point x="790" y="395"/>
			<point x="800" y="332" type="curve"/>
		</contour>
	</outline>
</glyph>
<glyph name="e_u" format="2">
	<advance width="985"/>
	<unicode hex="F19A0"/>
	<outline>
		<contour>
			<point x="577" y="274" type="curve" smooth="yes"/>
			<point x="577" y="412"/>
			<point x="487" y="548"/>
			<point x="309" y="548" type="curve" smooth="yes"/>
			<point x="131" y="548"/>
			<point x="24" y="421"/>
			<point x="24" y="265" type="curve" smooth="yes"/>
			<point x="24" y="77"/>
			<point x="146" y="-14"/>
			<point x="299" y="-14" type="curve" smooth="yes"/>
			<point x="359" y="-14"/>
			<point x="412" y="-1"/>
			<point x="455" y="24" type="curve"/>
			<point x="487" y="1"/>
			<point x="530" y="-14"/>
			<point x="583" y="-14" type="curve" smooth="yes"/>
			<point x="632" y="-14"/>
			<point x="670" y="-3"/>
			<point x="703" y="17" type="curve"/>
			<point x="751" y="90" type="line"/>
			<point x="751" y="0" type="line"/>
			<point x="931" y="0" type="line"/>
			<point x="931" y="534" type="line"/>
			<point x="751" y="534" type="line"/>
			<point x="751" y="232" type="line" smooth="yes"/>
			<point x="751" y="161"/>
			<point x="717" y="108"/>
			<point x="660" y="108" type="curve" smooth="yes"/>
			<point x="603" y="108"/>
			<point x="579" y="138"/>
			<point x="569" y="175" type="curve"/>
			<point x="389" y="175" type="line"/>
			<point x="389" y="171" type="line"/>
			<point x="381" y="133"/>
			<point x="351" y="108"/>
			<point x="301" y="108" type="curve" smooth="yes"/>
			<point x="250" y="108"/>
			<point x="211" y="133"/>
			<point x="202" y="222" type="curve"/>
			<point x="574" y="222" type="line"/>
			<point x="576" y="240"/>
			<point x="577" y="258"/>
		</contour>
		<contour>
			<point x="208" y="332" type="line"/>
			<point x="220" y="398"/>
			<point x="253" y="426"/>
			<point x="300" y="426" type="curve" smooth="yes"/>
			<point x="348" y="426"/>
			<point x="379" y="395"/>
			<point x="389" y="332" type="curve"/>
		</contour>
	</outline>
</glyph>
<glyph name="E_T_E" format="2">
	<advance width="1436"/>
	<unicode hex="F1A00"/>
	<outline>
		<contour>
			<point x="609" y="0" type="line"/>
			<point x="609" y="140" type="line"/>
			<point x="260" y="140" type="line"/>
			<point x="260" y="276" type="line"/>
			<point x="579" y="276" type="line"/>
			<point x="579" y="416" type="line"/>
			<point x="260" y="416" type="line"/>
			<point x="260" y="550" type="line"/>
			<point x="599" y="550" type="line"/>
			<point x="599" y="690" type="line"/>
			<point x="80" y="690" type="line"/>
			<point x="80" y="0" type="line"/>
		</contour>
		<contour>
			<point x="190" y="760" type="line"/>
			<point x="490" y="760" type="line"/>
			<point x="490" y="856" type="line"/>
			<point x="190" y="856" type="line"/>
		</contour>
		<contour>
			<point x="653" y="550" type="line"/>
			<point x="877" y="550" type="line"/>
			<point x="877" y="-276" type="line"/>
			<point x="1406" y="-276" type="line"/>
			<point x="1406" y="-136" type="line"/>
			<point x="1057" y="-136" type="line"/>
			<point x="1057" y="0" type="line"/>
			<point x="1376" y="0" type="line"/>
			<point x="1376" y="140" type="line"/>
			<point x="1057" y="140" type="line"/>
			<point x="1057" y="274" type="line"/>
			<point x="1396" y="274" type="line"/>
			<point x="1396" y="414" type="line"/>
			<point x="1057" y="414" type="line"/>
			<point x="1057" y="550" type="line"/>
			<point x="1281" y="550" type="line"/>
			<point x="1281" y="690" type="line"/>
			<point x="653" y="690" type="line"/>
		</contour>
	</outline>
</glyph>
<glyph name="I_L" format="2">
	<advance width="945"/>
	<unicode hex="F2640"/>
	<outline>
		<contour>
			<point x="926" y="0" type="line"/>
			<point x="926" y="152" type="line"/>
			<point x="577" y="152" type="line"/>
			<point x="577" y="690" type="line"/>
			<point x="397" y="690" type="line"/>
			<point x="397" y="0" type="line"/>
		</contour>
		<contour>
			<point x="81" y="156" type="line"/>
			<point x="261" y="156" type="line"/>
			<point x="261" y="690" type="line"/>
			<point x="81" y="690" type="line"/>
		</contour>
		<contour>
			<point x="80" y="904" type="line"/>
			<point x="80" y="728" type="line"/>
			<point x="263" y="728" type="line"/>
			<point x="263" y="904" type="line"/>
		</contour>
	</outline>
</glyph>
<glyph name="i_e" format="2">
	<advance width="628"/>
	<unicode hex="F2710"/>
	<outline>
		<contour>
			<point x="54" y="0" type="line"/>
			<point x="234" y="0" type="line"/>
			<point x="234" y="222" type="line"/>
			<point x="601" y="222" type="line"/>
			<point x="603" y="240"/>
			<point x="604" y="258"/>
			<point x="604" y="274" type="curve" smooth="yes"/>
			<point x="604" y="412"/>
			<point x="514" y="548"/>
			<point x="336" y="548" type="curve" smooth="yes"/>
			<point x="298" y="548"/>
			<point x="264" y="543"/>
			<point x="234" y="534" type="curve"/>
			<point x="54" y="534" type="line"/>
		</contour>
		<contour>
			<point x="53" y="572" type="line"/>
			<point x="236" y="572" type="line"/>
			<point x="236" y="748" type="line"/>
			<point x="53" y="748" type="line"/>
		</contour>
		<contour>
			<point x="235" y="332" type="line"/>
			<point x="247" y="398"/>
			<point x="280" y="426"/>
			<point x="327" y="426" type="curve" smooth="yes"/>
			<point x="375" y="426"/>
			<point x="406" y="395"/>
			<point x="416" y="332" type="curve"/>
		</contour>
	</outline>
</glyph>
<glyph name="i_l" format="2">
	<advance width="532"/>
	<unicode hex="F2740"/>
	<outline>
		<contour>
			<point x="54" y="0" type="line"/>
			<point x="234" y="0" type="line"/>
			<point x="234" y="534" type="line"/>
			<point x="54" y="534" type="line"/>
		</contour>
		<contour>
			<point x="53" y="572" type="line"/>
			<point x="236" y="572" type="line"/>
			<point x="236" y="748" type="line"/>
			<point x="53" y="748" type="line"/>
		</contour>
		<contour>
			<point x="276" y="5" type="curve"/>
			<point x="276" y="127" type="line"/>
			<point x="323" y="125"/>
			<point x="332" y="132"/>
			<point x="336" y="153" type="curve" smooth="yes"/>
			<point x="337" y="166"/>
			<point x="337" y="177"/>
			<point x="337" y="202" type="curve" smooth="yes"/>
			<point x="337" y="745" type="line"/>
			<point x="518" y="745" type="line"/>
			<point x="518" y="199" type="line" smooth="yes"/>
			<point x="518" y="159"/>
			<point x="518" y="132"/>
			<point x="516" y="104" type="curve" smooth="yes"/>
			<point x="512" y="33"/>
			<point x="464" y="0"/>
			<point x="382" y="0" type="curve" smooth="yes"/>
			<point x="341" y="0"/>
			<point x="310" y="2"/>
		</contour>
	</outline>
</glyph>
<glyph name="L_L_E" format="2">
	<advance width="1336"/>
	<unicode hex="F3230"/>
	<outline>
		<contour>
			<point x="609" y="280" type="line"/>
			<point x="609" y="420" type="line"/>
			<point x="608" y="420" type="line"/>
			<point x="608" y="690" type="line"/>
			<point x="428" y="690" type="line"/>
			<point x="428" y="420" type="line"/>
			<point x="260" y="420" type="line"/>
			<point x="260" y="958" type="line"/>
			<point x="80" y="958" type="line"/>
			<point x="80" y="280" type="line"/>
			<point x="428" y="280" type="line"/>
			<point x="428" y="0" type="line"/>
			<point x="1306" y="0" type="line"/>
			<point x="1306" y="140" type="line"/>
			<point x="957" y="140" type="line"/>
			<point x="957" y="276" type="line"/>
			<point x="1276" y="276" type="line"/>
			<point x="1276" y="416" type="line"/>
			<point x="957" y="416" type="line"/>
			<point x="957" y="550" type="line"/>
			<point x="1296" y="550" type="line"/>
			<point x="1296" y="690" type="line"/>
			<point x="777" y="690" type="line"/>
			<point x="777" y="140" type="line"/>
			<point x="608" y="140" type="line"/>
			<point x="608" y="280" type="line"/>
		</contour>
	</outline>
</glyph>
<glyph name="L_U" format="2">
	<advance width="1251"/>
	<unicode hex="F3250"/>
	<outline>
		<contour>
			<point x="1213" y="87" type="curve" smooth="yes"/>
			<point x="1213" y="474" type="line"/>
			<point x="1033" y="474" type="line"/>
			<point x="1033" y="54" type="line" smooth="yes"/>
			<point x="1033" y="35"/>
			<point x="1033" y="25"/>
			<point x="1032" y="13" type="curve" smooth="yes"/>
			<point x="1027" y="-59"/>
			<point x="986" y="-98"/>
			<point x="907" y="-98" type="curve" smooth="yes"/>
			<point x="828" y="-98"/>
			<point x="787" y="-59"/>
			<point x="782" y="13" type="curve" smooth="yes"/>
			<point x="781" y="25"/>
			<point x="781" y="35"/>
			<point x="781" y="54" type="curve" smooth="yes"/>
			<point x="781" y="335" type="line"/>
			<point x="601" y="335" type="line"/>
			<point x="601" y="152" type="line"/>
			<point x="260" y="152" type="line"/>
			<point x="260" y="690" type="line"/>
			<point x="80" y="690" type="line"/>
			<point x="80" y="0" type="line"/>
			<point x="603" y="0" type="line"/>
			<point x="604" y="-3"/>
			<point x="604" y="-7"/>
			<point x="604" y="-10" type="curve" smooth="yes"/>
			<point x="612" y="-126"/>
			<point x="694" y="-230"/>
			<point x="907" y="-230" type="curve" smooth="yes"/>
			<point x="1120" y="-230"/>
			<point x="1202" y="-126"/>
			<point x="1210" y="-10" type="curve" smooth="yes"/>
			<point x="1213" y="31"/>
			<point x="1213" y="52"/>
		</contour>
	</outline>
</glyph>
<glyph name="l_e" format="2">
	<advance width="628"/>
	<unicode hex="F3310"/>
	<outline>
		<contour>
			<point x="230" y="192" type="curve" smooth="yes"/>
			<point x="230" y="222" type="line"/>
			<point x="601" y="222" type="line"/>
			<point x="603" y="240"/>
			<point x="604" y="258"/>
			<point x="604" y="274" type="curve" smooth="yes"/>
			<point x="604" y="412"/>
			<point x="514" y="548"/>
			<point x="336" y="548" type="curve" smooth="yes"/>
			<point x="297" y="548"/>
			<point x="262" y="542"/>
			<point x="230" y="531" type="curve"/>
			<point x="230" y="735" type="line"/>
			<point x="50" y="735" type="line"/>
			<point x="50" y="189" type="line" smooth="yes"/>
			<point x="50" y="149"/>
			<point x="50" y="122"/>
			<point x="52" y="94" type="curve" smooth="yes"/>
			<point x="56" y="23"/>
			<point x="103" y="-10"/>
			<point x="186" y="-10" type="curve" smooth="yes"/>
			<point x="226" y="-10"/>
			<point x="258" y="-8"/>
			<point x="291" y="-5" type="curve"/>
			<point x="291" y="117" type="line"/>
			<point x="244" y="115"/>
			<point x="235" y="122"/>
			<point x="232" y="143" type="curve" smooth="yes"/>
			<point x="230" y="156"/>
			<point x="230" y="167"/>
		</contour>
		<contour>
			<point x="235" y="332" type="line"/>
			<point x="247" y="398"/>
			<point x="280" y="426"/>
			<point x="327" y="426" type="curve" smooth="yes"/>
			<point x="375" y="426"/>
			<point x="406" y="395"/>
			<point x="416" y="332" type="curve"/>
		</contour>
	</outline>
</glyph>
<glyph name="m_p" format="2">
	<advance width="1353"/>
	<unicode hex="F3510"/>
	<outline>
		<contour>
			<point x="1094" y="548" type="curve" smooth="yes"/>
			<point x="1040" y="548"/>
			<point x="988" y="537"/>
			<point x="958" y="515" type="curve"/>
			<point x="918" y="456" type="line"/>
			<point x="907" y="438" type="line"/>
			<point x="887" y="499"/>
			<point x="829" y="548"/>
			<point x="734" y="548" type="curve" smooth="yes"/>
			<point x="685" y="548"/>
			<point x="652" y="537"/>
			<point x="619" y="517" type="curve"/>
			<point x="563" y="444" type="line"/>
			<point x="540" y="503"/>
			<point x="483" y="548"/>
			<point x="392" y="548" type="curve" smooth="yes"/>
			<point x="343" y="548"/>
			<point x="310" y="537"/>
			<point x="277" y="517" type="curve"/>
			<point x="234" y="448" type="line"/>
			<point x="234" y="534" type="line"/>
			<point x="54" y="534" type="line"/>
			<point x="54" y="0" type="line"/>
			<point x="234" y="0" type="line"/>
			<point x="234" y="282" type="line" smooth="yes"/>
			<point x="234" y="373"/>
			<point x="257" y="426"/>
			<point x="315" y="426" type="curve" smooth="yes"/>
			<point x="362" y="426"/>
			<point x="386" y="396"/>
			<point x="392" y="345" type="curve" smooth="yes"/>
			<point x="395" y="318"/>
			<point x="396" y="289"/>
			<point x="396" y="272" type="curve" smooth="yes"/>
			<point x="396" y="0" type="line"/>
			<point x="576" y="0" type="line"/>
			<point x="576" y="282" type="line" smooth="yes"/>
			<point x="576" y="373"/>
			<point x="599" y="426"/>
			<point x="657" y="426" type="curve" smooth="yes"/>
			<point x="704" y="426"/>
			<point x="728" y="396"/>
			<point x="734" y="345" type="curve" smooth="yes"/>
			<point x="737" y="318"/>
			<point x="738" y="289"/>
			<point x="738" y="272" type="curve" smooth="yes"/>
			<point x="738" y="-196" type="line"/>
			<point x="918" y="-196" type="line"/>
			<point x="918" y="69" type="line"/>
			<point x="953" y="12" type="line"/>
			<point x="980" y="-4"/>
			<point x="1032" y="-14"/>
			<point x="1076" y="-14" type="curve" smooth="yes"/>
			<point x="1213" y="-14"/>
			<point x="1329" y="89"/>
			<point x="1329" y="279" type="curve" smooth="yes"/>
			<point x="1329" y="437"/>
			<point x="1239" y="548"/>
		</contour>
		<contour>
			<point x="918" y="251" type="curve" smooth="yes"/>
			<point x="918" y="274" type="line" smooth="yes"/>
			<point x="918" y="386"/>
			<point x="966" y="426"/>
			<point x="1032" y="426" type="curve" smooth="yes"/>
			<point x="1095" y="426"/>
			<point x="1145" y="370"/>
			<point x="1145" y="270" type="curve" smooth="yes"/>
			<point x="1145" y="161"/>
			<point x="1097" y="108"/>
			<point x="1027" y="108" type="curve" smooth="yes"/>
			<point x="973" y="108"/>
			<point x="918" y="144"/>
		</contour>
	</outline>
</glyph>
<glyph name="N_A" format="2">
	<advance width="1087"/>
	<unicode hex="F3610"/>
	<outline>
		<contour>
			<point x="505" y="0" type="line"/>
			<point x="740" y="0" type="line"/>
			<point x="740" y="179" type="line"/>
			<point x="848" y="179" type="line"/>
			<point x="906" y="0" type="line"/>
			<point x="1102" y="0" type="line"/>
			<point x="853" y="690" type="line"/>
			<point x="560" y="690" type="line"/>
			<point x="560" y="395" type="line" smooth="yes"/>
			<point x="560" y="355"/>
			<point x="561" y="284"/>
			<point x="566" y="214" type="curve"/>
			<point x="304" y="690" type="line"/>
			<point x="80" y="690" type="line"/>
			<point x="80" y="0" type="line"/>
			<point x="260" y="0" type="line"/>
			<point x="260" y="285" type="line" smooth="yes"/>
			<point x="260" y="325"/>
			<point x="260" y="386"/>
			<point x="254" y="456" type="curve"/>
		</contour>
		<contour>
			<point x="740" y="319" type="line"/>
			<point x="740" y="528" type="line"/>
			<point x="741" y="531" type="line"/>
			<point x="805" y="319" type="line"/>
		</contour>
	</outline>
</glyph>
<glyph name="N_E" format="2">
	<advance width="1120"/>
	<unicode hex="F3620"/>
	<outline>
		<contour>
			<point x="505" y="0" type="line"/>
			<point x="1090" y="0" type="line"/>
			<point x="1090" y="140" type="line"/>
			<point x="741" y="140" type="line"/>
			<point x="741" y="276" type="line"/>
			<point x="1060" y="276" type="line"/>
			<point x="1060" y="416" type="line"/>
			<point x="741" y="416" type="line"/>
			<point x="741" y="550" type="line"/>
			<point x="1080" y="550" type="line"/>
			<point x="1080" y="690" type="line"/>
			<point x="560" y="690" type="line"/>
			<point x="560" y="395" type="line" smooth="yes"/>
			<point x="560" y="376"/>
			<point x="560" y="350"/>
			<point x="561" y="320" type="curve" smooth="yes"/>
			<point x="561" y="223" type="line"/>
			<point x="304" y="690" type="line"/>
			<point x="80" y="690" type="line"/>
			<point x="80" y="0" type="line"/>
			<point x="260" y="0" type="line"/>
			<point x="260" y="285" type="line" smooth="yes"/>
			<point x="260" y="325"/>
			<point x="260" y="386"/>
			<point x="254" y="456" type="curve"/>
		</contour>
	</outline>
</glyph>
<glyph name="N_N_E" format="2">
	<advance width="1599"/>
	<unicode hex="F3650"/>
	<outline>
		<contour>
			<point x="505" y="0" type="line"/>
			<point x="740" y="0" type="line"/>
			<point x="740" y="657" type="line"/>
			<point x="984" y="214" type="line"/>
			<point x="1569" y="214" type="line"/>
			<point x="1569" y="354" type="line"/>
			<point x="1220" y="354" type="line"/>
			<point x="1220" y="490" type="line"/>
			<point x="1539" y="490" type="line"/>
			<point x="1539" y="630" type="line"/>
			<point x="1220" y="630" type="line"/>
			<point x="1220" y="764" type="line"/>
			<point x="1559" y="764" type="line"/>
			<point x="1559" y="904" type="line"/>
			<point x="1039" y="904" type="line"/>
			<point x="1039" y="609" type="line" smooth="yes"/>
			<point x="1039" y="590"/>
			<point x="1039" y="564"/>
			<point x="1040" y="534" type="curve" smooth="yes"/>
			<point x="1040" y="437" type="line"/>
			<point x="783" y="904" type="line"/>
			<point x="559" y="904" type="line"/>
			<point x="559" y="227" type="line"/>
			<point x="304" y="690" type="line"/>
			<point x="80" y="690" type="line"/>
			<point x="80" y="0" type="line"/>
			<point x="260" y="0" type="line"/>
			<point x="260" y="285" type="line" smooth="yes"/>
			<point x="260" y="325"/>
			<point x="260" y="386"/>
			<point x="254" y="456" type="curve"/>
		</contour>
	</outline>
</glyph>
<glyph name="n_e" format="2">
	<advance width="996"/>
	<unicode hex="F3720"/>
	<outline>
		<contour>
			<point x="972" y="274" type="curve" smooth="yes"/>
			<point x="972" y="412"/>
			<point x="882" y="548"/>
			<point x="704" y="548" type="curve" smooth="yes"/>
			<point x="640" y="548"/>
			<point x="585" y="532"/>
			<point x="541" y="503" type="curve"/>
			<point x="509" y="532"/>
			<point x="462" y="548"/>
			<point x="402" y="548" type="curve" smooth="yes"/>
			<point x="353" y="548"/>
			<point x="315" y="537"/>
			<point x="282" y="517" type="curve"/>
			<point x="234" y="451" type="line"/>
			<point x="234" y="534" type="line"/>
			<point x="54" y="534" type="line"/>
			<point x="54" y="0" type="line"/>
			<point x="234" y="0" type="line"/>
			<point x="234" y="252" type="line" smooth="yes"/>
			<point x="234" y="373"/>
			<point x="273" y="426"/>
			<point x="328" y="426" type="curve" smooth="yes"/>
			<point x="382" y="426"/>
			<point x="410" y="396"/>
			<point x="414" y="345" type="curve" smooth="yes"/>
			<point x="416" y="318"/>
			<point x="416" y="289"/>
			<point x="416" y="272" type="curve" smooth="yes"/>
			<point x="416" y="0" type="line"/>
			<point x="596" y="0" type="line"/>
			<point x="596" y="222" type="line"/>
			<point x="597" y="222" type="line"/>
			<point x="969" y="222" type="line"/>
			<point x="971" y="240"/>
			<point x="972" y="258"/>
		</contour>
		<contour>
			<point x="603" y="332" type="line"/>
			<point x="615" y="398"/>
			<point x="648" y="426"/>
			<point x="695" y="426" type="curve" smooth="yes"/>
			<point x="743" y="426"/>
			<point x="774" y="395"/>
			<point x="784" y="332" type="curve"/>
		</contour>
	</outline>
</glyph>
<glyph name="O_T_E" format="2">
	<advance width="1626"/>
	<unicode hex="F3850"/>
	<outline>
		<contour>
			<point x="407" y="704" type="curve" smooth="yes"/>
			<point x="192" y="704"/>
			<point x="54" y="567"/>
			<point x="54" y="345" type="curve" smooth="yes"/>
			<point x="54" y="124"/>
			<point x="192" y="-14"/>
			<point x="407" y="-14" type="curve" smooth="yes"/>
			<point x="622" y="-14"/>
			<point x="760" y="124"/>
			<point x="760" y="345" type="curve" smooth="yes"/>
			<point x="760" y="425"/>
			<point x="742" y="494"/>
			<point x="709" y="550" type="curve"/>
			<point x="760" y="550" type="line"/>
			<point x="760" y="0" type="line"/>
			<point x="940" y="0" type="line"/>
			<point x="940" y="550" type="line"/>
			<point x="1067" y="550" type="line"/>
			<point x="1067" y="0" type="line"/>
			<point x="1596" y="0" type="line"/>
			<point x="1596" y="140" type="line"/>
			<point x="1247" y="140" type="line"/>
			<point x="1247" y="276" type="line"/>
			<point x="1566" y="276" type="line"/>
			<point x="1566" y="416" type="line"/>
			<point x="1247" y="416" type="line"/>
			<point x="1247" y="550" type="line"/>
			<point x="1586" y="550" type="line"/>
			<point x="1586" y="690" type="line"/>
			<point x="519" y="690" type="line"/>
			<point x="485" y="699"/>
			<point x="447" y="704"/>
		</contour>
		<contour>
			<point x="238" y="345" type="curve" smooth="yes"/>
			<point x="238" y="492"/>
			<point x="303" y="572"/>
			<point x="407" y="572" type="curve" smooth="yes"/>
			<point x="511" y="572"/>
			<point x="576" y="492"/>
			<point x="576" y="345" type="curve" smooth="yes"/>
			<point x="576" y="199"/>
			<point x="511" y="118"/>
			<point x="407" y="118" type="curve" smooth="yes"/>
			<point x="303" y="118"/>
			<point x="238" y="199"/>
		</contour>
	</outline>
</glyph>
<glyph name="O_Idieresis" format="2">
	<advance width="814"/>
	<unicode hex="F3870"/>
	<outline>
		<contour>
			<point x="407" y="704" type="curve" smooth="yes"/>
			<point x="192" y="704"/>
			<point x="54" y="567"/>
			<point x="54" y="345" type="curve" smooth="yes"/>
			<point x="54" y="124"/>
			<point x="192" y="-14"/>
			<point x="407" y="-14" type="curve" smooth="yes"/>
			<point x="622" y="-14"/>
			<point x="760" y="124"/>
			<point x="760" y="345" type="curve" smooth="yes"/>
			<point x="760" y="690" type="line"/>
			<point x="580" y="690" type="line"/>
			<point x="580" y="667" type="line"/>
			<point x="531" y="691"/>
			<point x="472" y="704"/>
		</contour>
		<contour>
			<point x="238" y="345" type="curve" smooth="yes"/>
			<point x="238" y="492"/>
			<point x="303" y="572"/>
			<point x="407" y="572" type="curve" smooth="yes"/>
			<point x="511" y="572"/>
			<point x="576" y="492"/>
			<point x="576" y="345" type="curve" smooth="yes"/>
			<point x="576" y="199"/>
			<point x="511" y="118"/>
			<point x="407" y="118" type="curve" smooth="yes"/>
			<point x="303" y="118"/>
			<point x="238" y="199"/>
		</contour>
		<contour>
			<point x="498" y="721" type="line"/>
			<point x="648" y="721" type="line"/>
			<point x="648" y="868" type="line"/>
			<point x="498" y="868" type="line"/>
		</contour>
		<contour>
			<point x="699" y="721" type="line"/>
			<point x="849" y="721" type="line"/>
			<point x="849" y="868" type="line"/>
			<point x="699" y="868" type="line"/>
		</contour>
	</outline>
</glyph>
<glyph name="o_f" format="2">
	<advance width="720"/>
	<unicode hex="F3910"/>
	<outline>
		<contour>
			<point x="311" y="548" type="curve" smooth="yes"/>
			<point x="136" y="548"/>
			<point x="24" y="439"/>
			<point x="24" y="267" type="curve" smooth="yes"/>
			<point x="24" y="96"/>
			<point x="136" y="-14"/>
			<point x="311" y="-14" type="curve" smooth="yes"/>
			<point x="350" y="-14"/>
			<point x="386" y="-9"/>
			<point x="418" y="2" type="curve"/>
			<point x="418" y="0" type="line"/>
			<point x="420" y="2" type="line"/>
			<point x="531" y="39"/>
			<point x="598" y="135"/>
			<point x="598" y="267" type="curve" smooth="yes"/>
			<point x="598" y="418" type="line"/>
			<point x="707" y="418" type="line"/>
			<point x="707" y="530" type="line"/>
			<point x="598" y="530" type="line"/>
			<point x="598" y="534" type="line" smooth="yes"/>
			<point x="598" y="547"/>
			<point x="598" y="560"/>
			<point x="599" y="574" type="curve" smooth="yes"/>
			<point x="604" y="621"/>
			<point x="651" y="640"/>
			<point x="716" y="629" type="curve"/>
			<point x="716" y="746" type="line"/>
			<point x="698" y="751"/>
			<point x="677" y="754"/>
			<point x="656" y="754" type="curve" smooth="yes"/>
			<point x="491" y="754"/>
			<point x="427" y="692"/>
			<point x="419" y="592" type="curve" smooth="yes"/>
			<point x="418" y="574"/>
			<point x="418" y="550"/>
			<point x="418" y="534" type="curve" smooth="yes"/>
			<point x="418" y="532" type="line"/>
			<point x="386" y="543"/>
			<point x="350" y="548"/>
		</contour>
		<contour>
			<point x="208" y="267" type="curve" smooth="yes"/>
			<point x="208" y="374"/>
			<point x="247" y="426"/>
			<point x="311" y="426" type="curve" smooth="yes"/>
			<point x="375" y="426"/>
			<point x="414" y="374"/>
			<point x="414" y="267" type="curve" smooth="yes"/>
			<point x="414" y="161"/>
			<point x="375" y="108"/>
			<point x="311" y="108" type="curve" smooth="yes"/>
			<point x="247" y="108"/>
			<point x="208" y="161"/>
		</contour>
	</outline>
</glyph>
<glyph name="o_idieresis" format="2">
	<advance width="652"/>
	<unicode hex="F3970"/>
	<outline>
		<contour>
			<point x="311" y="548" type="curve" smooth="yes"/>
			<point x="136" y="548"/>
			<point x="24" y="439"/>
			<point x="24" y="267" type="curve" smooth="yes"/>
			<point x="24" y="96"/>
			<point x="136" y="-14"/>
			<point x="311" y="-14" type="curve" smooth="yes"/>
			<point x="486" y="-14"/>
			<point x="598" y="96"/>
			<point x="598" y="267" type="curve" smooth="yes"/>
			<point x="598" y="534" type="line"/>
			<point x="412" y="534" type="line"/>
			<point x="382" y="543"/>
			<point x="348" y="548"/>
		</contour>
		<contour>
			<point x="208" y="267" type="curve" smooth="yes"/>
			<point x="208" y="374"/>
			<point x="247" y="426"/>
			<point x="311" y="426" type="curve" smooth="yes"/>
			<point x="375" y="426"/>
			<point x="414" y="374"/>
			<point x="414" y="267" type="curve" smooth="yes"/>
			<point x="414" y="161"/>
			<point x="375" y="108"/>
			<point x="311" y="108" type="curve" smooth="yes"/>
			<point x="247" y="108"/>
			<point x="208" y="161"/>
		</contour>
		<contour>
			<point x="335" y="569" type="line"/>
			<point x="485" y="569" type="line"/>
			<point x="485" y="716" type="line"/>
			<point x="335" y="716" type="line"/>
		</contour>
		<contour>
			<point x="536" y="569" type="line"/>
			<point x="686" y="569" type="line"/>
			<point x="686" y="716" type="line"/>
			<point x="536" y="716" type="line"/>
		</contour>
	</outline>
</glyph>
<glyph name="P_M" format="2">
	<advance width="1148"/>
	<unicode hex="F4010"/>
	<outline>
		<contour>
			<point x="448" y="685" type="curve" smooth="yes"/>
			<point x="411" y="689"/>
			<point x="383" y="690"/>
			<point x="340" y="690" type="curve" smooth="yes"/>
			<point x="80" y="690" type="line"/>
			<point x="80" y="0" type="line"/>
			<point x="260" y="0" type="line"/>
			<point x="260" y="242" type="line"/>
			<point x="340" y="242" type="line" smooth="yes"/>
			<point x="383" y="242"/>
			<point x="411" y="243"/>
			<point x="448" y="247" type="curve" smooth="yes"/>
			<point x="478" y="251"/>
			<point x="508" y="260"/>
			<point x="534" y="274" type="curve"/>
			<point x="607" y="0" type="line"/>
			<point x="792" y="0" type="line"/>
			<point x="868" y="290" type="line" smooth="yes"/>
			<point x="884" y="351"/>
			<point x="904" y="439"/>
			<point x="916" y="509" type="curve"/>
			<point x="914" y="439"/>
			<point x="914" y="350"/>
			<point x="914" y="290" type="curve" smooth="yes"/>
			<point x="914" y="0" type="line"/>
			<point x="1094" y="0" type="line"/>
			<point x="1094" y="690" type="line"/>
			<point x="820" y="690" type="line"/>
			<point x="703" y="175" type="line"/>
			<point x="639" y="466" type="line"/>
			<point x="639" y="602"/>
			<point x="548" y="673"/>
		</contour>
		<contour>
			<point x="260" y="382" type="line"/>
			<point x="260" y="550" type="line"/>
			<point x="330" y="550" type="line" smooth="yes"/>
			<point x="349" y="550"/>
			<point x="365" y="550"/>
			<point x="378" y="549" type="curve" smooth="yes"/>
			<point x="424" y="545"/>
			<point x="451" y="518"/>
			<point x="451" y="466" type="curve" smooth="yes"/>
			<point x="451" y="414"/>
			<point x="424" y="387"/>
			<point x="378" y="383" type="curve" smooth="yes"/>
			<point x="365" y="382"/>
			<point x="349" y="382"/>
			<point x="330" y="382" type="curve" smooth="yes"/>
		</contour>
	</outline>
</glyph>
<glyph name="p_m" format="2">
	<advance width="1326"/>
	<unicode hex="F4110"/>
	<outline>
		<contour>
			<point x="410" y="548" type="curve" smooth="yes"/>
			<point x="356" y="548"/>
			<point x="304" y="537"/>
			<point x="274" y="515" type="curve"/>
			<point x="234" y="456" type="line"/>
			<point x="234" y="534" type="line"/>
			<point x="54" y="534" type="line"/>
			<point x="54" y="-196" type="line"/>
			<point x="234" y="-196" type="line"/>
			<point x="234" y="69" type="line"/>
			<point x="269" y="12" type="line"/>
			<point x="296" y="-4"/>
			<point x="348" y="-14"/>
			<point x="392" y="-14" type="curve" smooth="yes"/>
			<point x="529" y="-14"/>
			<point x="645" y="89"/>
			<point x="645" y="279" type="curve" smooth="yes"/>
			<point x="645" y="325"/>
			<point x="637" y="367"/>
			<point x="623" y="403" type="curve"/>
			<point x="636" y="418"/>
			<point x="653" y="426"/>
			<point x="675" y="426" type="curve" smooth="yes"/>
			<point x="722" y="426"/>
			<point x="746" y="396"/>
			<point x="752" y="345" type="curve" smooth="yes"/>
			<point x="755" y="318"/>
			<point x="756" y="289"/>
			<point x="756" y="272" type="curve" smooth="yes"/>
			<point x="756" y="0" type="line"/>
			<point x="936" y="0" type="line"/>
			<point x="936" y="282" type="line" smooth="yes"/>
			<point x="936" y="373"/>
			<point x="959" y="426"/>
			<point x="1017" y="426" type="curve" smooth="yes"/>
			<point x="1064" y="426"/>
			<point x="1088" y="396"/>
			<point x="1094" y="345" type="curve" smooth="yes"/>
			<point x="1097" y="318"/>
			<point x="1098" y="289"/>
			<point x="1098" y="272" type="curve" smooth="yes"/>
			<point x="1098" y="0" type="line"/>
			<point x="1278" y="0" type="line"/>
			<point x="1278" y="312" type="line" smooth="yes"/>
			<point x="1278" y="355"/>
			<point x="1277" y="386"/>
			<point x="1273" y="413" type="curve" smooth="yes"/>
			<point x="1261" y="486"/>
			<point x="1201" y="548"/>
			<point x="1094" y="548" type="curve" smooth="yes"/>
			<point x="1045" y="548"/>
			<point x="1012" y="537"/>
			<point x="979" y="517" type="curve"/>
			<point x="923" y="444" type="line"/>
			<point x="900" y="503"/>
			<point x="843" y="548"/>
			<point x="752" y="548" type="curve" smooth="yes"/>
			<point x="703" y="548"/>
			<point x="670" y="537"/>
			<point x="637" y="517" type="curve"/>
			<point x="597" y="453" type="line"/>
			<point x="557" y="512"/>
			<point x="492" y="548"/>
		</contour>
		<contour>
			<point x="234" y="251" type="curve" smooth="yes"/>
			<point x="234" y="274" type="line" smooth="yes"/>
			<point x="234" y="386"/>
			<point x="282" y="426"/>
			<point x="348" y="426" type="curve" smooth="yes"/>
			<point x="411" y="426"/>
			<point x="461" y="370"/>
			<point x="461" y="270" type="curve" smooth="yes"/>
			<point x="461" y="161"/>
			<point x="413" y="108"/>
			<point x="343" y="108" type="curve" smooth="yes"/>
			<point x="289" y="108"/>
			<point x="234" y="144"/>
		</contour>
	</outline>
</glyph>
<glyph name="R_I_C_E" format="2">
	<advance width="1792"/>
	<unicode hex="F4490"/>
	<outline>
		<contour>
			<point x="618" y="168" type="curve" smooth="yes"/>
			<point x="608" y="251"/>
			<point x="582" y="304"/>
			<point x="510" y="330" type="curve"/>
			<point x="602" y="357"/>
			<point x="649" y="415"/>
			<point x="649" y="502" type="curve" smooth="yes"/>
			<point x="649" y="624"/>
			<point x="562" y="673"/>
			<point x="462" y="685" type="curve" smooth="yes"/>
			<point x="425" y="689"/>
			<point x="397" y="690"/>
			<point x="354" y="690" type="curve" smooth="yes"/>
			<point x="80" y="690" type="line"/>
			<point x="80" y="0" type="line"/>
			<point x="260" y="0" type="line"/>
			<point x="260" y="262" type="line"/>
			<point x="300" y="262" type="line" smooth="yes"/>
			<point x="320" y="262"/>
			<point x="337" y="262"/>
			<point x="357" y="261" type="curve" smooth="yes"/>
			<point x="403" y="258"/>
			<point x="433" y="214"/>
			<point x="442" y="138" type="curve" smooth="yes"/>
			<point x="448" y="89"/>
			<point x="458" y="49"/>
			<point x="474" y="0" type="curve"/>
			<point x="670" y="0" type="line"/>
			<point x="643" y="41"/>
			<point x="627" y="90"/>
		</contour>
		<contour>
			<point x="260" y="392" type="line"/>
			<point x="260" y="550" type="line"/>
			<point x="330" y="550" type="line" smooth="yes"/>
			<point x="349" y="550"/>
			<point x="365" y="550"/>
			<point x="378" y="549" type="curve" smooth="yes"/>
			<point x="424" y="545"/>
			<point x="461" y="529"/>
			<point x="461" y="471" type="curve" smooth="yes"/>
			<point x="461" y="413"/>
			<point x="419" y="397"/>
			<point x="373" y="393" type="curve" smooth="yes"/>
			<point x="360" y="392"/>
			<point x="344" y="392"/>
			<point x="325" y="392" type="curve" smooth="yes"/>
		</contour>
		<contour>
			<point x="646" y="729" type="line"/>
			<point x="829" y="729" type="line"/>
			<point x="829" y="905" type="line"/>
			<point x="646" y="905" type="line"/>
		</contour>
		<contour>
			<point x="761" y="340" type="curve" smooth="yes"/>
			<point x="761" y="106"/>
			<point x="910" y="-14"/>
			<point x="1095" y="-14" type="curve" smooth="yes"/>
			<point x="1215" y="-14"/>
			<point x="1313" y="27"/>
			<point x="1367" y="107" type="curve"/>
			<point x="1762" y="107" type="line"/>
			<point x="1762" y="247" type="line"/>
			<point x="1233" y="247" type="line"/>
			<point x="1231" y="237" type="line" smooth="yes"/>
			<point x="1216" y="161"/>
			<point x="1171" y="118"/>
			<point x="1101" y="118" type="curve" smooth="yes"/>
			<point x="1021" y="118"/>
			<point x="949" y="177"/>
			<point x="949" y="351" type="curve" smooth="yes"/>
			<point x="949" y="500"/>
			<point x="1014" y="572"/>
			<point x="1100" y="572" type="curve" smooth="yes"/>
			<point x="1173" y="572"/>
			<point x="1218" y="537"/>
			<point x="1233" y="463" type="curve" smooth="yes"/>
			<point x="1235" y="453" type="line"/>
			<point x="1734" y="453" type="line"/>
			<point x="1734" y="593" type="line"/>
			<point x="1415" y="593" type="line"/>
			<point x="1415" y="727" type="line"/>
			<point x="1754" y="727" type="line"/>
			<point x="1754" y="867" type="line"/>
			<point x="1235" y="867" type="line"/>
			<point x="1235" y="684" type="line"/>
			<point x="1197" y="697"/>
			<point x="1153" y="704"/>
			<point x="1102" y="704" type="curve" smooth="yes"/>
			<point x="915" y="704"/>
			<point x="761" y="580"/>
		</contour>
	</outline>
</glyph>
<glyph name="r_e" format="2">
	<advance width="857"/>
	<unicode hex="F4510"/>
	<outline>
		<contour>
			<point x="833" y="456" type="curve" smooth="yes"/>
			<point x="833" y="594"/>
			<point x="743" y="730"/>
			<point x="565" y="730" type="curve" smooth="yes"/>
			<point x="414" y="730"/>
			<point x="314" y="638"/>
			<point x="287" y="515" type="curve"/>
			<point x="282" y="511"/>
			<point x="277" y="506"/>
			<point x="272" y="501" type="curve"/>
			<point x="234" y="426" type="line"/>
			<point x="234" y="534" type="line"/>
			<point x="54" y="534" type="line"/>
			<point x="54" y="0" type="line"/>
			<point x="234" y="0" type="line"/>
			<point x="234" y="196" type="line" smooth="yes"/>
			<point x="234" y="287"/>
			<point x="250" y="342"/>
			<point x="287" y="372" type="curve"/>
			<point x="316" y="235"/>
			<point x="424" y="168"/>
			<point x="555" y="168" type="curve"/>
			<point x="557" y="290" type="line"/>
			<point x="506" y="290"/>
			<point x="467" y="315"/>
			<point x="458" y="404" type="curve"/>
			<point x="830" y="404" type="line"/>
			<point x="832" y="422"/>
			<point x="833" y="440"/>
		</contour>
		<contour>
			<point x="464" y="514" type="line"/>
			<point x="476" y="580"/>
			<point x="509" y="608"/>
			<point x="556" y="608" type="curve" smooth="yes"/>
			<point x="604" y="608"/>
			<point x="635" y="577"/>
			<point x="645" y="514" type="curve"/>
		</contour>
	</outline>
</glyph>
<glyph name="r_i_c_e" format="2">
	<advance width="1502"/>
	<unicode hex="F4590"/>
	<outline>
		<contour>
			<point x="377" y="548" type="curve" smooth="yes"/>
			<point x="343" y="548"/>
			<point x="301" y="533"/>
			<point x="272" y="501" type="curve"/>
			<point x="234" y="426" type="line"/>
			<point x="234" y="534" type="line"/>
			<point x="54" y="534" type="line"/>
			<point x="54" y="0" type="line"/>
			<point x="234" y="0" type="line"/>
			<point x="234" y="196" type="line" smooth="yes"/>
			<point x="234" y="357"/>
			<point x="283" y="407"/>
			<point x="418" y="398" type="curve"/>
			<point x="418" y="545" type="line"/>
			<point x="405" y="547"/>
			<point x="394" y="548"/>
		</contour>
		<contour>
			<point x="469" y="572" type="line"/>
			<point x="652" y="572" type="line"/>
			<point x="652" y="748" type="line"/>
			<point x="469" y="748" type="line"/>
		</contour>
		<contour>
			<point x="566" y="261" type="curve" smooth="yes"/>
			<point x="566" y="85"/>
			<point x="682" y="-14"/>
			<point x="835" y="-14" type="curve" smooth="yes"/>
			<point x="980" y="-14"/>
			<point x="1087" y="58"/>
			<point x="1107" y="196" type="curve"/>
			<point x="930" y="196" type="line"/>
			<point x="920" y="138"/>
			<point x="886" y="108"/>
			<point x="845" y="108" type="curve" smooth="yes"/>
			<point x="784" y="108"/>
			<point x="750" y="158"/>
			<point x="750" y="272" type="curve" smooth="yes"/>
			<point x="750" y="375"/>
			<point x="783" y="426"/>
			<point x="843" y="426" type="curve" smooth="yes"/>
			<point x="888" y="426"/>
			<point x="923" y="400"/>
			<point x="931" y="330" type="curve"/>
			<point x="1475" y="330" type="line"/>
			<point x="1477" y="348"/>
			<point x="1478" y="366"/>
			<point x="1478" y="382" type="curve" smooth="yes"/>
			<point x="1478" y="520"/>
			<point x="1388" y="656"/>
			<point x="1210" y="656" type="curve" smooth="yes"/>
			<point x="1096" y="656"/>
			<point x="1012" y="604"/>
			<point x="965" y="526" type="curve"/>
			<point x="931" y="540"/>
			<point x="892" y="548"/>
			<point x="847" y="548" type="curve" smooth="yes"/>
			<point x="690" y="548"/>
			<point x="566" y="445"/>
		</contour>
		<contour>
			<point x="1109" y="440" type="line"/>
			<point x="1121" y="506"/>
			<point x="1154" y="534"/>
			<point x="1201" y="534" type="curve" smooth="yes"/>
			<point x="1249" y="534"/>
			<point x="1280" y="503"/>
			<point x="1290" y="440" type="curve"/>
		</contour>
	</outline>
</glyph>
<glyph name="r_s" format="2">
	<advance width="567"/>
	<unicode hex="F45C0"/>
	<outline>
		<contour>
			<point x="377" y="548" type="curve" smooth="yes"/>
			<point x="343" y="548"/>
			<point x="301" y="533"/>
			<point x="272" y="501" type="curve"/>
			<point x="234" y="426" type="line"/>
			<point x="234" y="534" type="line"/>
			<point x="54" y="534" type="line"/>
			<point x="54" y="0" type="line" smooth="yes"/>
			<point x="57" y="-136"/>
			<point x="170" y="-205"/>
			<point x="315" y="-205" type="curve" smooth="yes"/>
			<point x="444" y="-205"/>
			<point x="551" y="-127"/>
			<point x="551" y="-13" type="curve" smooth="yes"/>
			<point x="551" y="90"/>
			<point x="482" y="132"/>
			<point x="385" y="156" type="curve" smooth="yes"/>
			<point x="283" y="181"/>
			<point x="259" y="201"/>
			<point x="259" y="231" type="curve" smooth="yes"/>
			<point x="259" y="254"/>
			<point x="277" y="270"/>
			<point x="302" y="270" type="curve" smooth="yes"/>
			<point x="334" y="270"/>
			<point x="352" y="249"/>
			<point x="360" y="212" type="curve"/>
			<point x="537" y="212" type="line"/>
			<point x="523" y="309"/>
			<point x="446" y="382"/>
			<point x="313" y="382" type="curve" smooth="yes"/>
			<point x="303" y="382" type="line"/>
			<point x="331" y="397"/>
			<point x="369" y="401"/>
			<point x="418" y="398" type="curve"/>
			<point x="418" y="545" type="line"/>
			<point x="405" y="547"/>
			<point x="394" y="548"/>
		</contour>
		<contour>
			<point x="234" y="0" type="curve" smooth="yes"/>
			<point x="234" y="50" type="line"/>
			<point x="242" y="48" type="line" smooth="yes"/>
			<point x="337" y="26"/>
			<point x="371" y="7"/>
			<point x="371" y="-27" type="curve" smooth="yes"/>
			<point x="371" y="-55"/>
			<point x="346" y="-68"/>
			<point x="314" y="-68" type="curve" smooth="yes"/>
			<point x="276" y="-68"/>
			<point x="234" y="-65"/>
		</contour>
	</outline>
</glyph>
<glyph name="s_l" format="2">
	<advance width="567"/>
	<unicode hex="F4760"/>
	<outline>
		<contour>
			<point x="274" y="548" type="curve" smooth="yes"/>
			<point x="132" y="548"/>
			<point x="40" y="482"/>
			<point x="40" y="376" type="curve" smooth="yes"/>
			<point x="40" y="285"/>
			<point x="101" y="238"/>
			<point x="203" y="214" type="curve" smooth="yes"/>
			<point x="298" y="192"/>
			<point x="332" y="173"/>
			<point x="332" y="139" type="curve" smooth="yes"/>
			<point x="332" y="111"/>
			<point x="307" y="98"/>
			<point x="275" y="98" type="curve" smooth="yes"/>
			<point x="237" y="98"/>
			<point x="205" y="125"/>
			<point x="195" y="166" type="curve"/>
			<point x="18" y="166" type="line"/>
			<point x="32" y="46"/>
			<point x="131" y="-14"/>
			<point x="276" y="-14" type="curve" smooth="yes"/>
			<point x="405" y="-14"/>
			<point x="512" y="39"/>
			<point x="512" y="153" type="curve" smooth="yes"/>
			<point x="512" y="256"/>
			<point x="443" y="298"/>
			<point x="346" y="322" type="curve" smooth="yes"/>
			<point x="244" y="347"/>
			<point x="220" y="367"/>
			<point x="220" y="397" type="curve" smooth="yes"/>
			<point x="220" y="420"/>
			<point x="238" y="436"/>
			<point x="263" y="436" type="curve" smooth="yes"/>
			<point x="291" y="436"/>
			<point x="308" y="420"/>
			<point x="317" y="391" type="curve" smooth="yes"/>
			<point x="318" y="388"/>
			<point x="319" y="385"/>
			<point x="320" y="382" type="curve" smooth="yes"/>
			<point x="321" y="378" type="line" smooth="yes"/>
			<point x="338" y="333"/>
			<point x="382" y="312"/>
			<point x="448" y="312" type="curve" smooth="yes"/>
			<point x="488" y="312"/>
			<point x="520" y="314"/>
			<point x="553" y="317" type="curve"/>
			<point x="553" y="439" type="line"/>
			<point x="506" y="437"/>
			<point x="497" y="444"/>
			<point x="494" y="465" type="curve" smooth="yes"/>
			<point x="492" y="478"/>
			<point x="492" y="489"/>
			<point x="492" y="514" type="curve" smooth="yes"/>
			<point x="492" y="936" type="line"/>
			<point x="312" y="936" type="line"/>
			<point x="312" y="546" type="line"/>
			<point x="300" y="547"/>
			<point x="287" y="548"/>
		</contour>
	</outline>
</glyph>
<glyph name="t_e" format="2">
	<advance width="929"/>
	<unicode hex="F4910"/>
	<outline>
		<contour>
			<point x="270" y="221" type="curve" smooth="yes"/>
			<point x="270" y="418" type="line"/>
			<point x="388" y="418" type="line"/>
			<point x="902" y="419" type="line"/>
			<point x="904" y="437"/>
			<point x="905" y="455"/>
			<point x="905" y="471" type="curve" smooth="yes"/>
			<point x="905" y="609"/>
			<point x="815" y="745"/>
			<point x="637" y="745" type="curve" smooth="yes"/>
			<point x="486" y="745"/>
			<point x="386" y="653"/>
			<point x="359" y="530" type="curve"/>
			<point x="270" y="530" type="line"/>
			<point x="270" y="668" type="line"/>
			<point x="90" y="668" type="line"/>
			<point x="90" y="530" type="line"/>
			<point x="5" y="530" type="line"/>
			<point x="5" y="418" type="line"/>
			<point x="90" y="418" type="line"/>
			<point x="90" y="195" type="line" smooth="yes"/>
			<point x="90" y="165"/>
			<point x="90" y="140"/>
			<point x="92" y="109" type="curve" smooth="yes"/>
			<point x="98" y="27"/>
			<point x="138" y="-14"/>
			<point x="271" y="-14" type="curve" smooth="yes"/>
			<point x="309" y="-14"/>
			<point x="342" y="-11"/>
			<point x="377" y="-5" type="curve"/>
			<point x="377" y="107" type="line"/>
			<point x="292" y="103"/>
			<point x="275" y="115"/>
			<point x="271" y="169" type="curve" smooth="yes"/>
			<point x="270" y="183"/>
			<point x="270" y="203"/>
		</contour>
		<contour>
			<point x="536" y="529" type="line"/>
			<point x="548" y="595"/>
			<point x="581" y="623"/>
			<point x="628" y="623" type="curve" smooth="yes"/>
			<point x="676" y="623"/>
			<point x="707" y="592"/>
			<point x="717" y="529" type="curve"/>
		</contour>
	</outline>
</glyph>
<glyph name="U_E" format="2">
	<advance width="1059"/>
	<unicode hex="F5010"/>
	<outline>
		<contour>
			<point x="1029" y="201" type="line"/>
			<point x="1029" y="341" type="line"/>
			<point x="680" y="341" type="line"/>
			<point x="680" y="477" type="line"/>
			<point x="999" y="477" type="line"/>
			<point x="999" y="617" type="line"/>
			<point x="680" y="617" type="line"/>
			<point x="680" y="751" type="line"/>
			<point x="1019" y="751" type="line"/>
			<point x="1019" y="891" type="line"/>
			<point x="500" y="891" type="line"/>
			<point x="500" y="270" type="line" smooth="yes"/>
			<point x="500" y="251"/>
			<point x="500" y="241"/>
			<point x="499" y="229" type="curve" smooth="yes"/>
			<point x="494" y="157"/>
			<point x="453" y="118"/>
			<point x="374" y="118" type="curve" smooth="yes"/>
			<point x="295" y="118"/>
			<point x="254" y="157"/>
			<point x="249" y="229" type="curve" smooth="yes"/>
			<point x="248" y="241"/>
			<point x="248" y="251"/>
			<point x="248" y="270" type="curve" smooth="yes"/>
			<point x="248" y="690" type="line"/>
			<point x="68" y="690" type="line"/>
			<point x="68" y="303" type="line" smooth="yes"/>
			<point x="68" y="268"/>
			<point x="68" y="247"/>
			<point x="71" y="206" type="curve" smooth="yes"/>
			<point x="79" y="90"/>
			<point x="161" y="-14"/>
			<point x="374" y="-14" type="curve" smooth="yes"/>
			<point x="584" y="-14"/>
			<point x="667" y="87"/>
			<point x="677" y="201" type="curve"/>
		</contour>
	</outline>
</glyph>
<glyph name="u_e" format="2">
	<advance width="979"/>
	<unicode hex="F5110"/>
	<outline>
		<contour>
			<point x="955" y="53" type="curve" smooth="yes"/>
			<point x="955" y="191"/>
			<point x="865" y="327"/>
			<point x="687" y="327" type="curve" smooth="yes"/>
			<point x="650" y="327"/>
			<point x="616" y="322"/>
			<point x="586" y="312" type="curve"/>
			<point x="586" y="534" type="line"/>
			<point x="406" y="534" type="line"/>
			<point x="406" y="232" type="line" smooth="yes"/>
			<point x="406" y="161"/>
			<point x="372" y="108"/>
			<point x="315" y="108" type="curve" smooth="yes"/>
			<point x="258" y="108"/>
			<point x="234" y="138"/>
			<point x="228" y="189" type="curve" smooth="yes"/>
			<point x="225" y="216"/>
			<point x="224" y="245"/>
			<point x="224" y="262" type="curve" smooth="yes"/>
			<point x="224" y="534" type="line"/>
			<point x="44" y="534" type="line"/>
			<point x="44" y="222" type="line" smooth="yes"/>
			<point x="44" y="179"/>
			<point x="45" y="148"/>
			<point x="49" y="121" type="curve" smooth="yes"/>
			<point x="61" y="48"/>
			<point x="128" y="-14"/>
			<point x="238" y="-14" type="curve" smooth="yes"/>
			<point x="287" y="-14"/>
			<point x="325" y="-3"/>
			<point x="358" y="17" type="curve"/>
			<point x="405" y="88" type="line"/>
			<point x="403" y="74"/>
			<point x="402" y="59"/>
			<point x="402" y="44" type="curve" smooth="yes"/>
			<point x="402" y="-144"/>
			<point x="524" y="-235"/>
			<point x="677" y="-235" type="curve" smooth="yes"/>
			<point x="814" y="-235"/>
			<point x="914" y="-167"/>
			<point x="945" y="-46" type="curve"/>
			<point x="768" y="-46" type="line"/>
			<point x="761" y="-87"/>
			<point x="730" y="-113"/>
			<point x="679" y="-113" type="curve" smooth="yes"/>
			<point x="628" y="-113"/>
			<point x="589" y="-88"/>
			<point x="580" y="1" type="curve"/>
			<point x="952" y="1" type="line"/>
			<point x="954" y="19"/>
			<point x="955" y="37"/>
		</contour>
		<contour>
			<point x="586" y="111" type="line"/>
			<point x="598" y="177"/>
			<point x="631" y="205"/>
			<point x="678" y="205" type="curve" smooth="yes"/>
			<point x="726" y="205"/>
			<point x="757" y="174"/>
			<point x="767" y="111" type="curve"/>
		</contour>
	</outline>
</glyph>
